<svg width="18" height="6" viewBox="0 0 18 6" fill="none" xmlns="http://www.w3.org/2000/svg">
<path d="M8.69617 0.217413C7.75321 0.332319 6.9276 0.869241 6.47289 1.66104C6.03284 2.42778 5.97836 3.3909 6.3262 4.19732C6.70548 5.07061 7.46404 5.68274 8.43004 5.89166C8.71293 5.95225 9.29966 5.95851 9.58255 5.90211C10.1798 5.78302 10.6827 5.5156 11.108 5.09359C11.6675 4.53786 11.9441 3.87141 11.9441 3.07752C11.9441 2.89994 11.9316 2.70355 11.9106 2.58447C11.7136 1.44168 10.8084 0.514078 9.6496 0.267554C9.44634 0.223681 8.88266 0.194432 8.69617 0.217413ZM9.4673 1.53987C10.0331 1.70283 10.4731 2.15618 10.6135 2.72235C10.6617 2.91456 10.6617 3.24047 10.6135 3.43268C10.5318 3.76277 10.3181 4.09704 10.0498 4.31223C9.15507 5.02673 7.83284 4.62979 7.46613 3.53714C7.41794 3.3909 7.40956 3.33658 7.40956 3.08796C7.40746 2.76205 7.44308 2.61372 7.59186 2.32541C7.70082 2.11649 7.96695 1.83863 8.18278 1.71327C8.33994 1.62135 8.57673 1.53152 8.74855 1.50018C8.91619 1.47093 9.29337 1.49182 9.4673 1.53987Z" fill="white"/>
<path d="M2.09546 1.31217V2.31498H1.04773H0V2.96263V3.61028H1.04773H2.09546V4.68621V5.76215H2.78696H3.47846V4.68621V3.61028H4.52619H5.57392V2.96263V2.31498H4.52619H3.47846V1.31217V0.309354H2.78696H2.09546V1.31217Z" fill="white"/>
<path d="M14.6012 1.10951L14.5949 1.91176L13.8971 1.51482C13.4382 1.25576 13.1909 1.12623 13.1784 1.13876C13.1658 1.1513 13.0149 1.40409 12.8431 1.70076C12.5539 2.19589 12.5329 2.24395 12.5665 2.26693C12.5853 2.28364 12.8976 2.46122 13.258 2.66596C13.7546 2.94591 13.9076 3.03993 13.8866 3.05664C13.8699 3.06709 13.5597 3.24676 13.1951 3.45359C12.8305 3.66042 12.5329 3.83382 12.5309 3.84009C12.5309 3.85471 13.1574 4.93065 13.1784 4.95363C13.1888 4.96407 13.5115 4.79276 13.895 4.5734L14.5949 4.17645L14.6012 4.97034L14.6054 5.76215H15.2654H15.9255L15.9297 4.97034L15.936 4.17854L16.6359 4.57548C17.0193 4.79276 17.342 4.96407 17.3504 4.95363C17.3777 4.92438 18 3.86516 18 3.84636C18 3.838 17.7024 3.66042 17.3378 3.45568C16.9753 3.24885 16.6631 3.06918 16.6463 3.05664C16.6212 3.03993 16.7595 2.95427 17.3064 2.64925C17.6878 2.43615 17.9979 2.2523 17.9979 2.24186C18 2.21261 17.3609 1.13876 17.3378 1.13041C17.3274 1.12623 17.0089 1.30172 16.6275 1.519L15.936 1.91176L15.9297 1.1116L15.9255 0.309354H15.2654H14.6054L14.6012 1.10951Z" fill="white"/>
</svg>
