<svg width="71" height="72" viewBox="0 0 71 72" style="mask-type: luminance; fill: blue;" fill="none" xmlns="http://www.w3.org/2000/svg">
<g clip-path="url(#clip0_9_22170)">
<mask id="mask0_9_22170" style="mask-type:luminance" maskUnits="userSpaceOnUse" x="0" y="6" width="71" height="60">
<path d="M70.5603 6.42847H0.152832V65.5713H70.5603V6.42847Z" fill="white"/>
</mask>
<g mask="url(#mask0_9_22170)">
<path fill-rule="evenodd" clip-rule="evenodd" d="M44.0878 20.7921C40.5287 20.7921 37.3635 22.4849 35.3573 25.1108C33.3498 22.4863 30.1859 20.7921 26.6268 20.7921C20.5603 20.7921 15.6431 25.7093 15.6431 31.7758C15.6431 35.2926 17.2962 38.424 19.8672 40.4343V43.6053C19.9547 51.0849 26.919 57.1231 35.4971 57.1231C44.0427 57.1231 50.9872 51.1301 51.1257 43.6899L51.1271 43.6053H51.1285V40.207C53.5383 38.1924 55.0715 35.1641 55.0715 31.7772C55.0701 25.7093 50.1529 20.7921 44.0878 20.7921ZM35.3573 6.42847C47.7543 6.42847 58.2975 14.672 62.1942 26.1752C66.9971 27.3485 70.5604 31.6812 70.5604 36.8455C70.5604 42.2541 66.6511 46.7492 61.5037 47.6613C57.1526 58.1947 47.0837 65.5727 35.3559 65.5727C23.6281 65.5727 13.5606 58.1933 9.20808 47.6599C4.06208 46.7492 0.152832 42.2527 0.152832 36.8441C0.152832 31.6798 3.71761 27.3485 8.52053 26.1738C12.4157 14.672 22.9603 6.42847 35.3573 6.42847Z" fill="currentColor"/>
<path d="M43.6641 29.2397C45.1423 29.2397 46.3394 30.6261 46.3394 32.3372C46.3394 34.0483 45.1409 35.4347 43.6641 35.4347C42.1859 35.4347 40.9888 34.0483 40.9888 32.3372C40.9888 30.6261 42.1873 29.2397 43.6641 29.2397ZM27.3296 29.2397C28.8078 29.2397 30.0049 30.6261 30.0049 32.3372C30.0049 34.0483 28.8078 35.4347 27.3296 35.4347C25.8514 35.4347 24.6543 34.0483 24.6543 32.3372C24.6543 30.6261 25.8528 29.2397 27.3296 29.2397ZM44.6509 43.04V43.856C44.6509 47.9644 40.5158 51.2072 35.4983 51.2072C30.4808 51.2072 26.3457 47.9644 26.3457 43.856V43.04H44.6509Z" fill="currentColor"/>
</g>
</g>
<defs>
<clipPath id="clip0_9_22170">
<rect width="70.7143" style="mask-type: luminance; fill: blue;" height="72" fill="white"/>
</clipPath>
</defs>
</svg>
