<svg width="20" height="20" viewBox="0 0 20 20" fill="none" xmlns="http://www.w3.org/2000/svg">
<g id="icon/checkbox">
<path id="Subtract" fill-rule="evenodd" clip-rule="evenodd" d="M5.83333 2.5C3.99238 2.5 2.5 3.99238 2.5 5.83333V14.1667C2.5 16.0076 3.99238 17.5 5.83333 17.5H14.1667C16.0076 17.5 17.5 16.0076 17.5 14.1667V5.83333C17.5 3.99238 16.0076 2.5 14.1667 2.5H5.83333ZM14.6381 7.9714C14.8984 7.71105 14.8984 7.28895 14.6381 7.0286C14.3777 6.76825 13.9556 6.76825 13.6953 7.0286L9.16667 11.5572L6.7214 9.11193C6.46105 8.85158 6.03894 8.85158 5.7786 9.11193C5.51825 9.37228 5.51825 9.79439 5.7786 10.0547L8.69526 12.9714C8.95561 13.2318 9.37772 13.2318 9.63807 12.9714L14.6381 7.9714Z" fill="#4850FF"/>
</g>
</svg>
