<svg width="25" height="24" viewBox="0 0 25 24" fill="none" xmlns="http://www.w3.org/2000/svg">
<g id="Frame 37">
<path id="Subtract" fill-rule="evenodd" clip-rule="evenodd" d="M22.5 12C22.5 17.5228 18.0228 22 12.5 22C6.97715 22 2.5 17.5228 2.5 12C2.5 6.47715 6.97715 2 12.5 2C18.0228 2 22.5 6.47715 22.5 12ZM12.5 6.95C12.9418 6.95 13.3 7.30817 13.3 7.75V14.3186L15.6843 11.9343C15.9967 11.6219 16.5033 11.6219 16.8157 11.9343C17.1281 12.2467 17.1281 12.7533 16.8157 13.0657L13.0657 16.8157C12.7533 17.1281 12.2467 17.1281 11.9343 16.8157L8.18431 13.0657C7.8719 12.7533 7.8719 12.2467 8.18431 11.9343C8.49673 11.6219 9.00327 11.6219 9.31569 11.9343L11.7 14.3186V7.75C11.7 7.30817 12.0582 6.95 12.5 6.95Z" fill="white"/>
</g>
</svg>
