<svg width="16" height="16" viewBox="0 0 16 16" fill="none" xmlns="http://www.w3.org/2000/svg">
<g id="GlobeHemisphereWest" clip-path="url(#clip0_4115_1203)">
<path id="Vector" d="M8 14C11.3137 14 14 11.3137 14 8C14 4.68629 11.3137 2 8 2C4.68629 2 2 4.68629 2 8C2 11.3137 4.68629 14 8 14Z" stroke="currentColor" stroke-linecap="round" stroke-linejoin="round"/>
<path id="Vector_2" d="M4.74219 7.70359L5.57469 6.24984C5.61863 6.17373 5.68187 6.11054 5.75802 6.06665C5.83417 6.02276 5.92054 5.99971 6.00844 5.99984H7.05281C7.13725 5.99998 7.22031 5.97846 7.29406 5.93734L8.06219 5.51484C8.09598 5.49666 8.12728 5.47418 8.15531 5.44797L9.83781 3.92734C9.92153 3.85121 9.97694 3.74892 9.99499 3.63721C10.013 3.5255 9.99266 3.41097 9.93719 3.31234L9.28094 2.13672" stroke="currentColor" stroke-linecap="round" stroke-linejoin="round"/>
<path id="Vector_3" d="M4.23653 3.32715L3.50028 5.06777C3.45055 5.18561 3.44787 5.31802 3.49278 5.43777L4.21153 7.35465C4.24106 7.43297 4.28979 7.50262 4.35323 7.55722C4.41667 7.61182 4.49281 7.64962 4.57466 7.66715L5.91403 7.95527C5.98832 7.97121 6.058 8.00386 6.11778 8.05075C6.17756 8.09764 6.22587 8.15754 6.25903 8.2259L6.49653 8.71777C6.5375 8.80228 6.60144 8.87353 6.68102 8.92338C6.76061 8.97323 6.85262 8.99967 6.94653 8.99965H7.80903" stroke="currentColor" stroke-linecap="round" stroke-linejoin="round"/>
<path id="Vector_4" d="M13.3182 10.7801L10.0445 8.7664C9.98492 8.7301 9.91854 8.70649 9.84946 8.69702L8.42321 8.50452C8.31609 8.49002 8.20715 8.51062 8.11273 8.56324C8.01831 8.61586 7.94348 8.69767 7.89946 8.7964L7.04321 10.7176C7.00341 10.807 6.99073 10.9062 7.00673 11.0027C7.02272 11.0993 7.0667 11.189 7.13321 11.2608L8.36696 12.5314C8.42044 12.5889 8.45963 12.6582 8.48134 12.7337C8.50306 12.8091 8.5067 12.8886 8.49196 12.9658L8.29383 13.9933" stroke="currentColor" stroke-linecap="round" stroke-linejoin="round"/>
</g>
<defs>
<clipPath id="clip0_4115_1203">
<rect width="16" height="16" fill="white"/>
</clipPath>
</defs>
</svg>
