<svg width="25" height="24" viewBox="0 0 25 24" fill="none" xmlns="http://www.w3.org/2000/svg">
<path d="M12.5001 2.24683C6.97791 2.24683 2.5 6.72391 2.5 12.2469C2.5 16.6652 5.36533 20.4137 9.33867 21.736C9.83844 21.8285 10.0219 21.519 10.0219 21.2549C10.0219 21.0164 10.0126 20.2287 10.0083 19.3931C7.22631 19.998 6.63927 18.2132 6.63927 18.2132C6.18437 17.0573 5.52894 16.75 5.52894 16.75C4.62163 16.1293 5.59733 16.1421 5.59733 16.1421C6.60151 16.2126 7.13026 17.1726 7.13026 17.1726C8.02217 18.7014 9.46965 18.2594 10.0403 18.0039C10.1301 17.3576 10.3892 16.9164 10.6752 16.6667C8.45405 16.4138 6.11913 15.5564 6.11913 11.7246C6.11913 10.6328 6.50977 9.74076 7.14947 9.04045C7.04564 8.78858 6.70335 7.77148 7.24635 6.39404C7.24635 6.39404 8.08609 6.12528 9.99708 7.41909C10.7948 7.19752 11.6502 7.0864 12.5001 7.08259C13.3499 7.0864 14.2061 7.19752 15.0052 7.41909C16.9139 6.12528 17.7525 6.39404 17.7525 6.39404C18.2968 7.77148 17.9544 8.78858 17.8505 9.04045C18.4917 9.74076 18.8797 10.6328 18.8797 11.7246C18.8797 15.5655 16.5403 16.4112 14.3135 16.6587C14.6722 16.9691 14.9918 17.5776 14.9918 18.5106C14.9918 19.8486 14.9802 20.9255 14.9802 21.2549C14.9802 21.521 15.1602 21.8328 15.6671 21.7346C19.6383 20.4109 22.5 16.6637 22.5 12.2469C22.5 6.72391 18.0227 2.24683 12.5001 2.24683ZM6.24536 16.4922C6.22333 16.5418 6.14517 16.5567 6.07396 16.5226C6.00143 16.49 5.96069 16.4223 5.98421 16.3724C6.00574 16.3213 6.08406 16.307 6.15643 16.3413C6.22913 16.3739 6.27053 16.4423 6.24536 16.4922ZM6.73725 16.9311C6.68956 16.9753 6.59633 16.9547 6.53307 16.8849C6.46766 16.8151 6.4554 16.7219 6.50376 16.677C6.55294 16.6328 6.64336 16.6535 6.70893 16.7232C6.77434 16.7938 6.78709 16.8864 6.73725 16.9311ZM7.07471 17.4926C7.01344 17.5352 6.91325 17.4953 6.85132 17.4064C6.79004 17.3174 6.79004 17.2108 6.85264 17.1681C6.91474 17.1253 7.01344 17.1638 7.0762 17.252C7.1373 17.3424 7.1373 17.4491 7.07471 17.4926ZM7.64542 18.143C7.59061 18.2035 7.47386 18.1872 7.38841 18.1048C7.30098 18.0241 7.27663 17.9097 7.33161 17.8492C7.38709 17.7886 7.5045 17.8057 7.59061 17.8875C7.67738 17.968 7.70387 18.0832 7.64542 18.143ZM8.38301 18.3626C8.35883 18.4409 8.24639 18.4765 8.13312 18.4432C8.02002 18.4089 7.946 18.3172 7.96885 18.238C7.99237 18.1592 8.1053 18.1221 8.2194 18.1577C8.33234 18.1918 8.40652 18.2829 8.38301 18.3626ZM9.22242 18.4557C9.22523 18.5382 9.12919 18.6066 9.01029 18.6081C8.89073 18.6107 8.79402 18.544 8.79269 18.4628C8.79269 18.3795 8.88659 18.3118 9.00615 18.3098C9.12505 18.3075 9.22242 18.3737 9.22242 18.4557ZM10.047 18.4241C10.0613 18.5046 9.97865 18.5872 9.86058 18.6092C9.7445 18.6304 9.63702 18.5807 9.62229 18.5009C9.60788 18.4185 9.692 18.3358 9.80792 18.3145C9.92616 18.2939 10.032 18.3423 10.047 18.4241Z" fill="#161614"/>
</svg>
