<svg width="160" height="160" viewBox="0 0 160 160" fill="none" xmlns="http://www.w3.org/2000/svg">
<g clip-path="url(#clip0_10658_9282)">
<path d="M83.0875 144.619C82.1738 144.241 81.3928 143.6 80.8432 142.778C80.2936 141.956 80.0002 140.989 80 140V115H30C27.3478 115 24.8043 113.946 22.9289 112.071C21.0536 110.196 20 107.652 20 105V55C20 52.3479 21.0536 49.8043 22.9289 47.929C24.8043 46.0536 27.3478 45 30 45H80V20C79.9992 19.0106 80.292 18.0431 80.8414 17.2201C81.3908 16.3972 82.1719 15.7557 83.0861 15.3769C84.0002 14.9982 85.0061 14.8991 85.9765 15.0924C86.947 15.2856 87.8382 15.7625 88.5375 16.4625L148.538 76.4625C149.002 76.9269 149.371 77.4783 149.623 78.0853C149.874 78.6923 150.004 79.343 150.004 80C150.004 80.6571 149.874 81.3077 149.623 81.9147C149.371 82.5217 149.002 83.0732 148.538 83.5375L88.5375 143.538C87.8379 144.237 86.9466 144.712 85.9765 144.905C85.0064 145.097 84.001 144.998 83.0875 144.619Z" fill="white"/>
</g>
<defs>
<clipPath id="clip0_10658_9282">
<rect width="160" height="160" fill="white"/>
</clipPath>
</defs>
</svg>
