<svg width="80" height="80" viewBox="0 0 80 80" fill="none" xmlns="http://www.w3.org/2000/svg">
<g clip-path="url(#clip0_10647_393)">
<path d="M65 30C66.3261 30 67.5979 29.4732 68.5355 28.5355C69.4732 27.5979 70 26.3261 70 25V15C70 13.6739 69.4732 12.4021 68.5355 11.4645C67.5979 10.5268 66.3261 10 65 10H55C53.6739 10 52.4021 10.5268 51.4645 11.4645C50.5268 12.4021 50 13.6739 50 15V17.5H30V15C30 13.6739 29.4732 12.4021 28.5355 11.4645C27.5979 10.5268 26.3261 10 25 10H15C13.6739 10 12.4021 10.5268 11.4645 11.4645C10.5268 12.4021 10 13.6739 10 15V25C10 26.3261 10.5268 27.5979 11.4645 28.5355C12.4021 29.4732 13.6739 30 15 30H17.5V50H15C13.6739 50 12.4021 50.5268 11.4645 51.4645C10.5268 52.4021 10 53.6739 10 55V65C10 66.3261 10.5268 67.5979 11.4645 68.5355C12.4021 69.4732 13.6739 70 15 70H25C26.3261 70 27.5979 69.4732 28.5355 68.5355C29.4732 67.5979 30 66.3261 30 65V62.5H50V65C50 66.3261 50.5268 67.5979 51.4645 68.5355C52.4021 69.4732 53.6739 70 55 70H65C66.3261 70 67.5979 69.4732 68.5355 68.5355C69.4732 67.5979 70 66.3261 70 65V55C70 53.6739 69.4732 52.4021 68.5355 51.4645C67.5979 50.5268 66.3261 50 65 50H62.5V30H65ZM57.5 50H55C53.6739 50 52.4021 50.5268 51.4645 51.4645C50.5268 52.4021 50 53.6739 50 55V57.5H30V55C30 53.6739 29.4732 52.4021 28.5355 51.4645C27.5979 50.5268 26.3261 50 25 50H22.5V30H25C26.3261 30 27.5979 29.4732 28.5355 28.5355C29.4732 27.5979 30 26.3261 30 25V22.5H50V25C50 26.3261 50.5268 27.5979 51.4645 28.5355C52.4021 29.4732 53.6739 30 55 30H57.5V50Z" fill="currentColor"/>
</g>
<defs>
<clipPath id="clip0_10647_393">
<rect width="80" height="80" fill="currentColor"/>
</clipPath>
</defs>
</svg>
