<svg width="48" height="49" viewBox="0 0 48 49" fill="none" xmlns="http://www.w3.org/2000/svg">
<g clip-path="url(#clip0_10681_647)">
<path d="M39 6.66992H34.5V5.16992C34.5 4.7721 34.342 4.39057 34.0607 4.10926C33.7794 3.82796 33.3978 3.66992 33 3.66992C32.6022 3.66992 32.2206 3.82796 31.9393 4.10926C31.658 4.39057 31.5 4.7721 31.5 5.16992V6.66992H16.5V5.16992C16.5 4.7721 16.342 4.39057 16.0607 4.10926C15.7794 3.82796 15.3978 3.66992 15 3.66992C14.6022 3.66992 14.2206 3.82796 13.9393 4.10926C13.658 4.39057 13.5 4.7721 13.5 5.16992V6.66992H9C8.20435 6.66992 7.44129 6.98599 6.87868 7.5486C6.31607 8.11121 6 8.87427 6 9.66992V39.6699C6 40.4656 6.31607 41.2286 6.87868 41.7912C7.44129 42.3539 8.20435 42.6699 9 42.6699H39C39.7957 42.6699 40.5587 42.3539 41.1213 41.7912C41.6839 41.2286 42 40.4656 42 39.6699V9.66992C42 8.87427 41.6839 8.11121 41.1213 7.5486C40.5587 6.98599 39.7957 6.66992 39 6.66992ZM15.75 35.1699C15.305 35.1699 14.87 35.038 14.5 34.7907C14.13 34.5435 13.8416 34.1921 13.6713 33.781C13.501 33.3698 13.4564 32.9174 13.5432 32.481C13.63 32.0445 13.8443 31.6436 14.159 31.3289C14.4737 31.0143 14.8746 30.8 15.311 30.7132C15.7475 30.6263 16.1999 30.6709 16.611 30.8412C17.0222 31.0115 17.3736 31.2999 17.6208 31.6699C17.868 32.0399 18 32.4749 18 32.9199C18 33.5167 17.7629 34.089 17.341 34.5109C16.919 34.9329 16.3467 35.1699 15.75 35.1699ZM24 35.1699C23.555 35.1699 23.12 35.038 22.75 34.7907C22.38 34.5435 22.0916 34.1921 21.9213 33.781C21.751 33.3698 21.7064 32.9174 21.7932 32.481C21.88 32.0445 22.0943 31.6436 22.409 31.3289C22.7237 31.0143 23.1246 30.8 23.561 30.7132C23.9975 30.6263 24.4499 30.6709 24.861 30.8412C25.2722 31.0115 25.6236 31.2999 25.8708 31.6699C26.118 32.0399 26.25 32.4749 26.25 32.9199C26.25 33.5167 26.0129 34.089 25.591 34.5109C25.169 34.9329 24.5967 35.1699 24 35.1699ZM24 27.6699C23.555 27.6699 23.12 27.538 22.75 27.2907C22.38 27.0435 22.0916 26.6921 21.9213 26.281C21.751 25.8698 21.7064 25.4174 21.7932 24.981C21.88 24.5445 22.0943 24.1436 22.409 23.8289C22.7237 23.5143 23.1246 23.3 23.561 23.2132C23.9975 23.1263 24.4499 23.1709 24.861 23.3412C25.2722 23.5115 25.6236 23.7999 25.8708 24.1699C26.118 24.5399 26.25 24.9749 26.25 25.4199C26.25 26.0167 26.0129 26.589 25.591 27.0109C25.169 27.4329 24.5967 27.6699 24 27.6699ZM32.25 35.1699C31.805 35.1699 31.37 35.038 31 34.7907C30.63 34.5435 30.3416 34.1921 30.1713 33.781C30.001 33.3698 29.9564 32.9174 30.0432 32.481C30.13 32.0445 30.3443 31.6436 30.659 31.3289C30.9737 31.0143 31.3746 30.8 31.811 30.7132C32.2475 30.6263 32.6999 30.6709 33.111 30.8412C33.5222 31.0115 33.8736 31.2999 34.1208 31.6699C34.368 32.0399 34.5 32.4749 34.5 32.9199C34.5 33.5167 34.2629 34.089 33.841 34.5109C33.419 34.9329 32.8467 35.1699 32.25 35.1699ZM32.25 27.6699C31.805 27.6699 31.37 27.538 31 27.2907C30.63 27.0435 30.3416 26.6921 30.1713 26.281C30.001 25.8698 29.9564 25.4174 30.0432 24.981C30.13 24.5445 30.3443 24.1436 30.659 23.8289C30.9737 23.5143 31.3746 23.3 31.811 23.2132C32.2475 23.1263 32.6999 23.1709 33.111 23.3412C33.5222 23.5115 33.8736 23.7999 34.1208 24.1699C34.368 24.5399 34.5 24.9749 34.5 25.4199C34.5 26.0167 34.2629 26.589 33.841 27.0109C33.419 27.4329 32.8467 27.6699 32.25 27.6699ZM39 15.6699H9V9.66992H13.5V11.1699C13.5 11.5677 13.658 11.9493 13.9393 12.2306C14.2206 12.5119 14.6022 12.6699 15 12.6699C15.3978 12.6699 15.7794 12.5119 16.0607 12.2306C16.342 11.9493 16.5 11.5677 16.5 11.1699V9.66992H31.5V11.1699C31.5 11.5677 31.658 11.9493 31.9393 12.2306C32.2206 12.5119 32.6022 12.6699 33 12.6699C33.3978 12.6699 33.7794 12.5119 34.0607 12.2306C34.342 11.9493 34.5 11.5677 34.5 11.1699V9.66992H39V15.6699Z" fill="currentColor"/>
</g>
<defs>
<clipPath id="clip0_10681_647">
<rect width="48" height="48" fill="white" transform="translate(0 0.669922)"/>
</clipPath>
</defs>
</svg>
