<svg width="80" height="80" viewBox="0 0 80 80" fill="none" xmlns="http://www.w3.org/2000/svg">
<g clip-path="url(#clip0_10647_2388)">
<path d="M40.0022 7.5C34.3912 7.49878 28.8754 8.95028 23.9917 11.7132C19.1081 14.4762 15.023 18.4564 12.134 23.2666C9.24501 28.0767 7.65059 33.5529 7.50592 39.1621C7.36126 44.7712 8.67127 50.3223 11.3085 55.275L7.76159 65.9156C7.46779 66.7966 7.42515 67.742 7.63845 68.6459C7.85176 69.5497 8.31257 70.3763 8.96925 71.033C9.62592 71.6896 10.4525 72.1505 11.3564 72.3638C12.2602 72.5771 13.2056 72.5344 14.0866 72.2406L24.7272 68.6938C29.0859 71.012 33.9154 72.3069 38.8492 72.48C43.783 72.6531 48.6914 71.7 53.2018 69.6929C57.7122 67.6858 61.7061 64.6776 64.8804 60.8965C68.0546 57.1154 70.3257 52.6609 71.5213 47.871C72.717 43.0812 72.8057 38.0819 71.7807 33.2526C70.7558 28.4233 68.6441 23.891 65.606 19.9997C62.568 16.1084 58.6833 12.9604 54.2469 10.7945C49.8105 8.62871 44.939 7.50203 40.0022 7.5ZM26.2522 43.75C25.5105 43.75 24.7855 43.5301 24.1688 43.118C23.5521 42.706 23.0715 42.1203 22.7877 41.4351C22.5038 40.7498 22.4296 39.9958 22.5743 39.2684C22.719 38.541 23.0761 37.8728 23.6006 37.3483C24.125 36.8239 24.7932 36.4667 25.5206 36.3221C26.248 36.1774 27.002 36.2516 27.6873 36.5355C28.3725 36.8193 28.9582 37.2999 29.3702 37.9166C29.7823 38.5333 30.0022 39.2583 30.0022 40C30.0022 40.9946 29.6071 41.9484 28.9039 42.6516C28.2006 43.3549 27.2468 43.75 26.2522 43.75ZM40.0022 43.75C39.2605 43.75 38.5355 43.5301 37.9188 43.118C37.3021 42.706 36.8215 42.1203 36.5377 41.4351C36.2538 40.7498 36.1796 39.9958 36.3243 39.2684C36.469 38.541 36.8261 37.8728 37.3506 37.3483C37.875 36.8239 38.5432 36.4667 39.2706 36.3221C39.998 36.1774 40.752 36.2516 41.4373 36.5355C42.1225 36.8193 42.7082 37.2999 43.1202 37.9166C43.5323 38.5333 43.7522 39.2583 43.7522 40C43.7522 40.9946 43.3571 41.9484 42.6539 42.6516C41.9506 43.3549 40.9968 43.75 40.0022 43.75ZM53.7522 43.75C53.0105 43.75 52.2855 43.5301 51.6688 43.118C51.0521 42.706 50.5715 42.1203 50.2877 41.4351C50.0038 40.7498 49.9296 39.9958 50.0743 39.2684C50.219 38.541 50.5761 37.8728 51.1006 37.3483C51.625 36.8239 52.2932 36.4667 53.0206 36.3221C53.748 36.1774 54.502 36.2516 55.1873 36.5355C55.8725 36.8193 56.4582 37.2999 56.8702 37.9166C57.2823 38.5333 57.5022 39.2583 57.5022 40C57.5022 40.9946 57.1071 41.9484 56.4039 42.6516C55.7006 43.3549 54.7468 43.75 53.7522 43.75Z" fill="currentColor"/>
</g>
<defs>
<clipPath id="clip0_10647_2388">
<rect width="80" height="80" fill="currentColor"/>
</clipPath>
</defs>
</svg>
