<svg width="117" height="64" viewBox="0 0 117 64" fill="none" xmlns="http://www.w3.org/2000/svg">
<g id="&#237;&#139;&#176;&#235;&#168;&#184;&#235;&#139;&#136;">
<g id="Group">
<path id="Vector" d="M40.6519 37.505C40.6519 38.8817 41.4136 39.7305 42.8194 39.7305C44.1953 39.7305 45.0154 38.8817 45.0154 37.505V29.8906C45.0154 26.3763 42.7601 24.9407 40.0659 24.9407C37.84 24.9407 36.1707 25.7903 35.1752 27.5184C34.7065 26.0538 33.5349 24.9407 31.602 24.9407C29.6111 24.9407 28.3512 25.8193 27.6782 27.196C27.5903 26.1417 26.7996 25.1752 25.5397 25.1752C24.2222 25.1752 23.373 25.937 23.373 27.4306V37.505C23.373 38.8817 24.1928 39.7305 25.57 39.7305C26.9454 39.7305 27.7362 38.8817 27.7362 37.505V31.1501C27.7362 29.6271 28.5858 28.6606 29.9036 28.6606C31.222 28.6606 32.0715 29.6561 32.0715 30.9151V37.505C32.0715 38.8817 32.832 39.7305 34.2092 39.7305C35.5846 39.7305 36.3178 38.8817 36.3178 37.505V31.1501C36.3178 29.6271 37.1661 28.6606 38.4844 28.6606C39.8023 28.6606 40.6519 29.6561 40.6519 30.9151V37.505Z" fill="#767676"/>
<path id="Vector_2" d="M51.5905 32.4672C51.5905 30.3876 52.7037 28.5724 54.6946 28.5724C56.6574 28.5724 57.8 30.3876 57.8 32.4672C57.8 34.5473 56.6574 36.3625 54.6946 36.3625C52.7037 36.3625 51.5905 34.5473 51.5905 32.4672ZM47.2266 32.4672C47.2266 37.0073 50.1558 39.9941 54.6946 39.9941C59.2343 39.9941 62.1627 37.0073 62.1627 32.4672C62.1627 27.9276 59.2343 24.9412 54.6946 24.9412C50.1558 24.9412 47.2266 27.9276 47.2266 32.4672Z" fill="#767676"/>
<path id="Vector_3" d="M64.375 37.505C64.375 38.8817 65.2246 39.7305 66.6009 39.7305C67.9772 39.7305 68.797 38.8817 68.797 37.505V31.032C68.797 29.6561 69.8811 28.6896 71.228 28.6896C72.6632 28.6896 73.6587 29.7439 73.6587 31.0622V37.505C73.6587 38.8817 74.4788 39.7305 75.8551 39.7305C77.2319 39.7305 78.0815 38.8817 78.0815 37.505V30.5347C78.0815 27.196 76.0309 24.9407 72.6632 24.9407C70.9359 24.9407 69.2951 25.7903 68.6805 27.167C68.5927 26.1417 67.9188 25.1752 66.5425 25.1752C65.1657 25.1752 64.375 26.0538 64.375 27.4306V37.505Z" fill="#767676"/>
<path id="Vector_4" d="M84.4208 30.6826C84.4208 29.3058 85.8552 28.2515 87.4959 28.2515C89.1362 28.2515 90.571 29.3058 90.571 30.6826H84.4208ZM93.4703 38.2086C94.3489 37.3893 94.7584 36.2471 94.0261 35.427C93.3236 34.5778 92.1235 34.6072 91.3029 35.3105C90.3658 36.0714 89.4284 36.5982 87.9062 36.5982C85.943 36.5982 84.4208 35.2227 84.4208 33.5819H92.3567C93.9676 33.5819 94.5242 32.8501 94.5242 31.2392C94.5242 27.9879 91.9767 24.9427 87.4959 24.9427C83.1025 24.9427 80.291 28.0758 80.291 32.3809C80.291 36.8332 82.9558 39.9961 87.9062 39.9961C90.1317 39.9961 92.1235 39.4689 93.4703 38.2086Z" fill="#767676"/>
<path id="Vector_5" d="M100.234 26.6103C99.7363 25.3803 98.5366 24.7943 97.3061 25.3513C96.0761 25.9075 95.6372 26.9618 96.2219 28.2797L101.23 39.2322L100.791 40.3164C100.382 41.3711 99.8835 42.4544 98.8287 42.4544C98.4773 42.4544 98.067 42.3666 97.7454 42.3077C96.837 42.132 95.9588 42.6012 95.6948 43.5672C95.4312 44.5341 95.9882 45.4417 96.837 45.7931C97.5987 46.1155 98.3306 46.1445 99.0633 46.1445C102.051 46.1445 103.222 43.948 104.598 40.9608L110.397 28.2797C110.983 26.9618 110.543 25.9075 109.313 25.3513C108.083 24.7943 106.883 25.3803 106.385 26.6103L103.31 33.9027L100.234 26.6103Z" fill="#767676"/>
<path id="Vector_6" d="M13.6768 37.27C13.6768 38.735 14.6437 39.7305 16.1079 39.7305C17.5721 39.7305 18.5091 38.735 18.5091 37.27V22.217H23.2535C24.6597 22.217 25.7716 21.4852 25.7716 20.0205C25.7716 18.5854 24.6597 17.8526 23.2535 17.8526H8.96142C7.52667 17.8526 6.44336 18.5854 6.44336 20.0205C6.44336 21.4852 7.52667 22.217 8.96142 22.217H13.6768V37.27Z" fill="#767676"/>
</g>
</g>
</svg>
