<svg width="143" height="64" viewBox="0 0 143 64" fill="none" xmlns="http://www.w3.org/2000/svg">
<g id="Frame">
<g id="Group">
<path id="Vector" d="M19.5622 20.0804V40.607H6.39648V20.0804H10.5454V25.3882H15.3004V20.0804H19.5622ZM15.3004 30.0406H10.5454V36.3114H15.3004V30.0406ZM29.8703 26.9676H26.7518V17.2383H22.4238V46.6545H26.8245L26.7518 31.5136H29.8703V46.6558H33.8713V17.2383H29.8703M41.4424 23.1509V28.7857H52.3643V32.4142H37.0625V19.1122H51.6363V23.1509H41.4424ZM39.0273 38.8706H55.052V37.2808H39.0273V34.4803H59.8563V41.9891H43.4124V43.5542H59.855V46.748H39.0649L39.0273 38.8706ZM63.1629 27.8838H59.9601V33.3097H55.5737V17.3629H59.9601V23.4688H63.1629M78.5608 26.9325V39.8465C77.1463 40.3993 70.9456 42.4122 64.7164 41.9294V45.2984C64.7164 45.2984 74.7869 45.593 78.6101 42.0345V46.2613H82.2581V26.9338L78.5608 26.9325ZM69.0067 28.0499C67.0082 28.0499 65.5352 29.576 65.5352 31.4643V35.1071C65.5352 36.9836 67.2132 38.2606 69.0067 38.2606H71.9994C74.2704 38.2606 75.6707 36.9356 75.6707 34.8605V31.4643C75.6707 29.576 74.3431 28.0512 72.2797 28.0512L69.0067 28.0499ZM70.1306 30.6999H71.1999C72.024 30.6999 72.6482 31.3228 72.6482 32.1209V34.1896C72.6482 35.0111 72.024 35.6314 71.1999 35.6314H70.1306C69.3091 35.6314 68.5577 35.0111 68.5577 34.1909V32.1209C68.5577 31.3215 69.3091 30.6999 70.1306 30.6999ZM100.371 33.5316H85.5959V19.1849H100.371V33.5316ZM88.1992 46.7402V36.8863H92.5506V42.5757H109.014V46.7415L88.1992 46.7402ZM89.8059 29.5371H96.1662V23.2378H89.8059V29.5371ZM104.142 36.2777H108.66V17.3707H104.143L104.142 36.2777ZM112.8 18.1026V21.6714H119.915C119.537 23.0133 116.419 25.4025 112.951 26.4251V29.4177C116.196 28.6819 121.247 26.7677 123.811 23.8062C126.299 26.4965 129.612 28.4353 134.621 28.9648V26.2551C132.026 25.5452 129.245 24.3175 127.437 21.6714H134.776V18.1026H112.8ZM121.422 27.6969V30.7077H111.167V34.6788H136.413V30.7077H126.226V27.6982L121.422 27.6969ZM112.655 36.5995V40.655H130.622C130.622 40.655 130.798 43.6204 129.141 46.7622H133.479C133.479 46.7622 134.926 44.1901 134.926 40.69V36.6008L112.655 36.5995Z" fill="#767676"/>
</g>
</g>
</svg>
