<svg width="134" height="64" viewBox="0 0 134 64" fill="none" xmlns="http://www.w3.org/2000/svg">
<g id="Frame 2085664442">
<path id="Subtract" d="M64.0768 15.0516C97.0703 9.32168 125.258 12.1865 126.922 21.6131C127.822 26.6678 120.755 32.5885 108.832 37.8661C109.841 37.4056 110.547 36.5848 110.655 35.2909V31.1317H106.311V32.9803H107.605V35.1981C107.42 35.845 106.866 36.2153 106.311 36.1229C105.757 36.2151 105.203 35.8452 105.11 35.1063V29.0057C105.11 28.8211 105.203 28.6366 105.203 28.452C105.295 27.8975 105.849 27.4348 106.404 27.5272C106.958 27.5272 107.513 27.8975 107.605 28.452V29.6532H110.748V28.452C110.563 26.1416 108.622 25.4022 106.404 25.4022C104.186 25.4022 102.337 26.1415 102.06 28.452C101.968 28.6368 101.967 29.098 101.967 29.283V35.2909C102.152 37.5087 104.093 38.3406 106.311 38.3407C107.195 38.3407 108.034 38.2071 108.736 37.908C98.651 42.3594 85.1133 46.3507 69.9919 48.9696C36.9058 54.6996 8.81007 51.7414 7.23894 42.4071C6.39151 37.3697 13.4029 31.4716 25.2233 26.2079C24.6784 26.6438 24.3011 27.2568 24.1511 28.0819C24.0586 28.6364 24.0586 29.1914 24.1511 29.7459C24.706 32.3332 29.1416 32.9801 29.7887 34.6434C29.8812 34.9207 29.8812 35.2909 29.7887 35.5682C29.6962 36.1226 29.1411 36.4917 28.5866 36.3993C27.9397 36.4916 27.3854 36.0299 27.3854 35.4754V34.0897H24.0583V35.0135C24.0583 37.7859 26.2762 38.618 28.5866 38.618C30.8047 38.618 32.6531 37.8784 32.9303 35.7528C33.0228 35.1058 33.0228 34.3665 32.9303 33.7196C32.3758 31.1319 27.663 30.3925 27.3854 28.9139C27.293 28.7291 27.293 28.4513 27.3854 28.2664C27.478 27.7121 27.9404 27.343 28.4948 27.4354C29.0492 27.3432 29.6032 27.8048 29.6032 28.3592V29.283H32.653V28.452C32.653 25.772 30.2507 25.3095 28.4948 25.3094C27.9549 25.3094 27.4422 25.3544 26.9704 25.45C36.8505 21.2664 49.749 17.5399 64.0768 15.0516ZM68.6969 25.494C66.4789 25.494 64.7232 26.2338 64.446 28.1746C64.3536 28.7291 64.3536 29.2833 64.446 29.8377C65.0928 32.3328 69.4352 32.9802 70.0827 34.6434C70.1751 34.9207 70.1751 35.2909 70.0827 35.5682C69.9901 36.1225 69.4359 36.4917 68.8815 36.3993C68.327 36.4917 67.7728 36.0299 67.6803 35.4754V34.0897H64.3532V35.0135C64.3532 37.7858 66.4785 38.6179 68.7887 38.618C71.0067 38.618 72.8551 37.8785 73.1325 35.8455C73.2249 35.1987 73.2249 34.4592 73.1325 33.8123C72.578 31.2246 67.9572 30.4844 67.5876 29.0057C67.4954 28.8209 67.4953 28.5439 67.5876 28.3592C67.68 27.8047 68.1424 27.4348 68.6969 27.5272C69.2514 27.4349 69.8053 27.8975 69.8053 28.452V29.3758H72.8561V28.5438C72.8559 25.864 70.4528 25.494 68.6969 25.494ZM76.0905 25.7713V35.4754C76.3678 37.7859 78.1238 38.5252 80.4343 38.5252C82.7446 38.5252 84.5932 37.7858 84.778 35.4754V25.7713H81.6354V35.3827C81.543 35.9371 80.9887 36.3997 80.4343 36.3075C79.8797 36.3075 79.4169 35.9372 79.2321 35.3827V25.7713H76.0905ZM47.8102 25.7713L47.5329 38.0633H50.6755L50.7673 26.6034L52.8932 38.0633H56.0358L58.1608 26.6034L58.2536 38.1561H61.3952L61.1188 25.7713H56.0358L54.4645 35.4754L52.8932 25.7713H47.8102ZM37.2741 25.6795L34.9636 38.0633H38.2907L40.0466 26.6034L41.8024 38.0633H45.1296L42.819 25.6795H37.2741ZM95.5905 25.6795L95.7761 35.66L92.9108 25.7713H88.2897V37.9705H91.3395L91.0622 27.7127L94.2048 37.9705H98.6403V25.6795H95.5905Z" fill="#767676"/>
</g>
</svg>
