<svg width="142" height="64" viewBox="0 0 142 64" fill="none" xmlns="http://www.w3.org/2000/svg">
<g id="&#237;&#149;&#156;&#236;&#131;&#152;">
<path id="Vector" d="M8.44336 11.5176H15.8291V33.6655H8.44336V11.5176Z" fill="#767676"/>
<path id="Vector_2" d="M19.4199 18.9707H34.1914V26.3518H19.4199V18.9707Z" fill="#767676"/>
<path id="Vector_3" d="M37.9766 11.5176H45.3638V33.6655H37.9766V11.5176Z" fill="#767676"/>
<path id="Vector_4" d="M52.7457 11.5176H60.1252V33.6655H52.7441L52.7457 11.5176ZM67.511 11.5176H74.8921V33.6655H67.511V11.5176ZM82.2778 11.5176H89.6589V33.6655H82.2778V11.5176Z" fill="#767676"/>
<path id="Vector_5" d="M97.0391 11.5176H104.425V33.6655H97.0391V11.5176Z" fill="#767676"/>
<path id="Vector_6" d="M104.83 16.9744L110.052 11.7598L120.494 22.1952L115.279 27.4099L104.83 16.9744Z" fill="#767676"/>
<path id="Vector_7" d="M126.574 11.5176H133.955V33.6655H126.572L126.574 11.5176Z" fill="#767676"/>
<path id="Vector_8" d="M41.1719 49.1395C41.2012 50.3655 42.1401 51.4001 43.3723 51.4001C44.6216 51.4001 45.65 50.4783 45.65 49.1843C45.65 48.5774 45.3519 47.969 44.8918 47.5938C44.3853 47.1645 43.8217 47.0132 43.1932 46.8495C42.5122 46.6642 41.8081 46.4835 41.263 45.994C40.65 45.4659 40.3396 44.7062 40.3396 43.9017C40.3396 42.0904 41.7355 40.8751 43.4619 40.8751C43.8612 40.8716 44.2571 40.9479 44.6265 41.0996C44.9958 41.2512 45.3311 41.4752 45.6126 41.7584C45.8942 42.0415 46.1163 42.378 46.2659 42.7482C46.4155 43.1184 46.4896 43.5148 46.4838 43.914H45.335C45.2624 42.7775 44.4579 41.956 43.3275 41.956C42.259 41.956 41.4437 42.8501 41.4437 43.914C41.4437 45.2636 42.54 45.5848 43.6086 45.8875C44.4023 46.1191 45.0879 46.2534 45.7241 46.8495C46.3757 47.4239 46.7525 48.3072 46.7525 49.2012C46.7525 51.0573 45.1898 52.481 43.4063 52.481C41.5271 52.481 39.9798 51.0975 39.9968 49.1395H41.1719ZM69.2988 50.5956L73.1083 41.0496H74.8918V52.4023H73.7615V42.5289L69.8177 52.4023H68.7769L64.8393 42.5413V52.4023H63.692V41.0496H65.4369L69.2988 50.5956ZM56.002 41.0496H62.0876V42.0796H57.1385V46.0017H62.0212V47.0641H57.1308V51.3677H62.0876V52.3961H56.0005L56.002 41.0496ZM29.3143 52.3961H30.4446V42.4301L37.3022 52.3977H38.4387V41.0512H37.3022V50.3671L30.8322 41.0512H29.3143V52.3961ZM15.4863 41.0496H16.6954V52.3961H15.4863V47.0749H9.57986V52.3961H8.44336V41.0496H9.57986V46.045H15.4847L15.4863 41.0496ZM48.7151 49.1395C48.7445 50.3655 49.6833 51.4001 50.9156 51.4001C52.1648 51.4001 53.1948 50.4783 53.1948 49.1843C53.1948 48.5774 52.8967 47.969 52.435 47.5938C51.9285 47.1645 51.3665 47.0132 50.7364 46.8495C50.0555 46.6642 49.3513 46.4835 48.8062 45.994C48.1932 45.4659 47.8844 44.7062 47.8844 43.9017C47.8844 42.0904 49.2849 40.8751 51.0067 40.8751C51.4058 40.8718 51.8016 40.9482 52.1708 41.1C52.5399 41.2518 52.875 41.4758 53.1564 41.7589C53.4378 42.042 53.6598 42.3785 53.8093 42.7486C53.9588 43.1187 54.0328 43.5149 54.0271 43.914H52.8844C52.8072 42.7775 52.0011 41.956 50.8708 41.956C49.8022 41.956 48.9869 42.8501 48.9869 43.914C48.9869 45.2636 50.0833 45.5848 51.158 45.8875C51.9455 46.1191 52.6311 46.2534 53.2673 46.8495C53.9251 47.4239 54.2973 48.3072 54.2973 49.2012C54.2973 51.0573 52.7331 52.481 50.9495 52.481C49.0703 52.481 47.523 51.0975 47.54 49.1395H48.7151ZM23.0079 42.3668L20.8152 47.5197H25.162L23.0079 42.3668ZM28.499 52.3961H27.2713L25.5897 48.5095H20.3859L18.7043 52.3961H17.4783L22.3733 41.0496H23.6271L28.499 52.3961Z" fill="#767676"/>
</g>
</svg>
