<svg width="102" height="64" viewBox="0 0 102 64" fill="none" xmlns="http://www.w3.org/2000/svg">
<g id="&#235;&#164;&#188;&#236;&#157;&#180;&#235;&#147;&#156;">
<g id="Group 48096179">
<path id="Vector" d="M90.3474 27.5765H86.6893C83.4417 27.5765 80.8008 30.4407 80.8008 33.9616C80.8008 37.4825 83.4417 40.3466 86.6893 40.3466H88.0276C88.8663 40.3466 89.6514 40.073 90.3474 39.6169V40.3466H93.9162V23.6543H90.3474V27.5765ZM90.3474 34.8737C90.3474 35.8771 89.5444 36.698 88.5629 36.698H86.6893C85.4045 36.698 84.3696 35.4757 84.3696 33.9616C84.3696 32.4474 85.4045 31.2251 86.6893 31.2251H90.3474V34.8737Z" fill="#767676"/>
<path id="Vector_2" d="M64.7064 26.6355C65.6942 26.6355 66.4949 25.8348 66.4949 24.8471C66.4949 23.8593 65.6942 23.0586 64.7064 23.0586C63.7187 23.0586 62.918 23.8593 62.918 24.8471C62.918 25.8348 63.7187 26.6355 64.7064 26.6355Z" fill="#767676"/>
<path id="Vector_3" d="M66.4949 28.4238H62.918V40.3469H66.4949V28.4238Z" fill="#767676"/>
<path id="Vector_4" d="M70.6674 26.6355C71.6551 26.6355 72.4558 25.8348 72.4558 24.8471C72.4558 23.8593 71.6551 23.0586 70.6674 23.0586C69.6796 23.0586 68.8789 23.8593 68.8789 24.8471C68.8789 25.8348 69.6796 26.6355 70.6674 26.6355Z" fill="#767676"/>
<path id="Vector_5" d="M72.4558 28.4238H68.8789V40.3469H72.4558V28.4238Z" fill="#767676"/>
<path id="Vector_6" d="M77.224 26.6355C78.2117 26.6355 79.0125 25.8348 79.0125 24.8471C79.0125 23.8593 78.2117 23.0586 77.224 23.0586C76.2363 23.0586 75.4355 23.8593 75.4355 24.8471C75.4355 25.8348 76.2363 26.6355 77.224 26.6355Z" fill="#767676"/>
<path id="Vector_7" d="M79.0144 28.4238H75.4375V40.3469H79.0144V28.4238Z" fill="#767676"/>
<path id="Vector_8" d="M4.49414 48.6932H37.2826V15.3086H4.49414V48.6932ZM12.6913 35.7103V23.6547H20.8884H23.1653C26.426 23.6547 29.0855 26.3626 29.0855 29.6825C29.0855 31.8154 27.9925 33.6887 26.3531 34.7644L29.0855 40.3471H20.8884H12.6913V35.7103Z" fill="#767676"/>
<path id="Vector_9" d="M96.3008 23.7586H96.5222V24.2505H96.6755V23.7586H96.8969V23.6543H96.3008V23.7586Z" fill="#767676"/>
<path id="Vector_10" d="M97.3144 23.6543L97.2034 23.9375C97.1896 23.9524 97.1896 23.9822 97.1896 23.9971C97.1896 24.012 97.1757 24.0418 97.1757 24.0567C97.1757 24.0418 97.1619 24.012 97.1619 23.9971C97.148 23.9822 97.148 23.9524 97.148 23.9375L97.0371 23.6543H96.8984V24.2505H97.0093V23.9971C97.0093 23.9822 97.0093 23.9673 97.0093 23.9524C97.0093 23.9375 97.0093 23.9226 97.0093 23.9077C97.0093 23.8928 97.0093 23.8779 97.0093 23.863C97.0093 23.848 97.0093 23.8331 97.0093 23.8182L97.0648 23.9524L97.1619 24.2057H97.2312L97.3282 23.9524L97.3837 23.8182C97.3837 23.8331 97.3837 23.848 97.3837 23.863C97.3837 23.8779 97.3837 23.8928 97.3837 23.9077C97.3837 23.9226 97.3837 23.9375 97.3837 23.9524C97.3837 23.9673 97.3837 23.9822 97.3837 23.9971V24.2505H97.4946V23.6543H97.3144Z" fill="#767676"/>
<path id="Vector_11" d="M60.367 29.6821C60.367 26.3622 57.6773 23.6543 54.3796 23.6543H45.6289V40.3466H49.3134V35.7099H53.9927L56.3877 40.3466H60.5328L57.6404 34.7269C59.28 33.6511 60.367 31.7964 60.367 29.6821ZM54.3796 32.0005H49.3134V27.3637H54.3796C55.6508 27.3637 56.6824 28.4023 56.6824 29.6821C56.6824 30.9618 55.6508 32.0005 54.3796 32.0005Z" fill="#767676"/>
</g>
</g>
</svg>
