<svg width="215" height="64" viewBox="0 0 215 64" fill="none" xmlns="http://www.w3.org/2000/svg">
<g id="&#236;&#149;&#132;&#236;&#139;&#156;&#236;&#149;&#132;&#235;&#130;&#152;">
<path id="Vector" d="M182.008 14.2126C182.008 14.6071 182.071 15.0074 182.219 15.3848C182.911 17.0944 184.661 18.1407 186.874 17.2488C187.405 17.0372 202.135 11.1078 202.135 11.1078C202.135 11.1078 196.331 25.8026 196.119 26.3515C195.273 28.4556 196.285 30.3654 198.018 31.0058C198.401 31.143 198.795 31.2116 199.19 31.2059C200.591 31.1945 201.837 30.3711 202.443 28.7129C202.54 28.4614 209.785 8.55198 209.951 8.07169C210.042 7.79152 210.214 7.12253 210.214 6.66511C210.214 5.68165 209.848 4.74965 209.145 4.05208C208.453 3.36022 207.538 3 206.566 3C206.097 3 205.708 3.08577 205.125 3.27445C204.776 3.38309 186.079 10.3417 184.484 10.942C182.883 11.5367 182.002 12.8117 182.008 14.2126Z" fill="#767676"/>
<path id="Vector_2" d="M12.1197 28.3122L10.0042 35.0706H14.2525L12.114 28.3122H12.1197ZM16.0822 41.2458L15.0587 37.798H9.20938L8.17445 41.2458H4.88672L10.5016 24.6699H13.7379L19.3642 41.2458H16.0765H16.0822Z" fill="#767676"/>
<path id="Vector_3" d="M31.5896 38.9756C30.5147 40.9197 28.3934 41.5829 26.2892 41.5829C23.4875 41.5829 20.9088 40.4279 20.0911 37.5462C19.9025 36.9115 19.8796 36.2768 19.8281 35.6193H22.9043C22.95 36.071 23.0187 36.4826 23.1902 36.9115C23.7277 38.2437 24.9398 38.8098 26.3293 38.8098C27.3928 38.8098 28.9766 38.3638 28.9766 37.0487C28.9766 36.7628 28.8851 36.5798 28.765 36.3225C28.4163 35.6193 27.124 35.1275 26.4436 34.8473C25.037 34.2527 23.2531 33.618 22.0524 32.7089C20.9317 31.8398 20.3656 30.6162 20.3656 29.2039C20.3656 26.0191 23.1387 24.3438 26.0434 24.3438C28.1361 24.3438 30.3489 25.2414 31.258 27.2541C31.6125 28.0031 31.704 28.7121 31.7497 29.5241H28.6793C28.7022 27.986 27.4328 27.0883 25.9748 27.0883C24.9398 27.0883 23.5676 27.6544 23.5676 28.878C23.5676 30.1016 25.0199 30.4732 25.9119 30.822C27.3242 31.3824 29.2968 32.017 30.5204 32.8861C31.7383 33.7495 32.23 35.0017 32.23 36.4712C32.23 37.346 32.0185 38.2151 31.5954 38.9642" fill="#767676"/>
<path id="Vector_4" d="M37.6046 24.6758H34.4141V41.2517H37.6046V24.6758Z" fill="#767676"/>
<path id="Vector_5" d="M46.4851 28.3122L44.3695 35.0706H48.6179L46.4851 28.3122ZM50.4475 41.2458L49.4183 37.798H43.569L42.5341 41.2458H39.2578L44.867 24.6699H48.1033L53.741 41.2458H50.4475Z" fill="#767676"/>
<path id="Vector_6" d="M64.8955 41.246L57.9484 29.5759V41.246H54.918V24.6758H58.3315L65.0671 36.3401V24.6758H68.0918V41.246H64.8955Z" fill="#767676"/>
<path id="Vector_7" d="M76.5083 28.3122L74.3927 35.0706H78.641L76.5026 28.3122H76.5083ZM80.4707 41.2458L79.4358 37.798H73.5865L72.5573 41.2458H69.2695L74.8787 24.6699H78.115L83.7527 41.2458H80.465H80.4707Z" fill="#767676"/>
<path id="Vector_8" d="M98.4713 28.3006L96.3557 35.0647H100.604L98.4656 28.3006H98.4713ZM102.439 41.24L101.41 37.7864H95.5609L94.526 41.24H91.2383L96.8532 24.6641H100.095L105.727 41.24H102.439Z" fill="#767676"/>
<path id="Vector_9" d="M110.628 24.6699H107.438V41.2458H110.628V24.6699Z" fill="#767676"/>
<path id="Vector_10" d="M120.679 27.6939C119.976 27.3623 118.981 27.3909 118.209 27.3909H116.682V32.1824H118.775C120.468 32.1824 121.943 31.7192 121.943 29.718C121.943 28.8032 121.52 28.077 120.673 27.6996M122.36 41.2451L118.975 34.904H116.677V41.2451H113.48V24.6692H117.969C119.295 24.6692 120.708 24.6234 121.983 25.0923C124.07 25.8413 125.196 27.5795 125.196 29.7695C125.196 31.9594 124.196 33.4746 122.263 34.3666L126.071 41.2451H122.36Z" fill="#767676"/>
<path id="Vector_11" d="M127.678 41.2401V24.6699H130.937V38.5184H138.147V41.2401H127.678Z" fill="#767676"/>
<path id="Vector_12" d="M143.218 24.6699H140.021V41.2458H143.218V24.6699Z" fill="#767676"/>
<path id="Vector_13" d="M156.06 41.2401L149.112 29.5758V41.2401H146.082V24.6699H149.484L156.225 36.3342V24.6699H159.25V41.2401H156.06Z" fill="#767676"/>
<path id="Vector_14" d="M162.098 41.2401V24.6699H172.538V27.3916H165.288V31.2854H171.887V34.0071H165.288V38.5184H172.796V41.2401H162.098Z" fill="#767676"/>
<path id="Vector_15" d="M185.507 38.9642C184.421 40.9082 182.306 41.5715 180.196 41.5715C177.411 41.5715 174.827 40.4165 174.003 37.529C173.809 36.9 173.786 36.2596 173.74 35.6021H176.816C176.868 36.0481 176.936 36.4712 177.102 36.8943C177.64 38.2323 178.858 38.7926 180.241 38.7926C181.299 38.7926 182.894 38.3524 182.894 37.0373C182.894 36.7514 182.797 36.5684 182.683 36.3111C182.328 35.6021 181.042 35.1104 180.356 34.8359C178.955 34.247 177.165 33.6123 175.97 32.6975C174.838 31.8283 174.278 30.6105 174.278 29.2039C174.278 26.0076 177.051 24.3438 179.955 24.3438C182.048 24.3438 184.255 25.23 185.176 27.2484C185.53 27.9974 185.616 28.7064 185.673 29.5241H182.591C182.62 27.9746 181.351 27.0826 179.893 27.0826C178.858 27.0826 177.468 27.6486 177.468 28.8722C177.468 30.0959 178.932 30.4675 179.818 30.822C181.231 31.3824 183.203 32.017 184.421 32.8861C185.645 33.7552 186.136 35.0017 186.136 36.4826C186.136 37.346 185.925 38.2209 185.502 38.9699" fill="#767676"/>
</g>
</svg>
