<svg width="101" height="64" viewBox="0 0 101 64" fill="none" xmlns="http://www.w3.org/2000/svg">
<g id="clientLogo">
<path id="XMLID_1265_" d="M88.8302 26.2785C91.4087 26.2785 93.4348 27.1265 94.9041 28.8212C96.3756 30.517 97.1114 32.9456 97.1114 36.1068C97.1114 39.2222 96.3822 41.6172 94.9218 43.2895C93.4635 44.9608 91.4308 45.7975 88.8302 45.7975C86.2518 45.7975 84.2257 44.9608 82.7564 43.2895C81.2849 41.6172 80.5491 39.2222 80.5491 36.1068C80.5491 32.9456 81.2893 30.517 82.7719 28.8212C84.2544 27.1265 86.2739 26.2785 88.8302 26.2785ZM88.8302 28.8212C87.2018 28.8212 85.9513 29.4398 85.0807 30.677C84.208 31.9142 83.7728 33.7241 83.7728 36.1068C83.7728 38.4671 84.208 40.248 85.0807 41.4505C85.9513 42.653 87.2018 43.2549 88.8302 43.2549C90.4807 43.2549 91.7423 42.653 92.6151 41.4505C93.4856 40.248 93.9209 38.4671 93.9209 36.1068C93.9209 33.7241 93.4856 31.9142 92.6151 30.677C91.7423 29.4398 90.4807 28.8212 88.8302 28.8212ZM62.3208 40.3341C62.3208 38.4325 62.9483 36.9827 64.2033 35.9871C65.4605 34.9904 67.2855 34.4915 69.685 34.4915H73.282V33.289C73.282 30.3794 72.016 28.9252 69.4817 28.9252C68.6664 28.9252 67.8135 29.0393 66.9187 29.2686C66.0239 29.4979 65.2042 29.7843 64.4596 30.1277L63.5426 27.8938C64.4706 27.367 65.4715 26.9609 66.5453 26.6734C67.6191 26.3882 68.6664 26.2439 69.685 26.2439C74.073 26.2439 76.2692 28.6154 76.2692 33.3572V45.3847H73.9603L73.5869 43.3231C72.659 44.0793 71.6713 44.6632 70.6174 45.076C69.5657 45.4888 68.5648 45.6946 67.6147 45.6946C65.962 45.6946 64.6672 45.2192 63.7282 44.2684C62.7892 43.3175 62.3208 42.0065 62.3208 40.3341ZM68.1803 43.1519C68.6068 43.1519 69.0531 43.0949 69.5149 42.9797C69.9766 42.8656 70.4384 42.7168 70.9002 42.5334C71.362 42.3499 71.795 42.1262 72.2016 41.8633C72.6059 41.5993 72.9661 41.3185 73.282 41.021V36.6225H70.0385C68.3924 36.6225 67.1927 36.9089 66.4392 37.4816C65.6836 38.0543 65.308 38.9593 65.308 40.1965C65.308 42.1664 66.2647 43.1519 68.1803 43.1519ZM47.8134 45.3847H44.6914V18.8217L47.8134 18.1338V45.3847ZM56.1608 26.1074L58.6044 27.8938L52.5991 35.5229L59.5545 43.9764L57.1462 45.8669L48.9336 35.694L56.1608 26.1074ZM25.1861 40.3341C25.1861 38.4325 25.8136 36.9827 27.0708 35.9871C28.3258 34.9904 30.153 34.4915 32.5503 34.4915H36.1495V33.289C36.1495 30.3794 34.8813 28.9252 32.347 28.9252C31.5339 28.9252 30.6788 29.0393 29.7862 29.2686C28.8914 29.4979 28.0717 29.7843 27.3248 30.1277L26.4079 27.8938C27.3359 27.367 28.3368 26.9609 29.4128 26.6734C30.4866 26.3882 31.5339 26.2439 32.5503 26.2439C36.9405 26.2439 39.1345 28.6154 39.1345 33.3572V45.3847H36.8278L36.4544 43.3231C35.5264 44.0793 34.5366 44.6632 33.4849 45.076C32.4331 45.4888 31.4323 45.6946 30.48 45.6946C28.8295 45.6946 27.5347 45.2192 26.5957 44.2684C25.6567 43.3175 25.1861 42.0065 25.1861 40.3341ZM31.0456 43.1519C31.4743 43.1519 31.9183 43.0949 32.3801 42.9797C32.8419 42.8656 33.3037 42.7168 33.7655 42.5334C34.2273 42.3499 34.6625 42.1262 35.0668 41.8633C35.4734 41.5993 35.8336 41.3185 36.1495 41.021V36.6225H32.9038C31.2599 36.6225 30.0602 36.9089 29.3045 37.4816C28.5511 38.0543 28.1733 38.9593 28.1733 40.1965C28.1733 42.1664 29.13 43.1519 31.0456 43.1519ZM10.6786 45.3847H7.55664V18.8217L10.6786 18.1338V45.3847ZM19.0283 26.1074L21.4719 27.8938L15.4643 35.5229L22.422 43.9764L20.0115 45.8669L11.7988 35.694L19.0283 26.1074Z" fill="#767676"/>
</g>
</svg>
