<svg width="86" height="64" viewBox="0 0 86 64" fill="none" xmlns="http://www.w3.org/2000/svg">
<g id="&#235;&#166;&#172;&#235;&#148;&#148;">
<path id="Vector" d="M28.3929 27.5624V27.4878C28.3929 21.7486 24.3184 18.1836 17.7586 18.1836H4V45.835H10.9571V37.3195H15.7509L21.4948 45.8297H29.6705L22.928 36.0512C26.455 34.5165 28.3929 31.527 28.3929 27.5624ZM21.3606 27.8661C21.3606 29.8911 19.8683 31.6282 17.3721 31.6282H10.9571V23.992H17.2593C19.1328 23.992 21.3606 25.0845 21.3606 27.7915V27.8661Z" fill="#767676"/>
<path id="Vector_2" d="M40.2578 18.1816H33.3008V45.833H40.2578V18.1816Z" fill="#767676"/>
<path id="Vector_3" d="M58.1487 18.1836H45.3457V45.835H58.1487C66.7055 45.835 71.0484 40.0213 71.0484 32.012V31.9374C71.0484 23.9654 66.7055 18.1836 58.1487 18.1836ZM63.8283 32.0813C63.8283 36.5149 61.8689 39.8135 57.3542 39.8135H52.3029V24.1999H57.3542C61.8689 24.1999 63.8283 27.5251 63.8283 32.0066V32.0813Z" fill="#767676"/>
<path id="Vector_4" d="M81.8164 18.1816H74.8594V45.833H81.8164V18.1816Z" fill="#767676"/>
</g>
</svg>
