<svg width="121" height="64" viewBox="0 0 121 64" fill="none" xmlns="http://www.w3.org/2000/svg">
<g id="SK &#235;&#176;&#148;&#236;&#157;&#180;&#236;&#152;&#164;&#237;&#140;&#156;">
<path id="Vector" d="M54.6299 20.0961C53.5627 20.5419 52.5224 21.0418 51.4416 21.4201C49.4016 22.1361 47.2806 22.2171 45.1325 22.0685C44.7002 22.0415 44.2409 22.0685 43.8086 22.1496C42.5792 22.3928 41.9037 23.2169 41.7956 24.6354C41.7011 25.7972 41.6875 26.9726 41.5389 28.1344C41.4444 28.891 41.1877 29.6205 40.9985 30.35C40.958 30.4851 40.8634 30.5932 40.7689 30.7418C40.4311 29.9718 40.1609 29.2422 39.7827 28.5667C39.2423 27.5805 38.6343 26.6213 38.0264 25.6756C37.8778 25.446 37.8373 25.2703 37.9318 25.0002C38.9721 22.1631 39.9988 19.3125 41.0256 16.4755C41.0796 16.3269 41.1066 16.1782 41.0661 15.9891C40.8229 16.2728 40.5797 16.543 40.3366 16.8267C38.5533 19.0153 36.7835 21.1904 35.0002 23.379C34.9056 23.5006 34.73 23.6357 34.5949 23.6357C33.5006 23.6086 32.3928 23.5546 31.2715 23.5141C31.312 23.4735 31.339 23.406 31.3931 23.3655C33.298 21.8929 33.7708 19.9475 33.1629 17.7184C32.9197 16.8402 32.5009 16.0161 32.1361 15.1785C31.7578 14.3139 31.5417 13.4358 31.7308 12.5036C32.0415 10.9905 33.0953 10.1259 34.4328 9.51791C34.9732 9.27473 35.365 9.34228 35.8513 9.73407C37.8508 11.4093 39.607 13.2871 41.0931 15.4217C41.2012 15.5838 41.4849 15.7054 41.7011 15.7054C43.5924 15.8 45.4433 16.1242 47.2671 16.6376C49.7934 17.3401 52.1441 18.4074 54.3733 19.7719C54.4543 19.8124 54.5084 19.8799 54.5894 19.9475C54.5894 20.0015 54.6029 20.0556 54.6164 20.0961H54.6299Z" fill="#767676"/>
<path id="Vector_2" d="M20.2747 28.7693H24.3412V36.2267C24.5033 36.0646 24.5979 35.9971 24.6654 35.916C26.3677 33.6599 28.0699 31.4037 29.7586 29.1341C29.9478 28.8774 30.1639 28.7423 30.5017 28.7558C31.8797 28.7693 33.2577 28.7558 34.6222 28.7558C34.7302 28.7558 34.8248 28.7558 35.0004 28.7693C34.8653 28.9585 34.7708 29.0936 34.6627 29.2287C32.5552 31.8225 30.4476 34.4029 28.3131 36.9833C28.0834 37.267 28.0564 37.4426 28.2861 37.7398C30.5557 40.5904 32.8118 43.468 35.0815 46.3321C35.1625 46.4266 35.2166 46.5482 35.3247 46.7103C35.1085 46.7103 34.9734 46.7374 34.8248 46.7374C33.4063 46.7374 31.9877 46.7374 30.5827 46.7374C30.2855 46.7374 30.0829 46.6428 29.9072 46.3996C28.1915 44.0354 26.4487 41.6847 24.7195 39.334C24.6519 39.2529 24.5979 39.1584 24.5303 39.0773C24.4898 39.0773 24.4493 39.1043 24.4087 39.1178C24.4087 39.2529 24.3817 39.388 24.3817 39.5096C24.3817 40.7795 24.4087 42.0359 24.3817 43.3059C24.3412 44.6433 23.9359 45.8322 22.639 46.4537C22.031 46.7374 21.3285 46.8184 20.6665 46.9805C20.3558 47.0481 20.2207 46.913 20.2207 46.5617C20.2207 43.4545 20.2207 40.3337 20.2207 37.2265C20.2207 34.6326 20.2207 32.0252 20.2207 29.4313C20.2207 29.2151 20.2477 29.0125 20.2747 28.7693Z" fill="#767676"/>
<path id="Vector_3" d="M10.9375 47.0883C8.88399 47.1154 7.04666 46.6695 5.29038 45.7914C4.93913 45.6158 4.87158 45.4807 5.07422 45.1159C5.53356 44.3188 5.95236 43.5082 6.35766 42.6977C6.50626 42.4004 6.64136 42.3734 6.91156 42.5355C7.99234 43.184 9.15419 43.5623 10.4106 43.6704C11.1266 43.7244 11.8156 43.6298 12.4506 43.3056C13.5179 42.7652 13.7205 41.5899 12.8018 40.8333C12.1939 40.3199 11.4644 39.9417 10.7483 39.5769C9.62703 38.996 8.4787 38.4691 7.47897 37.672C4.7635 35.4969 5.19581 30.9171 8.54624 29.2014C10.0458 28.4313 11.64 28.2692 13.2612 28.4853C14.3149 28.6204 15.3552 28.9447 16.409 29.1878C16.7602 29.2689 16.8683 29.458 16.7062 29.8093C16.49 30.2416 16.3414 30.7145 16.0847 31.1062C15.5849 31.8628 14.8418 32.106 13.9367 32.0114C13.1396 31.9303 12.3155 31.8223 11.5319 31.9033C10.2755 32.0384 9.7216 33.2813 10.4241 34.2135C10.5997 34.4432 10.8159 34.6728 11.0726 34.8079C11.8832 35.2673 12.7208 35.659 13.5314 36.1049C14.2879 36.5237 15.0445 36.929 15.747 37.4288C18.7597 39.5769 18.3949 44.1567 15.2336 46.0346C13.8826 46.8317 12.4236 47.1424 10.951 47.0883H10.9375Z" fill="#767676"/>
<path id="Vector_4" d="M34.1228 8.53126C33.5149 8.92304 32.8664 9.23377 32.326 9.67959C30.9345 10.8279 30.4211 12.341 30.8399 14.0838C31.0426 14.9619 31.4479 15.7995 31.8126 16.6371C32.299 17.7585 32.6232 18.8798 32.4206 20.1227C32.2044 21.4196 31.4749 22.3518 30.4211 23.0678C29.4484 23.7163 28.3676 24.054 27.2328 24.2432C26.8275 24.3107 26.5573 24.0946 26.5033 23.6352C26.3547 22.3383 26.2196 21.0413 26.0845 19.7579C25.9089 18.1367 25.7197 16.502 25.5306 14.8809C25.382 13.5569 25.2469 12.2329 25.1118 10.9225C24.9361 9.2743 24.747 7.61259 24.5579 5.96439C24.5309 5.73473 24.5173 5.50506 24.4903 5.2889C24.4228 4.77553 24.7065 4.49182 25.2199 4.58639C26.8545 4.88361 28.4352 5.41049 29.9213 6.15353C31.2993 6.84253 32.6232 7.65312 33.9742 8.40967C34.0553 8.4502 34.1093 8.53126 34.1363 8.55828L34.1228 8.53126Z" fill="#767676"/>
<path id="Vector_5" d="M45.3357 22.946C45.741 22.973 46.1328 23.027 46.5381 23.0405C49.6183 23.1081 52.4689 22.311 55.1438 20.8114C55.441 20.6493 55.6707 20.6088 55.9409 20.8519C56.9812 21.7706 58.0484 22.6487 59.0482 23.5944C59.548 24.0673 59.4535 24.378 58.832 24.6617C54.671 26.5936 50.51 28.5255 46.3489 30.4574C44.9709 31.0924 43.5929 31.7408 42.2149 32.3758C41.7286 32.6055 41.4449 32.5514 41.2963 32.1732C41.2422 32.0246 41.2422 31.7814 41.3368 31.6598C42.0798 30.5925 42.3771 29.4036 42.4851 28.1337C42.5797 27.0394 42.5932 25.9316 42.7013 24.8373C42.8499 23.3107 43.7145 23.0405 44.9574 22.946C45.079 22.946 45.2006 22.946 45.3222 22.946C45.3222 22.946 45.3222 22.946 45.3222 22.9324L45.3357 22.946Z" fill="#767676"/>
<path id="Vector_6" d="M91.1612 45.8322C88.824 45.8322 86.5003 45.8322 84.1631 45.8322C83.6092 45.8322 83.5957 45.8322 83.5957 45.2648C83.5957 45.0891 83.5957 44.9135 83.5957 44.7379C83.5957 44.2245 83.6227 44.211 84.1091 44.211C85.8113 44.211 87.5 44.211 89.2023 44.211C90.0534 44.211 90.0534 44.211 90.0534 43.3329C90.0534 42.9411 90.0534 42.5493 90.0534 42.1575C90.0534 41.6577 89.9723 41.5901 89.4725 41.5361C88.2836 41.401 87.1893 41.0227 86.2166 40.3202C83.7308 38.5099 83.974 34.6731 86.9596 33.2005C88.6078 32.3899 90.3506 32.2278 92.1474 32.3629C93.1471 32.4305 94.1198 32.6331 95.0385 33.0519C96.376 33.6598 97.3622 34.6055 97.6864 36.1051C98.0917 38.064 97.2406 39.7798 95.4303 40.739C94.5792 41.1848 93.674 41.482 92.7013 41.5361C92.3906 41.5496 92.269 41.6847 92.269 41.9819C92.269 42.6033 92.269 43.2248 92.269 43.8327C92.269 44.1299 92.3906 44.211 92.6878 44.211C94.5657 44.184 96.43 44.184 98.3079 44.1705C98.6321 44.1705 98.7807 44.2921 98.7537 44.6298C98.7267 44.8595 98.7402 45.0891 98.7537 45.3188C98.7807 45.6701 98.6321 45.8052 98.2809 45.7917C97.2271 45.7781 96.1733 45.7917 95.1331 45.7917C93.8091 45.7917 92.4852 45.7917 91.1747 45.7917L91.1612 45.8322ZM91.2017 40.0095C92.2015 40.05 93.1877 39.8473 94.1063 39.3205C95.8356 38.3072 95.9842 36.1321 94.39 34.9163C92.8904 33.7679 89.9588 33.6598 88.2431 34.7001C86.3247 35.8619 86.3652 38.2937 88.3241 39.388C89.2023 39.8879 90.1615 40.0365 91.2152 40.023L91.2017 40.0095Z" fill="#767676"/>
<path id="Vector_7" d="M58.6167 37.1051C58.6167 38.4696 58.5762 39.8206 58.6167 41.1851C58.6572 42.2253 57.9142 42.9684 56.8739 42.9954C54.9961 43.0359 53.1317 43.0224 51.2538 42.9954C50.2406 42.9819 49.6056 42.3604 49.5111 41.3472C49.4705 40.8879 49.457 40.4285 49.457 39.9827C49.457 37.605 49.457 35.2137 49.457 32.836C49.457 32.4577 49.5516 32.2956 49.9569 32.3361C50.4027 32.3632 50.8485 32.3361 51.2944 32.3361C51.8212 32.3361 51.8212 32.3361 51.8212 32.89C51.8212 33.9033 51.7942 34.903 51.7807 35.9162C51.7807 36.5512 51.7807 36.5512 52.3887 36.5512C53.5775 36.5512 54.7664 36.5512 55.9417 36.5512C56.2795 36.5512 56.3741 36.4431 56.3605 36.1054C56.3335 34.957 56.347 33.8222 56.3335 32.6739C56.3335 32.4307 56.4416 32.3361 56.6713 32.3497C57.1846 32.3497 57.698 32.3767 58.2114 32.3497C58.5356 32.3361 58.6302 32.4577 58.6167 32.7685C58.6032 34.2275 58.6167 35.6731 58.6167 37.1321V37.1051ZM54.0369 41.3877C54.6853 41.3877 55.3338 41.3877 55.9823 41.3877C56.2525 41.3877 56.3741 41.3202 56.3605 41.023C56.3335 40.1989 56.3335 39.3748 56.3605 38.5642C56.3605 38.1859 56.239 38.0778 55.8742 38.0778C54.7934 38.1048 53.7126 38.1048 52.6453 38.0778C51.8212 38.0778 51.8212 38.0643 51.8212 38.8614C51.8212 38.9424 51.8077 39.0235 51.7942 39.1046C51.7942 39.753 51.7942 40.388 51.7942 41.0365C51.7942 41.2661 51.8618 41.3877 52.159 41.3742C52.794 41.3472 53.4289 41.3742 54.0639 41.3742L54.0369 41.3877Z" fill="#767676"/>
<path id="Vector_8" d="M66.6678 38.0918C66.7083 36.2545 67.1407 34.7008 68.37 33.4714C70.3695 31.4585 73.6929 31.6746 75.4222 33.9173C76.5029 35.3358 76.8272 36.9705 76.6651 38.7133C76.557 39.9697 76.1652 41.1045 75.3816 42.0907C74.5981 43.0769 73.5578 43.6849 72.2879 43.8064C69.0861 44.1442 67.4108 41.9016 66.911 39.9021C66.8434 39.6589 66.7894 39.4023 66.7624 39.1591C66.7083 38.7538 66.6813 38.362 66.6543 38.0918H66.6678ZM68.9104 37.9567L69.005 37.9837C69.0455 38.4971 69.0861 38.997 69.1401 39.5103C69.1671 39.767 69.2347 40.0102 69.3022 40.2534C69.748 41.807 70.9504 42.5771 72.369 42.1988C73.4092 41.9151 73.9091 41.1045 74.0982 40.1588C74.2873 39.2401 74.3549 38.2674 74.3414 37.3217C74.3414 36.5112 74.1928 35.6871 73.774 34.9575C73.4227 34.3496 72.9499 33.8767 72.2338 33.7552C70.9234 33.5255 69.8831 34.0794 69.4643 35.3493C69.1806 36.1869 69.0861 37.0921 68.8969 37.9702L68.9104 37.9567Z" fill="#767676"/>
<path id="Vector_9" d="M105.819 40.4285C104.319 40.4285 102.833 40.4285 101.333 40.4285C100.82 40.4285 100.752 40.3474 100.793 39.834C100.793 39.753 100.807 39.6719 100.807 39.5909C100.816 39.1225 101.054 38.8884 101.523 38.8884C102.252 38.8884 102.617 38.5191 102.617 37.7806C102.617 36.6322 102.617 35.4974 102.617 34.3491C102.617 34.0113 102.549 33.8762 102.171 33.8762C101.144 33.8897 101.144 33.8762 101.158 32.863C101.158 32.3496 101.158 32.3496 101.685 32.3496C104.454 32.3496 107.21 32.3496 109.98 32.3496C110.371 32.3496 110.493 32.4712 110.493 32.863C110.466 34.0789 110.615 33.9032 109.466 33.9032C109.142 33.9032 109.048 34.0383 109.048 34.3356C109.048 35.7136 109.048 37.078 109.048 38.456C109.048 38.8073 109.196 38.9289 109.534 38.9154C109.872 38.9019 110.209 38.9154 110.547 38.9154C110.817 38.9019 110.898 39.0099 110.898 39.2666C110.871 40.6717 111.101 40.442 109.75 40.4555C108.44 40.4555 107.129 40.4555 105.832 40.4555L105.819 40.4285ZM104.819 36.3755C104.819 37.078 104.819 37.7806 104.819 38.4696C104.819 38.7668 104.927 38.8884 105.224 38.8748C105.643 38.8613 106.062 38.8748 106.481 38.8748C106.791 38.8748 106.926 38.7533 106.913 38.4425C106.913 38.0372 106.913 37.6319 106.913 37.2267C106.913 36.2675 106.913 35.3083 106.913 34.3626C106.913 34.0248 106.818 33.8357 106.427 33.8627C106.048 33.8897 105.67 33.8897 105.292 33.8627C104.941 33.8357 104.805 33.9438 104.819 34.3085C104.846 34.9975 104.819 35.6865 104.819 36.362V36.3755Z" fill="#767676"/>
<path id="Vector_10" d="M108.738 41.4686C110.44 41.4686 112.129 41.4686 113.831 41.4686C114.156 41.4686 114.291 41.5767 114.291 41.9144C114.291 43.1573 114.291 44.3867 114.291 45.6296C114.291 46.7104 113.561 47.4399 112.48 47.4399C109.981 47.4399 107.495 47.4534 104.996 47.4399C103.875 47.4399 103.199 46.7239 103.199 45.6026C103.199 44.3597 103.199 43.1303 103.186 41.8874C103.186 41.5226 103.348 41.4551 103.658 41.4551C105.361 41.4551 107.063 41.4551 108.752 41.4551L108.738 41.4686ZM108.711 45.8863C109.67 45.8863 110.629 45.8863 111.575 45.8998C111.913 45.8998 112.021 45.7782 112.021 45.454C112.007 44.7785 112.007 44.103 112.021 43.441C112.021 43.0898 111.872 43.0087 111.562 43.0087C109.657 43.0087 107.765 43.0087 105.86 43.0087C105.536 43.0087 105.388 43.1438 105.401 43.468C105.401 44.1165 105.428 44.765 105.401 45.3999C105.401 45.7647 105.536 45.8998 105.901 45.8998C106.833 45.8863 107.765 45.8998 108.684 45.8998L108.711 45.8863Z" fill="#767676"/>
<path id="Vector_11" d="M60.6953 39.8472C60.6953 37.4965 60.6953 35.1323 60.6953 32.7816C60.6953 32.4303 60.7764 32.2952 61.1411 32.3223C61.587 32.3493 62.0328 32.3493 62.4786 32.3223C62.8569 32.2952 62.992 32.4033 62.992 32.8086C62.965 33.8489 62.992 34.8756 62.9785 35.9159C62.9785 36.2401 63.0866 36.3482 63.3838 36.3482C63.735 36.3482 64.0863 36.3482 64.4375 36.3482C64.6807 36.3482 64.7753 36.4428 64.7753 36.6859C64.7483 38.1045 65.0049 37.8208 63.6945 37.8343C62.8569 37.8343 62.9785 37.8343 62.9785 38.5638C62.9785 40.8199 62.9785 43.0896 62.9785 45.3457C62.9785 45.6564 62.9515 45.9672 62.8704 46.2644C62.6002 47.156 61.7761 47.4938 60.979 47.4397C60.8845 47.4397 60.7358 47.2371 60.7358 47.1155C60.7088 46.6562 60.7358 46.1968 60.7358 45.7375C60.7358 43.7786 60.7358 41.8061 60.7358 39.8472H60.6953Z" fill="#767676"/>
<path id="Vector_12" d="M78.6367 39.8741C78.6367 37.5234 78.6367 35.1592 78.6367 32.8085C78.6367 32.4167 78.7448 32.2681 79.1366 32.2951C79.5554 32.3221 79.9742 32.3221 80.393 32.2951C80.7578 32.2816 80.8793 32.3896 80.8793 32.7679C80.8658 35.1862 80.8793 37.6179 80.8658 40.0362C80.8658 41.9141 80.8658 43.8054 80.8658 45.6833C80.8658 46.7371 80.1093 47.4261 79.0555 47.4261C78.7313 47.4261 78.6367 47.3045 78.6367 46.9937C78.6367 44.616 78.6367 42.2248 78.6367 39.8471V39.8741Z" fill="#767676"/>
<path id="Vector_13" d="M112.008 36.3753C112.008 35.1595 112.008 33.9571 112.008 32.7412C112.008 32.417 112.102 32.3089 112.427 32.3224C112.94 32.3494 113.453 32.3359 113.967 32.3224C114.21 32.3224 114.304 32.4035 114.304 32.6601C114.304 33.3086 114.304 33.9571 114.304 34.592C114.304 34.8893 114.413 35.0109 114.71 34.9973C115.061 34.9973 115.412 34.9973 115.764 34.9973C116.007 34.9973 116.101 35.0919 116.088 35.3351C116.088 35.6323 116.088 35.9295 116.088 36.2267C116.088 36.4699 115.98 36.5645 115.75 36.5645C115.439 36.5645 115.129 36.5645 114.818 36.5645C114.476 36.5645 114.304 36.7401 114.304 37.0914C114.304 38.0641 114.304 39.0368 114.304 39.996C114.304 40.3337 114.196 40.4553 113.859 40.4418C113.386 40.4283 112.913 40.4283 112.44 40.4418C112.129 40.4418 112.008 40.3472 112.021 40.023C112.035 38.8071 112.021 37.6047 112.021 36.3889L112.008 36.3753Z" fill="#767676"/>
</g>
</svg>
