<svg width="140" height="64" viewBox="0 0 140 64" fill="none" xmlns="http://www.w3.org/2000/svg">
<g id="&#237;&#152;&#132;&#235;&#140;&#128;&#236;&#164;&#145;&#234;&#179;&#181;&#236;&#151;&#133;">
<g id="surface1">
<path id="Vector" d="M40.2396 23.0068C41.3545 23.0411 42.471 22.9856 43.5843 23.0313C44.014 23.7529 44.2386 24.5805 44.5902 25.3429C45.8841 25.3772 47.1813 25.3462 48.4753 25.3559C48.4818 26.0987 48.4639 26.8399 48.4834 27.5826C49.1247 27.599 49.7659 27.5973 50.4072 27.5826C50.4284 26.3093 50.4089 25.0344 50.4154 23.761C51.3919 23.761 52.3717 23.761 53.3499 23.7594C53.3483 27.8993 53.3467 32.0376 53.3499 36.1759C52.3717 36.1759 51.3919 36.1743 50.4154 36.1759C50.4089 35.4348 50.4268 34.692 50.4072 33.9509C49.7025 33.9296 48.9993 33.946 48.2962 33.9427C48.2962 33.0661 48.2962 32.1894 48.2946 31.3128C49.001 31.3095 49.7041 31.3259 50.4105 31.3046C50.4154 30.9814 50.4154 30.6566 50.4105 30.3317C49.7041 30.3121 49.001 30.3301 48.2962 30.3252C48.2897 29.5122 48.3092 28.6992 48.2881 27.8863C47.8617 27.8732 47.4352 27.8716 47.0104 27.8814C47.3001 28.5229 47.4873 29.2118 47.5231 29.9154C47.4873 31.3487 46.7744 32.7755 45.5814 33.5836C44.8408 34.168 43.8936 34.3769 42.9772 34.4684C42.5996 34.483 42.2301 34.39 41.8623 34.3247C40.1175 33.9949 38.6331 32.5388 38.319 30.7757C38.0798 29.7962 38.3076 28.7678 38.7471 27.8814C38.2572 27.8748 37.7673 27.8765 37.2773 27.8781C37.279 27.039 37.279 26.1967 37.2773 25.3559C38.5811 25.3527 39.8848 25.3657 41.1885 25.3511C40.9053 24.556 40.5651 23.7839 40.2396 23.0068ZM42.3831 28.1295C41.7126 28.2944 41.1462 28.8021 40.9378 29.4665C40.5684 30.5178 41.2585 31.7976 42.3376 32.0654C42.8226 32.2466 43.3532 32.1339 43.8057 31.9152C44.5804 31.5267 45.0264 30.5831 44.8669 29.7375C44.6406 28.6486 43.4671 27.8634 42.3831 28.1295Z" fill="#767676"/>
<path id="Vector_2" d="M119.428 23.5995C121.28 23.1228 123.438 23.5848 124.74 25.0491C125.264 25.5323 125.566 26.1902 125.837 26.8399C126.895 26.853 127.953 26.8546 129.011 26.8366C129.039 25.7413 129.011 24.6442 129.023 23.5489C130.04 23.544 131.059 23.5538 132.078 23.5456V32.3495C131.059 32.338 130.04 32.3511 129.021 32.3446C129.011 31.4271 129.039 30.5081 129.011 29.589C127.926 29.5759 126.84 29.5596 125.756 29.5988C125.554 30.0281 125.339 30.4558 125.051 30.8345C124.355 31.7895 123.276 32.4148 122.143 32.6923C120.723 32.9698 119.167 32.7968 117.95 31.9724C116.946 31.3357 116.176 30.3122 115.896 29.1482C115.557 27.87 115.885 26.4579 116.695 25.4262C117.346 24.5071 118.373 23.9292 119.428 23.5995ZM120.673 25.787C120.11 25.9159 119.529 26.1624 119.182 26.6489C118.834 27.0864 118.679 27.6578 118.708 28.2128C118.809 29.3261 119.833 30.2779 120.953 30.2632C121.316 30.2926 121.676 30.1914 121.988 30.0036C122.922 29.5743 123.402 28.3973 123.131 27.4194C122.86 26.3665 121.733 25.6417 120.673 25.787Z" fill="#767676"/>
<path id="Vector_3" d="M65.0342 23.7598C66.014 23.7614 66.9922 23.7614 67.9704 23.7598C67.9736 25.7791 67.9574 27.7968 67.9785 29.8162C68.4782 29.8342 68.9779 29.8342 69.4759 29.8162C69.4971 27.7968 69.4792 25.7791 69.484 23.7598C70.4622 23.7614 71.4421 23.7614 72.4186 23.7614C72.4186 29.4946 72.4186 35.2294 72.4186 40.9643C71.4404 40.9627 70.4622 40.9627 69.484 40.9643C69.4808 38.2724 69.4971 35.5788 69.4775 32.8869C68.9779 32.8689 68.4782 32.8689 67.9785 32.8869C67.959 35.5788 67.9736 38.2724 67.9704 40.9627C66.9922 40.9627 66.014 40.9627 65.0342 40.9643C65.0277 39.6828 65.0537 38.3997 65.0244 37.1198C64.3115 37.3598 63.6361 37.6945 62.9118 37.8969C61.5381 38.385 60.0895 38.625 58.6507 38.8127C57.8792 38.8094 57.1191 38.9857 56.3477 38.9449C56.3509 34.0606 56.3493 29.1763 56.3493 24.2919C58.7744 24.2952 61.2012 24.2936 63.6279 24.2936C63.6263 25.1327 63.6263 25.9734 63.6263 26.8141C62.181 26.819 60.7357 26.801 59.292 26.8223C59.2757 29.7738 59.2773 32.7269 59.2904 35.6784C60.3548 35.6604 61.4095 35.4629 62.4382 35.2017C63.3219 34.9193 64.2285 34.6499 65.0179 34.1439C65.0602 30.683 65.0244 27.2222 65.0342 23.7598Z" fill="#767676"/>
<path id="Vector_4" d="M76.1556 23.7598C81.2321 23.763 86.307 23.763 91.3818 23.7598C91.3802 24.4944 91.3802 25.229 91.3818 25.9636C89.611 25.9734 87.8385 25.9391 86.0693 25.9799C86.9076 27.0492 88.221 27.6271 89.528 27.867C90.2507 27.965 90.9847 27.885 91.7139 27.9095C91.4893 28.6016 91.2467 29.2873 91.0335 29.9811C90.9766 30.128 90.944 30.2978 90.8301 30.4137C89.821 30.5296 88.8167 30.3043 87.8385 30.0774C86.3493 29.6856 84.9382 28.982 83.7663 27.9699C83.4082 28.2197 83.0827 28.5086 82.7295 28.76C81.04 29.8782 79.0153 30.5165 76.9857 30.4316C76.8115 30.4316 76.639 30.4316 76.4665 30.4333C76.1019 29.6089 75.8382 28.7437 75.5273 27.8981C76.1198 27.903 76.7139 27.9372 77.3063 27.8997C78.4489 27.7577 79.5866 27.4344 80.5664 26.8125C80.9473 26.5954 81.3151 26.3391 81.5788 25.9815C79.7721 25.9358 77.9639 25.9734 76.1556 25.9636C76.1572 25.229 76.1572 24.4944 76.1556 23.7598Z" fill="#767676"/>
<path id="Vector_5" d="M97.2393 23.7598C102.067 23.763 106.894 23.763 111.723 23.7598C111.715 24.7131 111.733 25.6665 111.715 26.6198C111.585 27.916 111.473 29.235 110.997 30.4594C111.875 30.4725 112.752 30.4578 113.629 30.4627C113.629 31.3034 113.628 32.1441 113.629 32.9848C107.601 32.9832 101.574 32.9815 95.5449 32.9848C95.5449 32.1441 95.5449 31.3034 95.5449 30.4627C97.7324 30.4594 99.9183 30.4757 102.106 30.4545C102.127 29.6072 102.107 28.7584 102.112 27.9095C103.126 27.9111 104.14 27.9095 105.154 27.9095C105.161 28.7584 105.14 29.6072 105.161 30.4561C106.082 30.4725 107.002 30.4659 107.923 30.4594C108.421 29.6595 108.458 28.6963 108.559 27.7871C108.602 27.2891 108.574 26.788 108.566 26.2901C104.791 26.2705 101.015 26.2868 97.2393 26.2836C97.2409 25.4412 97.2409 24.6021 97.2393 23.7598Z" fill="#767676"/>
<path id="Vector_6" d="M74.6738 30.8867C80.7383 30.89 86.8027 30.89 92.8656 30.8867C92.8639 31.7291 92.8656 32.5698 92.8656 33.4105C90.3949 33.4121 87.9209 33.3991 85.4518 33.417C85.4518 33.6635 85.4518 33.91 85.4567 34.1565C86.6839 34.5304 87.9453 35.0299 88.7819 36.0535C89.3125 36.6363 89.6364 37.4166 89.5924 38.2132C89.6266 39.4049 88.8177 40.4219 87.8949 41.0749C86.6904 41.8863 85.2256 42.3303 83.7705 42.2405C81.9443 42.358 80.0433 41.7018 78.7721 40.3599C78.2415 39.702 77.8232 38.8809 77.8623 38.0157C77.9779 36.9317 78.6126 35.9261 79.5046 35.314C80.2533 34.7165 81.1761 34.4128 82.0843 34.1614C82.0859 33.9133 82.0876 33.6652 82.0892 33.417C79.6169 33.3974 77.1462 33.4121 74.6738 33.4105C74.6755 32.5698 74.6755 31.7291 74.6738 30.8867ZM83.3848 36.2134C82.5286 36.3408 81.5863 36.7424 81.2559 37.6108C81.1191 38.1251 81.2103 38.7291 81.5977 39.1176C82.1999 39.8326 83.2008 40.0155 84.0895 39.9485C85.014 39.8946 86.0589 39.3592 86.2933 38.3912C86.4284 37.8345 86.137 37.2517 85.7139 36.8991C85.0986 36.3196 84.2002 36.14 83.3848 36.2134Z" fill="#767676"/>
<path id="Vector_7" d="M103.411 33.7988C104.956 33.629 106.564 33.8461 107.951 34.571C108.822 35.0738 109.657 35.7659 110.034 36.7258C110.309 37.2776 110.265 37.9142 110.215 38.5101C109.93 39.7344 108.957 40.696 107.85 41.2216C106.808 41.7995 105.602 42.0036 104.427 42.0346C102.583 42.0036 100.619 41.4273 99.3767 39.9875C98.7484 39.2545 98.3773 38.226 98.6198 37.2645C98.7614 36.3699 99.4174 35.6876 100.077 35.1227C101.021 34.3489 102.222 33.9751 103.411 33.7988ZM104.147 36.001C103.429 36.1169 102.682 36.3569 102.222 36.956C101.828 37.3886 101.724 38.0759 102.044 38.5787C102.546 39.4161 103.574 39.7948 104.513 39.7459C105.409 39.7801 106.369 39.4145 106.873 38.6456C107.168 38.2228 107.173 37.6367 106.932 37.1911C106.613 36.7568 106.203 36.3438 105.666 36.2116C105.174 36.0761 104.661 35.8981 104.147 36.001Z" fill="#767676"/>
<path id="Vector_8" d="M118.216 33.7611C119.193 33.7594 120.171 33.7594 121.149 33.7611C121.146 34.2884 121.147 34.8173 121.157 35.3462C123.846 35.3642 126.535 35.3642 129.224 35.3462C129.232 34.8173 129.235 34.2884 129.232 33.7611C130.181 33.7545 131.128 33.766 132.077 33.7578V41.4973C127.456 41.4892 122.835 41.4957 118.216 41.4941C118.214 38.9164 118.214 36.3387 118.216 33.7611ZM121.157 37.6725C121.141 38.1393 121.141 38.6046 121.157 39.0715C123.776 39.0862 126.395 39.0862 129.012 39.0715C129.027 38.6046 129.027 38.1393 129.012 37.6725C126.395 37.6578 123.776 37.6578 121.157 37.6725Z" fill="#767676"/>
<path id="Vector_9" d="M39.7148 34.9297C40.7646 34.9297 41.8128 34.9297 42.8626 34.9297C42.8691 35.9565 42.848 36.9817 42.8691 38.0085C46.5052 38.0265 50.1396 38.0118 53.7757 38.015C53.7725 38.9978 53.7725 39.9805 53.7757 40.9633C49.0882 40.96 44.4023 40.9616 39.7148 40.9633C39.7165 38.9521 39.7165 36.9409 39.7148 34.9297Z" fill="#767676"/>
<path id="Vector_10" d="M7.54102 18.127C7.96582 18.3457 8.39388 18.5612 8.80078 18.8159C15.998 23.0407 23.1953 27.2687 30.3942 31.4952C30.6693 31.6535 30.9574 31.789 31.2389 31.9376L31.2731 31.9996C29.7188 34.8858 28.0928 37.7361 26.5042 40.6043C25.4805 42.3886 24.5283 44.2137 23.4753 45.9784H23.3288C21.9665 43.4807 20.5228 41.0304 19.1279 38.5523C17.8877 36.3714 16.6507 34.1904 15.3975 32.0176C13.8138 29.1395 12.1797 26.2893 10.5667 23.4276C9.54297 21.6694 8.59733 19.8639 7.54102 18.127Z" fill="#767676"/>
<path id="Subtract" d="M14.9854 32.8086C15.987 34.5488 16.9809 36.293 17.9746 38.041C18.1413 38.3342 18.3078 38.6276 18.4746 38.9209C19.0015 39.857 19.532 40.7831 20.0605 41.7061C20.8745 43.1274 21.6838 44.5427 22.4727 45.9785H7.58008C9.3948 42.7855 11.1641 39.5664 12.9707 36.3701C13.6108 35.1652 14.3378 34.0084 14.9854 32.8086ZM19.3379 38.9209C20.0613 40.2007 20.7934 41.4756 21.5215 42.7529C21.2496 42.2759 20.9779 41.7987 20.7051 41.3223C20.2474 40.523 19.7911 39.7226 19.3379 38.9209Z" fill="#767676"/>
<path id="Subtract_2" d="M30.9355 31.7812C31.0077 31.8178 31.0795 31.8554 31.1514 31.8926C31.0226 31.826 30.8934 31.7604 30.7646 31.6943C30.8214 31.7235 30.8786 31.7524 30.9355 31.7812ZM23.4199 18C25.7845 22.2473 28.1764 26.479 30.5547 30.7197C27.4446 28.8938 24.3344 27.0675 21.2246 25.2412C17.2126 22.8851 13.2011 20.5286 9.18945 18.1738C9.09311 18.1137 8.99507 18.0562 8.89746 18H23.4199ZM8.50098 18.6367C8.60176 18.6945 8.70214 18.7537 8.80078 18.8154C8.8106 18.8212 8.82026 18.8272 8.83008 18.833C12.8353 21.1841 16.8412 23.5364 20.8467 25.8887C21.0961 26.0351 21.3454 26.1817 21.5947 26.3281C17.33 23.8236 13.0652 21.3196 8.80078 18.8164C8.7019 18.7545 8.602 18.6946 8.50098 18.6367ZM8.19922 18.4697C8.27492 18.5104 8.34985 18.5526 8.4248 18.5947C8.34985 18.5526 8.27492 18.5104 8.19922 18.4697ZM7.65527 18.1855C7.75132 18.2349 7.84651 18.286 7.94238 18.3359C7.80861 18.2663 7.6749 18.1959 7.54102 18.127L7.65527 18.1855Z" fill="#767676"/>
</g>
</g>
</svg>
