<svg width="150" height="64" viewBox="0 0 150 64" fill="none" xmlns="http://www.w3.org/2000/svg">
<path d="M101.994 45.2973V40.0527H100.107V45.2973H98.8221V40.0527H96.9306V45.2973H94.3809V46.7742H106.041V45.2973H101.994Z" fill="#767676"/>
<path d="M103.057 43.8614H104.29C104.751 41.4931 105.078 38.534 105.269 36.5491C105.373 35.4764 105.378 34.9219 104.414 34.9219H95.6406V36.3988H103.057V43.8614Z" fill="#767676"/>
<path d="M114.774 45.2985V42.7695H112.67V45.2985H107.855V46.7755H119.521V45.2985H114.774Z" fill="#767676"/>
<path d="M116.712 41.9757C117.582 41.9757 117.883 41.4937 117.883 40.7993V34.793H115.774V37.2287H111.602V34.793H109.498V40.7993C109.498 41.4886 109.793 41.9757 110.664 41.9757H116.712ZM111.602 40.706V38.7056H115.774V40.706H111.602Z" fill="#767676"/>
<path d="M143.018 42.8304C142.246 42.3277 141.277 42.1152 140.225 42.1152C139.173 42.1152 138.209 42.3277 137.431 42.8304C136.581 43.3797 136.188 44.126 136.188 44.9552C136.188 45.7843 136.576 46.5358 137.431 47.0799C138.203 47.5774 139.178 47.7951 140.225 47.7951C141.271 47.7951 142.246 47.5774 143.018 47.0799C143.868 46.5306 144.262 45.7843 144.262 44.9552C144.262 44.126 143.873 43.3797 143.018 42.8304ZM141.712 45.9605C141.323 46.2818 140.8 46.4218 140.225 46.4218C139.649 46.4218 139.126 46.2818 138.737 45.9605C138.385 45.6703 138.281 45.3283 138.281 44.95C138.281 44.5717 138.385 44.2296 138.737 43.9394C139.126 43.6181 139.654 43.4834 140.225 43.4834C140.795 43.4834 141.323 43.6233 141.712 43.9394C142.064 44.2296 142.168 44.5665 142.168 44.95C142.168 45.3335 142.064 45.6703 141.712 45.9605Z" fill="#767676"/>
<path d="M142.189 34.3359V35.9321H140.598V37.4091H142.189V38.4144H140.598V39.8914H142.189V41.783H144.293V34.3359H142.189Z" fill="#767676"/>
<path d="M138.752 41.1407C139.622 41.1407 139.923 40.6587 139.923 39.9643V34.9219H134.176V39.9643C134.176 40.6535 134.471 41.1407 135.347 41.1407H138.752ZM137.819 36.3988V39.6585H136.285V36.3988H137.819Z" fill="#767676"/>
<path d="M125.35 41.4723L126.299 40.7572C124.739 38.9848 124.293 37.1554 124.293 34.7871H122.34C122.34 37.1503 121.889 38.9848 120.334 40.7572L121.282 41.4723C122.22 40.6587 122.811 39.7829 123.319 38.7257C123.827 39.7881 124.418 40.6587 125.356 41.4723H125.35Z" fill="#767676"/>
<path d="M130.028 42.9275C129.256 42.4351 128.282 42.2227 127.235 42.2227C126.188 42.2227 125.214 42.4351 124.442 42.9275C123.592 43.4664 123.203 44.1971 123.203 45.0108C123.203 45.8244 123.592 46.5603 124.442 47.0941C125.214 47.5812 126.188 47.7937 127.235 47.7937C128.282 47.7937 129.256 47.5812 130.028 47.0941C130.878 46.5551 131.267 45.8244 131.267 45.0108C131.267 44.1971 130.878 43.4664 130.028 42.9275ZM128.722 45.9799C128.334 46.2908 127.805 46.4255 127.235 46.4255C126.665 46.4255 126.136 46.2908 125.748 45.9799C125.395 45.7 125.297 45.3735 125.297 45.0108C125.297 44.648 125.395 44.3215 125.748 44.0417C126.136 43.7359 126.665 43.6012 127.235 43.6012C127.805 43.6012 128.334 43.7359 128.722 44.0417C129.075 44.3215 129.178 44.648 129.178 45.0108C129.178 45.3735 129.075 45.7 128.722 45.9799Z" fill="#767676"/>
<path d="M129.413 34.3359V37.0929H128.631V34.3359H126.744V41.669H128.631V38.5699H129.413V41.669H131.299V34.3359H129.413Z" fill="#767676"/>
<path d="M44.0063 31.0234C41.8609 31.0234 39.9797 31.7179 38.7048 33.0238C37.2486 34.4645 36.4453 36.7292 36.4453 39.3981C36.4453 42.067 37.2486 44.3317 38.7048 45.7724C39.9797 47.0783 41.866 47.7935 44.0063 47.7935C46.1467 47.7935 48.0589 47.0835 49.3338 45.7724C50.7641 44.3317 51.5674 42.067 51.5674 39.3981C51.5674 36.7292 50.7641 34.4645 49.3338 33.0238C48.0589 31.7231 46.1518 31.0234 44.0063 31.0234ZM47.0743 44.0259C46.3747 44.9173 45.2708 45.4303 44.0063 45.4303C42.7419 45.4303 41.638 44.9225 40.9591 44.0259C40.1766 43.0568 39.762 41.4399 39.762 39.3981C39.762 37.3563 40.1766 35.7653 40.9591 34.7703C41.6328 33.8789 42.7626 33.3918 44.0063 33.3918C45.2501 33.3918 46.3747 33.8789 47.0743 34.7703C47.8568 35.7653 48.2611 37.3614 48.2611 39.3981C48.2611 41.4348 47.8568 43.0568 47.0743 44.0259Z" fill="#767676"/>
<path d="M85.4341 33.0238C84.154 31.7231 82.2469 31.0234 80.1066 31.0234C77.9663 31.0234 76.0799 31.7179 74.7947 33.0238C73.3489 34.4645 72.5508 36.7292 72.5508 39.3981C72.5508 42.067 73.3489 44.3317 74.7947 45.7724C76.0799 47.0783 77.9663 47.7935 80.1066 47.7935C82.2469 47.7935 84.154 47.0835 85.4341 45.7724C86.8748 44.3317 87.6677 42.067 87.6677 39.3981C87.6677 36.7292 86.8696 34.4645 85.4341 33.0238ZM83.1746 44.0259C82.475 44.9173 81.3711 45.4303 80.1066 45.4303C78.8421 45.4303 77.7383 44.9173 77.0542 44.0259C76.2769 43.0568 75.8623 41.4399 75.8623 39.3981C75.8623 37.3563 76.2769 35.7653 77.0542 34.7703C77.7383 33.8789 78.8629 33.3918 80.1066 33.3918C81.3504 33.3918 82.475 33.8789 83.1746 34.7703C83.9571 35.7653 84.3613 37.3614 84.3613 39.3981C84.3613 41.4348 83.9623 43.0568 83.1746 44.0259Z" fill="#767676"/>
<path d="M28.974 47.4047C28.7875 47.2388 28.5698 46.8553 28.5698 46.2853V40.4707L33.9957 31.3809H30.28C30.5495 31.6503 30.5754 32.0753 30.2489 32.5883L27.3105 37.6774C24.8385 33.205 24.8437 33.0755 24.398 32.2619C24.0508 31.6452 23.7502 31.3809 23.0921 31.3809H20.1641C20.3921 31.5933 20.6357 31.9198 21.1332 32.7542L25.4604 40.4344V46.2905C25.4604 46.8605 25.2376 47.244 25.0562 47.4098H28.974V47.4047Z" fill="#767676"/>
<path d="M56.7461 47.404C56.9327 47.2381 57.1503 46.8547 57.1503 46.2846V32.4944C57.1503 31.9243 56.9275 31.5408 56.7461 31.375H62.0528C64.6025 31.375 66.8206 32.6032 66.8206 34.9871C66.8206 35.9976 66.3593 37.428 65.1829 38.0602C66.6081 38.6044 68.1213 39.9259 68.1213 42.1595C68.1213 43.8178 67.3025 45.2689 66.1935 46.1084C65.1726 46.8806 63.991 47.4092 62.0528 47.4092H56.7461V47.404ZM60.2597 37.428C60.8401 37.4953 62.0165 37.4176 62.5296 37.1533C63.0375 36.889 63.6179 36.5003 63.6179 35.4898C63.6179 34.4792 62.7783 33.6811 61.5501 33.6811C61.0889 33.6811 60.7106 33.7071 60.2597 33.847V37.428ZM63.7371 44.704C64.6543 44.1132 64.8668 43.2529 64.8668 42.3512C64.8668 40.5944 63.3225 39.7859 61.8352 39.7859C61.5138 39.7859 60.7469 39.7963 60.2597 39.8792V45.0149C61.2806 45.3 62.9183 45.2274 63.7371 44.704Z" fill="#767676"/>
<path d="M6.18157 46.2846C6.18157 46.8547 5.95873 47.2381 5.77734 47.404H9.69519C9.50863 47.2381 9.29097 46.8547 9.29097 46.2846V40.0243L13.8462 46.523C14.266 47.1397 14.5925 47.4092 15.2558 47.4092H18.4015C18.1476 47.1915 17.8677 46.8702 17.2718 46.0358L12.1361 38.7547L17.391 31.375H13.5249C13.7271 31.6393 13.7478 31.9658 13.3747 32.598L9.30134 38.4696V32.4944C9.30134 31.9243 9.52418 31.5408 9.70556 31.375H5.77734C5.96391 31.5408 6.18157 31.9243 6.18157 32.4944V46.2846Z" fill="#767676"/>
<path d="M92.7005 9.4237C91.2391 7.94155 88.8189 8.20066 87.3938 9.70872C85.5385 11.6573 84.0978 12.3828 82.3825 12.3103C79.983 12.2066 78.8015 10.3513 77.5681 8.0141C76.288 5.56803 74.3239 4.20508 71.8675 4.20508C68.0118 4.20508 65.6953 7.33003 65.6953 10.8126C65.6953 16.1711 69.4629 19.379 72.0696 20.7316C74.2358 21.8613 76.6508 22.3277 78.7963 22.3847C78.6667 23.67 78.2936 25.3594 77.8738 26.5565H82.2892C81.8539 25.3594 81.4704 23.53 81.3512 22.2448C87.8135 21.4053 90.8867 18.4669 92.5658 15.6736C93.3224 14.4454 93.7214 13.1757 93.7162 12.0304C93.7162 11.025 93.3897 10.1181 92.6953 9.42888L92.7005 9.4237ZM71.8934 12.7767C70.6393 12.8544 69.5717 11.9112 69.494 10.6675C69.4162 9.4237 70.3542 8.34577 71.6084 8.26803C72.8469 8.1903 73.9197 9.13867 73.9974 10.3824C74.0752 11.6262 73.1372 12.6989 71.8934 12.7767Z" fill="#767676"/>
</svg>
