<svg width="128" height="64" viewBox="0 0 128 64" fill="none" xmlns="http://www.w3.org/2000/svg">
<g id="Frame">
<path id="Vector" fill-rule="evenodd" clip-rule="evenodd" d="M112.378 20.8613C117.817 20.8613 122.226 25.2606 122.226 30.6863L122.224 30.7616H122.226C122.326 35.5194 122.328 38.6558 122.231 40.1678C122.083 42.438 121.24 44.782 119.566 46.5897C118.637 47.6039 117.505 48.4125 116.244 48.9635C114.983 49.5145 113.621 49.7956 112.245 49.7889C108.518 49.7889 105.406 48.4425 103.142 45.7919L103.073 45.7112L107.488 42.0384C108.633 43.4027 110.139 44.0636 112.247 44.0636C113.478 44.0636 114.532 43.5737 115.338 42.7062C116.043 41.9454 116.456 40.9779 116.476 40.2253V39.6191C115.19 40.2068 113.792 40.5102 112.378 40.5086C106.939 40.5086 102.53 36.1106 102.53 30.6849C102.53 25.2606 106.939 20.8613 112.378 20.8613ZM68.412 20.5534C74.0648 20.5534 78.6475 25.1238 78.6475 30.7616C78.6475 36.4007 74.0648 40.9724 68.412 40.9724C62.7592 40.9724 58.1765 36.402 58.1765 30.7629C58.1765 25.1252 62.7592 20.5534 68.412 20.5534ZM12.2712 14.2109V28.3792L17.8679 21.3265H25.1327L17.8296 30.5303L25.4543 40.1979H18.6397L12.2726 32.5747V40.1993H6.06836V14.2109H12.2712ZM47.0104 20.8613C48.1306 20.8613 49.2398 21.0819 50.2747 21.5107C51.3096 21.9394 52.2499 22.5677 53.0419 23.3599C53.834 24.152 54.4622 25.0925 54.8907 26.1274C55.3193 27.1624 55.5398 28.2716 55.5396 29.3918V40.1979H49.8019V29.3767C49.8004 28.6554 49.5197 27.9627 49.0188 27.4438C48.5178 26.9248 47.8353 26.6199 47.1145 26.593C46.3937 26.5662 45.6905 26.8193 45.1522 27.2995C44.6139 27.7797 44.2824 28.4496 44.2271 29.1688L44.2189 29.3767V40.1979H38.4813V29.3767C38.4847 28.6521 38.2062 27.9546 37.7047 27.4316C37.2032 26.9086 36.518 26.6011 35.7939 26.5741C35.0698 26.5471 34.3635 26.8027 33.8245 27.2869C33.2854 27.7711 32.9557 28.4459 32.9051 29.1688L32.8983 29.3767V40.1979H27.1593V29.3918C27.1591 27.7479 27.6339 26.139 28.5267 24.7587C29.4195 23.3784 30.6921 22.2855 32.1914 21.6115C33.6908 20.9375 35.353 20.7111 36.9779 20.9597C38.6029 21.2082 40.1214 21.921 41.3508 23.0124C42.9088 21.6243 44.9237 20.8576 47.0104 20.8613ZM90.5894 20.8613C93.0572 20.8613 95.424 21.8416 97.169 23.5867C98.914 25.3317 99.8944 27.6985 99.8944 30.1663V40.1979H94.1554V30.154C94.1555 29.2471 93.8102 28.3742 93.1897 27.7128C92.5693 27.0515 91.7202 26.6512 90.8152 26.5935L90.5894 26.5852C89.6823 26.5852 88.8092 26.9306 88.1478 27.5514C87.4864 28.1721 87.0863 29.0216 87.0288 29.9268L87.022 30.1526V40.1966L81.2844 40.1979V30.1677C81.2844 27.6998 82.2647 25.3331 84.0097 23.588C85.7548 21.843 88.1215 20.8613 90.5894 20.8613ZM68.412 26.2774C67.822 26.2765 67.2376 26.3918 66.6922 26.6169C66.1468 26.8419 65.6511 27.1722 65.2333 27.5889C64.8156 28.0056 64.4841 28.5005 64.2578 29.0453C64.0314 29.5902 63.9146 30.1743 63.9141 30.7643C63.9148 31.3542 64.0317 31.9381 64.2582 32.4828C64.4846 33.0275 64.8162 33.5223 65.2338 33.9388C65.6515 34.3554 66.1472 34.6855 66.6925 34.9105C67.2378 35.1354 67.8221 35.2508 68.412 35.2499C69.0019 35.2508 69.5861 35.1354 70.1314 34.9105C70.6768 34.6855 71.1724 34.3554 71.5901 33.9388C72.0078 33.5223 72.3393 33.0275 72.5658 32.4828C72.7922 31.9381 72.9091 31.3542 72.9099 30.7643C72.9093 30.1743 72.7925 29.5902 72.5662 29.0453C72.3398 28.5005 72.0083 28.0056 71.5906 27.5889C71.1729 27.1722 70.6772 26.8419 70.1318 26.6169C69.5864 26.3918 69.002 26.2765 68.412 26.2774ZM112.378 26.5866C111.29 26.5855 110.245 27.0168 109.475 27.7856C108.704 28.5544 108.27 29.5978 108.269 30.6863C108.27 31.7748 108.704 32.8182 109.475 33.587C110.245 34.3558 111.29 34.7871 112.378 34.786C113.467 34.7871 114.511 34.3558 115.282 33.587C116.052 32.8182 116.486 31.7748 116.487 30.6863C116.486 29.5978 116.052 28.5544 115.282 27.7856C114.511 27.0168 113.467 26.5855 112.378 26.5866Z" fill="#767676"/>
</g>
</svg>
