<svg width="155" height="64" viewBox="0 0 155 64" fill="none" xmlns="http://www.w3.org/2000/svg">
<g id="Frame 2085664440">
<path id="Vector" d="M7.05859 20.1055V44.0392H11.5693V35.1483H20.748V31.0457H11.5693V24.2106H22.5914V20.1055H7.05859Z" fill="#767676"/>
<path id="Vector_2" d="M32.384 27.7785L35.224 34.6354H29.5415L32.384 27.7785ZM31.0549 20.1055L21.1367 44.0405H25.6487L27.8426 38.7405H36.9241L39.1193 44.0405H43.63L33.7183 20.1055H31.0549Z" fill="#767676"/>
<path id="Vector_3" d="M132.242 20.1055V44.0392H147.78V39.9353H136.759V35.1483H145.939V31.0457H136.759V24.2106H147.78V20.1055H132.242Z" fill="#767676"/>
<path id="Vector_4" d="M104.909 20.1055H100.398V44.0392H104.909V20.1055Z" fill="#767676"/>
<path id="Vector_5" d="M61.332 20.1055V24.2106H67.8243V44.0392H72.3337V24.2106H78.8311V20.1055H61.332Z" fill="#767676"/>
<path id="Vector_6" d="M81.9336 20.1055V44.0392H86.4443V35.1483H95.623V31.0457H86.4443V24.2106H97.4664V20.1055H81.9336Z" fill="#767676"/>
<path id="Vector_7" d="M125.339 20.1055L118.603 36.3675L111.867 20.1055H107.352L117.27 44.0392H119.932L129.849 20.1055H125.339Z" fill="#767676"/>
<path id="Vector_8" d="M47.1448 37.6063C48.4484 39.1196 50.439 40.2505 52.5267 40.2505C54.4865 40.2505 55.8566 38.9789 55.8566 37.225C55.8566 34.1279 51.6159 33.7531 48.5508 31.8598C46.7585 30.7596 45.3232 29.1068 45.3232 26.3922C45.3232 22.0952 49.074 19.6211 52.8568 19.6211C55.1735 19.6211 57.3278 20.2057 59.4808 21.8905L57.1948 25.3305C56.2839 24.4337 54.7462 23.748 53.2495 23.748C51.5852 23.748 49.7264 24.504 49.7264 26.3603C49.7264 30.2454 60.265 29.0429 60.265 37.1547C60.265 41.421 56.6447 44.3774 52.5318 44.3774C49.4667 44.3774 46.6255 43.0367 44.2793 40.7661L47.15 37.6012L47.1448 37.6063Z" fill="#767676"/>
</g>
</svg>
