<svg width="230" height="64" viewBox="0 0 230 64" fill="none" xmlns="http://www.w3.org/2000/svg">
<g id="Frame">
<path id="Vector" d="M66.2521 20.7852H59.4656C59.2992 20.7856 59.1398 20.8518 59.0222 20.9695C58.9045 21.0871 58.8383 21.2465 58.8379 21.4129V33.859L51.2001 21.2797C50.9875 21.0087 50.5311 20.7852 50.1861 20.7852H42.3295C42.1632 20.7858 42.0039 20.8521 41.8863 20.9697C41.7687 21.0873 41.7024 21.2466 41.7018 21.4129V42.5855C41.7018 42.9313 41.9853 43.2132 42.3295 43.2132H49.1168C49.2831 43.2128 49.4426 43.1465 49.5602 43.0289C49.6778 42.9113 49.7441 42.7519 49.7445 42.5855V30.1994L57.3355 42.7187C57.5482 42.9913 58.0045 43.2132 58.3495 43.2132H66.2529C66.4192 43.2128 66.5786 43.1465 66.6963 43.0289C66.8139 42.9113 66.8802 42.7519 66.8806 42.5855V21.4129C66.8802 21.2464 66.8138 21.0868 66.696 20.9692C66.5782 20.8515 66.4186 20.7854 66.2521 20.7852ZM38.4542 42.5855C38.4535 42.7518 38.3872 42.9111 38.2696 43.0287C38.152 43.1463 37.9927 43.2126 37.8264 43.2132H31.0391C30.8728 43.2128 30.7134 43.1465 30.5957 43.0289C30.4781 42.9113 30.4118 42.7519 30.4114 42.5855V21.4129C30.4114 21.0686 30.6941 20.7852 31.0391 20.7852H37.8264C37.9927 20.786 38.1519 20.8524 38.2694 20.9699C38.3869 21.0875 38.4533 21.2466 38.4542 21.4129V42.5855ZM15.1554 36.6253C15.0701 36.6253 14.9883 36.5914 14.928 36.5311C14.8676 36.4708 14.8337 36.389 14.8337 36.3037V21.4129C14.8333 21.2465 14.7671 21.0871 14.6494 20.9695C14.5318 20.8518 14.3724 20.7856 14.206 20.7852H7.42029C7.25379 20.7856 7.09421 20.8518 6.97633 20.9694C6.85845 21.087 6.79184 21.2464 6.79102 21.4129V42.5855C6.79184 42.752 6.85845 42.9114 6.97633 43.029C7.09421 43.1466 7.25379 43.2128 7.42029 43.2132H26.5361C26.7024 43.2126 26.8617 43.1463 26.9793 43.0287C27.0969 42.9111 27.1632 42.7518 27.1638 42.5855V37.253C27.1632 37.0867 27.0969 36.9274 26.9793 36.8098C26.8617 36.6922 26.7024 36.6259 26.5361 36.6253H15.1554ZM78.4918 36.9392C78.4066 36.939 78.3249 36.905 78.2646 36.8447C78.2043 36.7844 78.1704 36.7028 78.1702 36.6175V34.9625C78.1702 34.7858 78.3142 34.6417 78.4918 34.6417H88.5672C88.7337 34.6413 88.8933 34.5751 89.0112 34.4575C89.1291 34.3399 89.1957 34.1805 89.1965 34.014V29.986C89.1957 29.8195 89.1291 29.6601 89.0112 29.5425C88.8933 29.4249 88.7337 29.3587 88.5672 29.3583H78.4918C78.4064 29.358 78.3246 29.324 78.2643 29.2635C78.204 29.2031 78.1702 29.1212 78.1702 29.0358V27.3816C78.1702 27.2049 78.3142 27.0608 78.4918 27.0608H89.4769C89.6432 27.0602 89.8025 26.9938 89.9201 26.8762C90.0376 26.7587 90.104 26.5994 90.1046 26.4331V21.4129C90.104 21.2466 90.0376 21.0873 89.9201 20.9697C89.8025 20.8521 89.6432 20.7858 89.4769 20.7852H70.7559C70.5896 20.7858 70.4303 20.8521 70.3127 20.9697C70.1952 21.0873 70.1288 21.2466 70.1282 21.4129V42.5855C70.1282 42.9313 70.4109 43.2132 70.7559 43.2132H89.4769C89.6432 43.2128 89.8027 43.1465 89.9203 43.0289C90.0379 42.9113 90.1042 42.7519 90.1046 42.5855V37.5669C90.1042 37.4005 90.0379 37.2411 89.9203 37.1235C89.8027 37.0058 89.6432 36.9396 89.4769 36.9392H78.4918ZM176.462 20.7852H169.334C168.988 20.7852 168.541 21.0141 168.338 21.2937L163.657 28.9704C163.456 29.25 163.123 29.25 162.921 28.9704L158.242 21.2937C158.04 21.0133 157.591 20.7852 157.245 20.7852H149.982C149.815 20.7856 149.656 20.8518 149.538 20.9695C149.421 21.0871 149.354 21.2465 149.354 21.4129V42.5855C149.354 42.9313 149.636 43.2132 149.982 43.2132H156.763C156.93 43.2126 157.089 43.1463 157.207 43.0287C157.324 42.9111 157.39 42.7518 157.391 42.5855V32.5233L161.203 39.0007C161.404 39.281 161.853 39.51 162.198 39.51H164.381C164.727 39.51 165.175 39.281 165.378 39.0007L169.048 32.7157V42.5855C169.048 42.9313 169.331 43.2132 169.677 43.2132H176.463C176.629 43.2128 176.788 43.1465 176.906 43.0289C177.024 42.9113 177.09 42.7519 177.09 42.5855V21.4129C177.09 21.2465 177.024 21.0871 176.906 20.9695C176.788 20.8518 176.628 20.7856 176.462 20.7852ZM104.695 43.2132C104.122 43.2132 103.724 43.0676 103.216 42.5598L99.789 39.1331L99.7898 39.1323C99.3848 38.7273 99.2073 38.3426 99.2073 37.6229V26.3754C99.2073 25.6574 99.3841 25.2734 99.7898 24.8677L103.217 21.4401C103.723 20.9308 104.121 20.7852 104.695 20.7852H119.522C119.867 20.7852 120.149 21.0671 120.149 21.4129V26.8349C120.149 27.0013 120.083 27.1607 119.965 27.2783C119.847 27.396 119.688 27.4622 119.522 27.4626H108.746C108.348 27.4626 108.164 27.5569 107.987 27.7087C107.81 27.8605 107.646 28.0255 107.495 28.2025C107.354 28.3645 107.249 28.56 107.249 28.8084V35.1907C107.249 35.4392 107.354 35.6347 107.495 35.7966C107.65 35.9734 107.804 36.1354 107.987 36.2912C108.164 36.4423 108.348 36.5357 108.746 36.5357H111.899C111.984 36.5357 112.066 36.502 112.126 36.4418C112.186 36.3816 112.22 36.3 112.22 36.2149V31.9992C112.22 31.655 112.502 31.3715 112.848 31.3715H119.522C119.867 31.3715 120.149 31.655 120.149 31.9992V42.5855C120.149 42.7519 120.083 42.9113 119.965 43.0289C119.847 43.1465 119.688 43.2128 119.522 43.2132H104.695ZM131.383 31.6783C131.383 31.8559 131.526 31.9992 131.705 31.9992H137.757C137.842 31.9992 137.923 31.9654 137.984 31.9052C138.044 31.845 138.077 31.7634 138.077 31.6783V27.7843C138.077 27.6991 138.044 27.6174 137.984 27.5571C137.923 27.4968 137.842 27.4628 137.757 27.4626H132.881C132.482 27.4626 132.297 27.5569 132.12 27.7087C131.944 27.8608 131.78 28.0258 131.628 28.2025C131.488 28.3645 131.383 28.56 131.383 28.8084V31.6783ZM145.493 20.7852C145.838 20.7852 146.12 21.0671 146.12 21.4129V42.5855C146.12 42.7519 146.054 42.9113 145.936 43.0289C145.818 43.1465 145.659 43.2128 145.493 43.2132H138.707C138.54 43.2128 138.381 43.1466 138.263 43.029C138.145 42.9114 138.078 42.752 138.077 42.5855V38.0069C138.077 37.9218 138.044 37.8402 137.984 37.78C137.923 37.7198 137.842 37.686 137.757 37.686H131.705C131.663 37.6859 131.621 37.6941 131.582 37.7102C131.543 37.7263 131.508 37.7499 131.478 37.7797C131.448 37.8095 131.424 37.8449 131.408 37.8839C131.391 37.9229 131.383 37.9647 131.383 38.0069V42.5863C131.382 42.7525 131.316 42.9117 131.198 43.0292C131.081 43.1466 130.921 43.2128 130.755 43.2132H124.011C123.844 43.2126 123.685 43.1463 123.568 43.0287C123.45 42.9111 123.384 42.7518 123.383 42.5855V26.3754C123.383 25.6574 123.561 25.2734 123.967 24.8677L123.966 24.8653L127.393 21.4401C127.9 20.9308 128.299 20.7852 128.872 20.7852H145.493ZM203.535 34.2141C203.535 34.5599 203.817 34.8426 204.162 34.8426H215.147C215.326 34.8426 215.469 34.9875 215.469 35.1643V36.2156C215.469 36.3008 215.434 36.3823 215.374 36.4424C215.314 36.5024 215.232 36.5359 215.147 36.5357H204.162C203.996 36.5364 203.837 36.6027 203.719 36.7203C203.602 36.8379 203.535 36.9972 203.535 37.1635V42.5855C203.535 42.9313 203.817 43.2132 204.162 43.2132H218.023C218.596 43.2132 218.995 43.0676 219.502 42.5598L222.929 39.1331C223.334 38.7281 223.513 38.3426 223.513 37.6229V29.7843C223.513 29.6178 223.447 29.4582 223.329 29.3406C223.211 29.2229 223.051 29.1567 222.885 29.1565H211.899C211.814 29.1563 211.732 29.1223 211.671 29.0618C211.611 29.0014 211.577 28.9195 211.577 28.8341V27.7835C211.577 27.6067 211.722 27.4626 211.899 27.4626H222.885C223.051 27.4622 223.211 27.396 223.328 27.2783C223.446 27.1607 223.512 27.0013 223.513 26.8349V21.4129C223.512 21.2465 223.446 21.0871 223.328 20.9695C223.211 20.8518 223.051 20.7856 222.885 20.7852H209.023C208.45 20.7852 208.052 20.9308 207.544 21.4394L204.117 24.8661L204.118 24.8677C203.713 25.2734 203.535 25.6574 203.535 26.3754L203.535 34.2141ZM188.687 36.9392C188.602 36.9389 188.521 36.905 188.461 36.8447C188.4 36.7844 188.367 36.7027 188.367 36.6175V34.9625C188.367 34.7858 188.511 34.6417 188.687 34.6417H198.764C198.931 34.6413 199.09 34.575 199.208 34.4574C199.325 34.3397 199.392 34.1803 199.392 34.014V29.986C199.392 29.8196 199.325 29.6602 199.208 29.5426C199.09 29.4249 198.931 29.3587 198.764 29.3583H188.687C188.645 29.3582 188.603 29.3497 188.564 29.3335C188.525 29.3172 188.49 29.2934 188.46 29.2635C188.43 29.2336 188.407 29.198 188.391 29.159C188.375 29.1199 188.366 29.0781 188.367 29.0358V27.3816C188.367 27.2049 188.511 27.0608 188.687 27.0608H199.673C199.84 27.0602 199.999 26.9938 200.116 26.8762C200.234 26.7587 200.3 26.5994 200.301 26.4331V21.4129C200.3 21.2466 200.234 21.0873 200.116 20.9697C199.999 20.8521 199.84 20.7858 199.673 20.7852H180.952C180.785 20.7858 180.626 20.8521 180.508 20.9697C180.391 21.0873 180.324 21.2466 180.324 21.4129V42.5855C180.324 42.9313 180.607 43.2132 180.952 43.2132H199.673C199.84 43.2128 199.999 43.1465 200.117 43.0289C200.234 42.9113 200.301 42.7519 200.301 42.5855V37.5669C200.301 37.4005 200.234 37.2411 200.117 37.1235C199.999 37.0058 199.84 36.9396 199.673 36.9392H188.687Z" fill="#767676"/>
</g>
</svg>
