<svg width="194" height="64" viewBox="0 0 194 64" fill="none" xmlns="http://www.w3.org/2000/svg">
<g id="SM&#236;&#151;&#148;&#237;&#132;&#176;&#237;&#133;&#140;&#236;&#157;&#184;&#235;&#168;&#188;&#237;&#138;&#184;_CI_combination_&#236;&#162;&#140;&#236;&#154;&#176;&#236;&#161;&#176;&#237;&#149;&#169;_white 2">
<g id="Group">
<g id="Group_2">
<path id="Vector" d="M78.3849 24.2094C77.8567 24.2094 77.3579 24.1508 76.8592 24.0334C76.3897 23.916 75.9789 23.74 75.6562 23.564C75.3335 23.3586 75.0694 23.2119 74.864 23.0358C74.6586 22.8598 74.5119 22.7424 74.3652 22.5957L75.3335 21.5688C76.1843 22.3903 77.1526 22.8011 78.2968 22.8011C78.9717 22.8011 79.4704 22.6838 79.7638 22.4784C80.0573 22.273 80.2333 21.9796 80.2333 21.6275C80.2333 21.5395 80.2333 21.4515 80.204 21.3634C80.1746 21.2754 80.1453 21.2167 80.0866 21.1287C80.0279 21.0407 79.9986 21.0114 79.9692 20.9527C79.9399 20.894 79.8519 20.8353 79.7638 20.806C79.6758 20.7473 79.5878 20.7179 79.5585 20.6886C79.4998 20.6593 79.4411 20.6299 79.2944 20.6006C79.177 20.5712 79.089 20.5419 79.0597 20.5126C79.0303 20.4832 78.9423 20.4832 78.7956 20.4539C78.6489 20.4245 78.5609 20.3952 78.5316 20.3952C78.3555 20.3365 78.1208 20.2778 77.7687 20.2192C77.446 20.1605 77.1526 20.0725 76.9178 20.0138C76.6831 19.9551 76.4484 19.8671 76.2137 19.7497C75.2161 19.339 74.7173 18.6935 74.7173 17.7546C74.7173 17.2558 74.8934 16.8157 75.2161 16.4343C75.5388 16.0528 75.9789 15.7888 76.4777 15.5834C76.9765 15.4074 77.534 15.3193 78.0915 15.3193C78.7369 15.3193 79.3824 15.4367 79.9986 15.6421C80.6147 15.8475 81.1428 16.1409 81.5243 16.4929L80.7614 17.6079C79.9399 16.9917 79.0597 16.6983 78.0621 16.6983C77.534 16.6983 77.0939 16.7864 76.7418 16.9624C76.3897 17.1384 76.2137 17.3732 76.2137 17.7252C76.2137 18.0186 76.3604 18.2534 76.6244 18.4294C76.8885 18.6054 77.4166 18.7522 78.1501 18.9282C79.2064 19.1629 79.9399 19.3976 80.4093 19.6324C81.2602 20.1018 81.7003 20.7766 81.7003 21.6568C81.7003 22.0969 81.5829 22.4784 81.3776 22.8305C81.1722 23.1825 80.9081 23.4466 80.556 23.6226C80.204 23.828 79.8519 23.9747 79.4704 24.0627C79.089 24.1508 78.7956 24.2094 78.3849 24.2094Z" fill="#767676"/>
<path id="Vector_2" d="M91.0008 15.4668H92.4385V24.0635H90.9421V18.0487L88.1255 21.8336L85.3382 18.0194V24.0342H83.8418V15.4668H85.2208L88.1255 19.4571L91.0008 15.4668Z" fill="#767676"/>
<path id="Vector_3" d="M74.9531 38.792V30.1953H81.5253V31.6036H76.4788V33.5694H80.2344V34.9778H76.4788V37.413H81.6134V38.8214L74.9531 38.792Z" fill="#767676"/>
<path id="Vector_4" d="M83.6367 38.792V30.1953H85.0157L89.7102 36.2101V30.1953H91.2065V38.7627H89.8275L85.1331 32.7479V38.792H83.6367Z" fill="#767676"/>
<path id="Vector_5" d="M95.7833 38.792V31.6036H93.0547V30.1953H100.096V31.6036H97.3384V38.792H95.7833Z" fill="#767676"/>
<path id="Vector_6" d="M101.887 38.792V30.1953H108.459V31.6036H103.412V33.5694H107.168V34.9778H103.412V37.413H108.518V38.8214L101.887 38.792Z" fill="#767676"/>
<path id="Vector_7" d="M110.543 38.792V30.1953H115.003C115.443 30.1953 115.854 30.2833 116.176 30.43C116.499 30.5767 116.763 30.7821 116.968 31.0462C117.145 31.3102 117.291 31.5743 117.379 31.8677C117.467 32.1611 117.526 32.4545 117.526 32.7773C117.526 33.3347 117.379 33.8335 117.115 34.303C116.851 34.7724 116.411 35.0951 115.824 35.2418L117.995 38.792H116.294L114.269 35.3885H112.098V38.792H110.543ZM112.069 33.9802H114.856C115.208 33.9802 115.501 33.8628 115.707 33.6575C115.883 33.4521 116 33.1587 116 32.7773C116 32.4252 115.912 32.1318 115.736 31.9264C115.56 31.721 115.296 31.6036 114.944 31.6036H112.098V33.9802H112.069Z" fill="#767676"/>
<path id="Vector_8" d="M121.426 38.792V31.6036H118.668V30.1953H125.71V31.6036H122.981V38.792H121.426Z" fill="#767676"/>
<path id="Vector_9" d="M125.652 38.7921L129.731 30.166H131.051L135.129 38.7921H133.516L132.606 36.7969H128.176L127.237 38.7921H125.652ZM128.792 35.4179H131.961L130.405 32.0438L128.792 35.4179Z" fill="#767676"/>
<path id="Vector_10" d="M136.684 38.792V30.1953H138.209V38.7627C138.209 38.792 136.684 38.792 136.684 38.792Z" fill="#767676"/>
<path id="Vector_11" d="M140.732 38.792V30.1953H142.111L146.806 36.2101V30.1953H148.302V38.7627H146.923L142.199 32.7186V38.7627C142.229 38.792 140.732 38.792 140.732 38.792Z" fill="#767676"/>
<path id="Vector_12" d="M157.956 30.1953H159.394V38.7627H157.868V32.8066L155.081 36.5915L152.293 32.7773V38.792H150.797V30.1953H152.176L155.081 34.1856L157.956 30.1953Z" fill="#767676"/>
<path id="Vector_13" d="M161.828 38.792V30.1953H168.4V31.6036H163.354V33.5694H167.109V34.9778H163.354V37.413H168.459V38.8214L161.828 38.792Z" fill="#767676"/>
<path id="Vector_14" d="M170.484 38.792V30.1953H171.863L176.558 36.2101V30.1953H178.054V38.7627H176.675L171.981 32.7479V38.792H170.484Z" fill="#767676"/>
<path id="Vector_15" d="M182.66 38.792V31.6036H179.902V30.1953H186.944V31.6036H184.186V38.792H182.66Z" fill="#767676"/>
</g>
</g>
<g id="Group_3">
<path id="Vector_16" d="M56.2911 36.1804C56.2911 38.4396 58.1102 40.2587 60.3694 40.2587C62.6286 40.2587 64.4477 38.4396 64.4477 36.1804V20.1606C64.4477 17.4026 62.2179 15.1728 59.4599 15.1728C58.609 15.1728 57.7875 15.3781 57.0833 15.7889C56.6432 13.7938 54.8535 12.2974 52.7116 12.2974C51.5087 12.2974 50.3937 12.7669 49.5429 13.6177L39.1271 23.9749L29.2687 14.2632C26.5694 11.5933 22.227 11.5933 19.5277 14.2632C19.1757 14.6153 18.8823 14.9674 18.6182 15.3781C16.7698 15.3781 15.0387 16.0823 13.7477 17.4026C11.0777 20.0726 11.0777 24.4443 13.7477 27.1436L27.2736 40.6695C28.4179 41.8138 29.034 43.3101 29.034 44.9238C29.034 46.0681 28.7113 47.183 28.0951 48.1513C26.9802 47.9165 25.8946 47.3884 25.0144 46.5082L13.513 34.9188C12.8382 34.244 11.9286 33.8625 10.9897 33.8625C10.0508 33.8625 9.11194 34.244 8.43711 34.9188C7.76228 35.5936 7.38086 36.5032 7.38086 37.4714C7.38086 38.4396 7.76228 39.3198 8.43711 40.024L18.1781 49.765C19.4691 51.056 21.2001 51.7895 23.0486 51.7895C24.897 51.7895 26.6281 51.0853 27.9191 49.765C28.1538 49.5303 28.3298 49.3249 28.5352 49.0901C28.7993 49.1195 29.034 49.1195 29.2981 49.1195C31.1465 49.1195 32.8776 48.4153 34.1686 47.095C35.4595 45.7747 36.193 44.073 36.193 42.2245C36.193 40.3761 35.4889 38.645 34.1686 37.354L20.1732 23.3587C18.2368 21.4516 17.8847 18.5469 19.117 16.2584C20.5253 16.3757 21.8456 16.9919 22.8725 17.9894L31.5866 26.7035C33.259 28.3759 35.9876 28.3759 37.66 26.7035L39.1271 25.2365L40.33 26.4394C42.2665 28.3759 45.4352 28.3759 47.3717 26.4394L56.2911 17.52V36.1804ZM57.1713 16.7571C57.8462 16.2877 58.6384 16.053 59.4599 16.053C61.7191 16.053 63.5675 17.9014 63.5675 20.1606V36.1804C63.5675 37.9408 62.1299 39.3785 60.3694 39.3785C58.609 39.3785 57.1713 37.9408 57.1713 36.1804V16.7571ZM27.3029 49.1195C24.9557 51.4667 21.1415 51.4667 18.8236 49.1195L9.05326 39.3785C8.55447 38.8797 8.26107 38.1756 8.26107 37.4714C8.26107 36.7672 8.55447 36.0631 9.05326 35.5643C9.55204 35.0655 10.2562 34.7721 10.9604 34.7721C11.6645 34.7721 12.3687 35.0655 12.8675 35.5643L24.3982 47.095C25.2784 47.9752 26.3347 48.5914 27.5083 48.8848C27.4496 48.9728 27.3909 49.0608 27.3029 49.1195ZM19.5277 23.9749L33.5231 37.9702C35.8703 40.3174 35.8703 44.1316 33.5231 46.4495C32.2908 47.6818 30.6771 48.2686 29.0633 48.2099C29.6208 47.2124 29.9142 46.0681 29.9142 44.8945C29.9142 43.0461 29.21 41.315 27.8897 40.024L14.3932 26.4981C13.2489 25.3538 12.6328 23.8575 12.6328 22.2438C12.6328 20.6301 13.2489 19.1337 14.3932 17.9894C15.4201 16.9625 16.7404 16.3757 18.1487 16.2584C16.9751 18.811 17.4446 21.8917 19.5277 23.9749ZM37.0146 26.0874C35.6942 27.4077 33.5231 27.4077 32.2027 26.0874L23.4887 17.3733C22.4324 16.317 21.1121 15.6422 19.6744 15.4368C19.8211 15.2314 19.9972 15.0554 20.1732 14.8794C22.5205 12.5321 26.3347 12.5321 28.6526 14.8794L38.5109 24.6203L37.0146 26.0874ZM55.9391 16.6398L46.7849 25.794C45.1712 27.4077 42.5892 27.4077 40.9755 25.794L39.7725 24.591L50.159 14.2045C50.8338 13.5297 51.7434 13.1483 52.7116 13.1483C54.5601 13.1483 56.0564 14.5273 56.2911 16.317C56.1444 16.4051 56.0271 16.5224 55.9391 16.6398Z" fill="#767676"/>
<path id="Vector_17" d="M60.3991 42.5762C57.9638 42.5762 55.998 44.542 55.998 46.9772C55.998 49.4125 57.9638 51.3783 60.3991 51.3783C62.8343 51.3783 64.8001 49.4125 64.8001 46.9772C64.8001 44.542 62.8343 42.5762 60.3991 42.5762ZM60.3991 50.4687C58.4626 50.4687 56.8783 48.8843 56.8783 46.9479C56.8783 45.0114 58.4626 43.427 60.3991 43.427C62.3356 43.427 63.9199 45.0114 63.9199 46.9479C63.9199 48.8843 62.3356 50.4687 60.3991 50.4687Z" fill="#767676"/>
</g>
</g>
</svg>
