<svg width="162" height="64" viewBox="0 0 162 64" fill="none" xmlns="http://www.w3.org/2000/svg">
<g id="&#236;&#139;&#160;&#237;&#149;&#156;&#236;&#157;&#128;&#237;&#150;&#137;">
<path id="Vector" d="M48.6544 31.2041C48.6671 31.4658 48.6746 31.7259 48.6762 31.9851V31.9993C48.6762 40.2741 43.0581 47.237 35.4265 49.2797C34.1742 49.6124 32.8897 49.8095 31.5952 49.8675C31.2054 49.8852 30.8173 49.8902 30.4317 49.8835C21.3797 49.7062 13.9765 42.8044 13.0094 33.9668C12.9682 33.584 12.9398 33.2 12.9242 32.8154C12.9114 32.5561 12.9042 32.2965 12.9023 32.0369V31.9993C12.9023 22.1231 20.9095 14.1143 30.7888 14.1143C39.2143 14.1143 46.277 19.9383 48.1752 27.7774C48.445 28.9015 48.6055 30.0491 48.6544 31.2041ZM40.2299 23.0238C39.1833 22.7345 38.4096 22.4861 38.1812 22.0053C38.0733 21.7778 38.1394 21.5488 38.2883 21.4417C38.4497 21.3237 38.6672 21.3631 38.9207 21.4869C39.2955 21.6683 39.7539 21.9376 40.1061 21.981C41.1316 22.1048 40.9442 20.5362 39.1014 19.6255C38.0173 19.087 36.9565 18.8663 35.5194 18.9197C34.9874 18.9416 34.4855 18.9223 34.0404 18.852C33.3687 18.7484 32.5456 18.4632 31.991 18.3479C31.5669 18.2583 31.325 18.2701 31.2238 18.4114C31.1302 18.5452 31.1603 18.7426 31.4188 19.0695C31.9375 19.7233 32.7547 20.4508 32.3364 22.1525C31.3017 26.3709 32.7187 28.3017 34.1626 28.6186C34.9715 28.7984 35.7168 28.6086 36.1719 28.1362C36.6044 27.6838 36.7909 26.9186 36.3744 26.2707C35.7369 25.2781 35.5119 24.4152 36.0815 24.0564C36.6019 23.7279 37.3413 24.0305 37.9035 25.2881C38.8027 27.3033 39.973 27.8376 41.1434 26.4044C42.1019 25.2304 42.0644 23.5305 40.2299 23.0238ZM36.9733 34.0345C32.1223 31.128 29.7165 29.9782 27.7531 28.5768C24.4999 26.2573 23.9855 24.5289 23.8859 23.3265C23.7086 21.1741 25.3373 19.2367 26.9952 18.3235C27.1233 18.2458 27.3424 18.0669 27.247 17.8219C27.1508 17.5744 26.8539 17.6221 26.7426 17.6463C23.0343 18.4331 19.4306 21.6984 19.9902 26.0575C20.2135 27.784 21.3119 30.6998 26.9994 34.0488C28.9393 35.1902 30.614 36.0556 33.2433 37.5607C36.8035 39.596 38.4422 42.2182 36.2371 45.0787C36.0698 45.2786 35.9259 45.4859 35.9861 45.6666C36.054 45.8756 36.3292 45.9116 36.586 45.7962C38.2783 45.0169 39.6761 43.8471 40.342 42.7626C41.514 40.8528 42.0978 37.1075 36.9733 34.0345ZM31.2992 45.6407C30.8692 45.5169 30.2167 45.3146 29.673 45.0771C28.987 44.7778 28.3672 44.4492 28.0936 44.1782C27.9145 43.9984 27.887 43.7952 28.0301 43.5862C28.8499 42.408 29.0807 41.9414 29.3099 41.3871C29.7967 40.213 29.3157 40.0994 28.5603 40.3168C27.7389 40.5517 27.0889 40.7917 26.5854 40.9807C25.8794 41.2441 25.4427 41.4054 25.1859 41.28C24.9182 41.1504 24.8688 40.6855 24.7726 39.9146C24.7048 39.3661 24.5894 38.7405 24.4422 38.1301C24.1386 36.9069 23.6149 37.1418 23.1824 37.6419C22.6437 38.2957 22.3467 39.1052 22.1233 39.5299C22.0037 39.7573 21.8666 39.8327 21.6993 39.7966C21.3262 39.7172 20.8335 39.1394 20.2956 38.4529C19.51 37.4487 19.1596 36.6768 18.7505 36.6292C17.8813 36.528 18.2678 38.5834 19.0834 40.2774C19.879 41.9356 21.1129 43.5678 23.1799 44.8739C25.538 46.3665 29.023 46.9084 31.1636 46.6073C31.8396 46.512 31.9733 45.8347 31.2992 45.6407Z" fill="#767676"/>
<path id="Vector_2" d="M55.2444 33.4875C55.4972 33.4618 55.8006 33.3822 56.16 33.2438C56.518 33.1045 56.8961 32.9251 57.295 32.7069C57.6891 32.4884 58.0756 32.2562 58.4537 32.0109C59.7716 31.1321 60.8776 30.0587 61.771 28.7886C62.1464 29.3107 62.6062 29.8018 63.1533 30.2657C63.694 30.7269 64.2681 31.1475 64.8708 31.5241C65.9311 32.1737 66.7553 32.5643 67.3487 32.6938C67.9443 32.824 68.3204 32.7423 68.4832 32.4487L69.5345 30.4736C68.8191 30.229 68.1051 29.9298 67.3958 29.569C66.6894 29.2131 66.0565 28.7886 65.4927 28.3017C64.9339 27.8127 64.474 27.2477 64.1166 26.6049C63.7565 25.9615 63.5779 25.2428 63.5779 24.4456V21.1996H59.3568C59.1774 21.1996 59.0549 21.2744 58.9904 21.4192C58.9247 21.566 58.9661 21.7287 59.1109 21.9061C59.3408 22.1685 59.4821 22.424 59.5389 22.6761C59.597 22.9275 59.6241 23.2586 59.6241 23.6651V24.6879C59.6241 25.4692 59.4668 26.1859 59.1497 26.8383C58.8318 27.4886 58.3969 28.0821 57.8435 28.6189C57.2888 29.1569 56.6517 29.6403 55.9273 30.0691C55.2042 30.502 54.4342 30.8717 53.6211 31.1813L54.743 33.304C54.8254 33.4508 54.9902 33.5117 55.2444 33.4875ZM61.8704 40.321C61.6251 40.134 61.5025 39.7559 61.5025 39.1852V34.7439H57.3549C57.1735 34.7439 57.0529 34.8167 56.9899 34.9634C56.9234 35.1102 56.9636 35.271 57.1124 35.4489C57.3403 35.7307 57.4823 35.9842 57.5384 36.2197C57.5945 36.458 57.6249 36.7855 57.6249 37.2093V39.553C57.6249 40.2988 57.7219 40.9201 57.9166 41.4055C58.1125 41.8945 58.4117 42.2844 58.8203 42.578C59.2275 42.8717 59.7311 43.0739 60.3336 43.1881C60.9347 43.3018 61.6418 43.3598 62.4542 43.3598H75.634V40.6022H63.0663C62.5109 40.6022 62.1141 40.5073 61.8704 40.321ZM75.2685 35.9899V20.8064H71.0958C70.9165 20.8064 70.7905 20.8792 70.717 21.0149C70.6437 21.1548 70.6803 21.314 70.8265 21.4935C71.0543 21.7539 71.2122 22.0115 71.303 22.2719C71.3915 22.533 71.4379 22.8751 71.4379 23.2969V35.9899H75.2685ZM81.7851 41.4058C81.979 41.8968 82.2817 42.2861 82.6861 42.5789C83.0947 42.8712 83.5996 43.0721 84.2001 43.1891C84.8026 43.304 85.511 43.3622 86.3241 43.3622H99.31V40.6024H86.9834C86.4134 40.6024 86.002 40.5013 85.7514 40.3102C85.4986 40.1148 85.3733 39.7229 85.3733 39.1364V35.7186H81.2249C81.0434 35.7186 80.9222 35.7948 80.8571 35.9416C80.7927 36.0856 80.8329 36.2476 80.979 36.4278C81.1584 36.6404 81.2893 36.8433 81.3696 37.0393C81.4514 37.2332 81.4928 37.4534 81.4928 37.6972V39.5283C81.4928 40.2914 81.5885 40.9168 81.7851 41.4058ZM83.5675 26.483C84.0205 25.9212 84.6818 25.6387 85.5447 25.6387C86.3904 25.6387 87.0435 25.9212 87.5081 26.483C87.9728 27.0453 88.2062 27.7399 88.2062 28.5703C88.2062 29.3501 87.9728 30.0219 87.5081 30.5814C87.0435 31.1458 86.3904 31.4243 85.5447 31.4243C84.6818 31.4243 84.0205 31.1458 83.5675 30.5814C83.1097 30.0219 82.8847 29.3501 82.8847 28.5703C82.8847 27.7399 83.1097 27.0453 83.5675 26.483ZM79.5279 26.958C79.3257 27.4795 79.2218 28.0571 79.2218 28.6908C79.2218 29.4567 79.3638 30.1694 79.6512 30.8265C79.9344 31.4859 80.3452 32.0614 80.8784 32.5489C81.4165 33.0358 82.0765 33.4188 82.8584 33.6958C83.6395 33.9728 84.5323 34.1113 85.5447 34.1113C86.5524 34.1113 87.4534 33.9728 88.2394 33.6958C89.0296 33.4188 89.6904 33.0358 90.2278 32.5489C90.7645 32.0614 91.1724 31.4859 91.4488 30.8265C91.7251 30.1694 91.8629 29.4567 91.8629 28.6908C91.8629 28.073 91.7534 27.4996 91.5354 26.9704C91.319 26.4481 91.0168 25.9657 90.6412 25.5431H93.2071V22.8588H87.6667V20.1253H83.4935C83.312 20.1253 83.1874 20.1946 83.1132 20.3324C83.0412 20.4716 83.0855 20.6309 83.2476 20.8088C83.4768 21.0859 83.6195 21.3504 83.677 21.6025C83.7337 21.854 83.7621 22.1904 83.7621 22.6143V22.8588H77.8332V25.5431H80.3936C80.021 25.967 79.7301 26.4379 79.5279 26.958ZM99.0149 20.8089H94.8416C94.6623 20.8089 94.5363 20.8775 94.4628 21.0166C94.3888 21.1545 94.433 21.3125 94.5999 21.4931C94.8264 21.7688 94.9788 22.0334 95.0626 22.2848C95.1401 22.5361 95.1859 22.8748 95.1859 23.2972V36.329H99.0149V29.2053H101.795V26.447H99.0149V20.8089ZM118.076 27.4229C117.293 27.8468 115.976 28.0587 114.123 28.0587C112.265 28.0587 110.95 27.8468 110.167 27.4229C109.386 26.9999 108.995 26.4056 108.995 25.641C108.995 24.8931 109.386 24.2954 110.167 23.848C110.95 23.4 112.265 23.1756 114.123 23.1756C115.976 23.1756 117.293 23.4 118.076 23.848C118.855 24.2954 119.245 24.8931 119.245 25.641C119.245 26.4056 118.855 26.9999 118.076 27.4229ZM120.894 21.9678C120.152 21.5204 119.221 21.1762 118.101 20.9303C116.979 20.6873 115.652 20.566 114.123 20.566C112.59 20.566 111.267 20.6873 110.142 20.9303C109.022 21.1762 108.094 21.5204 107.36 21.9678C106.629 22.4165 106.082 22.9532 105.725 23.5779C105.367 24.2061 105.191 24.8931 105.191 25.641C105.191 26.373 105.367 27.0483 105.725 27.6681C106.082 28.2852 106.629 28.8171 107.36 29.2652C108.094 29.7126 109.022 30.0636 110.142 30.3151C111.267 30.5679 112.59 30.6925 114.123 30.6925C115.652 30.6925 116.979 30.5679 118.101 30.3151C119.221 30.0636 120.152 29.7126 120.894 29.2652C121.632 28.8171 122.186 28.2852 122.541 27.6681C122.898 27.0483 123.078 26.373 123.078 25.641C123.078 24.8931 122.898 24.2061 122.541 23.5779C122.186 22.9532 121.632 22.4165 120.894 21.9678ZM123.396 40.6024H110.413C110.007 40.6024 109.718 40.5435 109.547 40.4313C109.375 40.3178 109.29 40.0394 109.29 39.6023V35.9887H105.141C104.963 35.9887 104.841 36.0613 104.776 36.2095C104.71 36.3542 104.749 36.5177 104.896 36.6963C105.077 36.9084 105.206 37.1133 105.288 37.3065C105.37 37.5018 105.409 37.722 105.409 37.9637V40.2596C105.409 40.878 105.491 41.3877 105.664 41.7846C105.837 42.1821 106.096 42.5013 106.447 42.7368C106.795 42.9729 107.245 43.1351 107.79 43.2264C108.334 43.3164 108.972 43.3594 109.704 43.3594H123.396V40.6024ZM125.739 31.8644H102.481V34.5231H125.739V31.8644ZM131.351 27.0936C131.435 26.775 131.566 26.4904 131.755 26.2383C131.941 25.9875 132.183 25.783 132.462 25.6407C132.748 25.4939 133.082 25.4219 133.475 25.4219C133.865 25.4219 134.202 25.4939 134.488 25.6407C134.77 25.7874 135.008 25.9869 135.196 26.2383C135.385 26.4939 135.521 26.7847 135.597 27.0936C135.679 27.4168 135.72 27.7491 135.72 28.0826C135.72 28.4067 135.678 28.7253 135.597 29.0334C135.521 29.334 135.384 29.6161 135.196 29.8625C135.008 30.1076 134.77 30.3035 134.488 30.449C134.202 30.5945 133.865 30.6692 133.475 30.6692C133.082 30.6692 132.748 30.5945 132.462 30.449C132.178 30.3035 131.942 30.1076 131.755 29.8625C131.566 29.6186 131.435 29.3416 131.351 29.0334C131.269 28.7231 131.228 28.4035 131.228 28.0826C131.228 27.7383 131.269 27.4108 131.351 27.0936ZM128.021 26.5936C127.867 27.05 127.788 27.5355 127.788 28.0576C127.788 28.8375 127.914 29.5528 128.167 30.2031C128.419 30.8555 128.785 31.4082 129.266 31.8645C129.744 32.3202 130.338 32.6734 131.046 32.9255C131.755 33.1776 132.566 33.3043 133.475 33.3043C134.386 33.3043 135.196 33.1776 135.902 32.9255C136.61 32.6734 137.206 32.3202 137.685 31.8645C138.163 31.4082 138.531 30.8555 138.784 30.2031C139.033 29.5528 139.161 28.8375 139.161 28.0576C139.161 27.5355 139.081 27.05 138.918 26.5936C138.752 26.1372 138.535 25.7223 138.258 25.3491H139.894V22.6634H135.55V20.0518H131.522C131.344 20.0518 131.212 20.1252 131.134 20.2707C131.049 20.4195 131.088 20.5892 131.255 20.7852C131.482 21.0462 131.62 21.3012 131.672 21.5532C131.72 21.8046 131.741 22.1509 131.741 22.5913V22.6634H126.74V25.3491H128.667C128.39 25.7223 128.175 26.1372 128.021 26.5936ZM140.552 20.9557C140.39 20.9557 140.277 21.0152 140.212 21.1385C140.146 21.2611 140.184 21.428 140.333 21.6399C140.478 21.8505 140.595 22.0562 140.688 22.2612C140.776 22.4641 140.82 22.7868 140.82 23.2245V32.8641H144.311V28.3265H145.946V33.5254H149.438V20.8088H145.946V25.4447H144.311V20.9557H140.552ZM135.953 38.0513C136.123 37.7508 136.403 37.5007 136.793 37.3069C137.183 37.1115 137.692 36.9633 138.32 36.8539C138.946 36.7473 139.713 36.6987 140.628 36.6987C141.536 36.6987 142.305 36.7473 142.934 36.8539C143.556 36.9633 144.062 37.1115 144.446 37.3069C144.828 37.5007 145.103 37.7508 145.273 38.0513C145.447 38.3526 145.533 38.6967 145.533 39.0881C145.533 39.462 145.447 39.8006 145.273 40.1012C145.103 40.4024 144.828 40.6532 144.446 40.8562C144.062 41.0597 143.556 41.2155 142.934 41.3229C142.305 41.4274 141.536 41.4801 140.628 41.4801C139.713 41.4801 138.946 41.4274 138.32 41.3229C137.692 41.2155 137.183 41.0597 136.793 40.8562C136.403 40.6532 136.123 40.4024 135.953 40.1012C135.781 39.8006 135.696 39.462 135.696 39.0881C135.696 38.6967 135.781 38.3526 135.953 38.0513ZM131.815 39.0881C131.815 39.8541 132.002 40.5528 132.377 41.1864C132.752 41.8188 133.312 42.3638 134.059 42.8091C134.811 43.2565 135.725 43.6027 136.816 43.8473C137.908 44.091 139.179 44.2156 140.628 44.2156C142.041 44.2156 143.296 44.091 144.396 43.8473C145.496 43.6027 146.412 43.2565 147.155 42.8091C147.894 42.3638 148.461 41.8188 148.849 41.1864C149.241 40.5528 149.436 39.8541 149.436 39.0881C149.436 37.5118 148.678 36.2617 147.164 35.34C145.653 34.4238 143.472 33.9638 140.628 33.9638C137.715 33.9638 135.515 34.4238 134.034 35.34C132.558 36.2617 131.815 37.5118 131.815 39.0881Z" fill="#767676"/>
</g>
</svg>
