<svg width="65" height="64" viewBox="0 0 65 64" fill="none" xmlns="http://www.w3.org/2000/svg">
<g id="kt">
<path id="Vector" d="M25.7131 35.0009L29.6256 30.1838H25.0444C23.3498 30.1838 21.6859 30.5702 20.4769 31.6339L20.1315 32.0597V16.3906H15.4785C14.3892 16.3906 13.5 17.2798 13.5 18.3743V47.609H18.153C19.244 47.609 20.1315 46.7198 20.1315 45.6236V37.8464L23.9004 42.4738L27.1067 46.4188C27.7531 47.2294 28.6013 47.6073 29.4768 47.6073H35.9681L31.77 42.4567L25.7131 35.0026V35.0009ZM44.284 40.3071V30.1838H37.6422V41.5521C37.6422 45.138 40.115 47.609 43.7043 47.609H48.8122C49.9083 47.609 50.7992 46.7198 50.7992 45.6236V42.0907H46.0607C45.0792 42.0907 44.2823 41.2904 44.2823 40.3071H44.284ZM51.9056 26.6132L51.9022 22.2047L51.4901 22.6391C51.4798 22.6511 50.2332 23.9233 46.6524 23.9233H44.2806V16.3906H39.6259C38.5315 16.3906 37.6388 17.2798 37.6388 18.3708V23.9233H29.7351C27.0657 23.9233 25.8088 25.0109 24.8478 26.1857L20.9626 30.9738C20.9626 30.9738 22.7992 29.2347 25.4959 29.2347H46.6524C48.9678 29.2347 50.5564 28.7798 51.3738 27.8855C51.9552 27.2459 51.9056 26.6183 51.9039 26.6132H51.9056Z" fill="#767676"/>
</g>
</svg>
