<svg width="160" height="160" viewBox="0 0 160 160" fill="none" xmlns="http://www.w3.org/2000/svg">
<g clip-path="url(#clip0_10658_9286)">
<path d="M44.5102 119.043C37.8157 122.081 30.6731 124.014 23.3602 124.768C22.8773 124.818 22.3903 124.727 21.9586 124.505C21.5268 124.283 21.1691 123.94 20.9289 123.518C15.5102 113.968 13.7289 102.087 15.9289 89.0491C18.7352 72.2241 27.8602 55.3803 41.6289 41.6116C55.3977 27.8428 72.2539 18.7178 89.0664 15.9116C103.31 13.5428 116.173 15.9116 126.123 22.5366C126.53 22.804 126.85 23.1845 127.044 23.6314C127.238 24.0783 127.297 24.5721 127.214 25.0521C127.131 25.5321 126.909 25.9774 126.577 26.3333C126.244 26.6892 125.815 26.9401 125.341 27.0553C120.658 28.1718 116.091 29.733 111.704 31.7178C98.0977 37.9053 80.7039 51.1303 75.1289 79.0303C71.3102 97.9553 61.0164 111.418 44.5102 119.043ZM139.066 36.4866C138.827 36.0657 138.47 35.7235 138.039 35.5016C137.609 35.2797 137.123 35.1876 136.641 35.2366C129.326 35.9851 122.18 37.9187 115.485 40.9616C98.9789 48.5866 88.6852 62.0491 84.8977 80.9616C79.3164 108.862 61.9289 122.087 48.3227 128.274C43.9356 130.259 39.3691 131.82 34.6852 132.937C34.2012 133.046 33.7607 133.296 33.4197 133.657C33.0786 134.017 32.8525 134.471 32.7701 134.96C32.6877 135.449 32.7526 135.952 32.9568 136.404C33.1609 136.856 33.495 137.237 33.9164 137.499C41.3352 142.449 50.3664 144.999 60.3852 144.999C63.9289 144.989 67.4657 144.688 70.9602 144.099C87.7789 141.293 104.629 132.168 118.398 118.399C132.166 104.63 141.291 87.7741 144.098 70.9616C146.248 57.9241 144.485 46.0366 139.066 36.4866Z" fill="white"/>
</g>
<defs>
<clipPath id="clip0_10658_9286">
<rect width="160" height="160" fill="white"/>
</clipPath>
</defs>
</svg>
