<svg width="160" height="160" viewBox="0 0 160 160" fill="none" xmlns="http://www.w3.org/2000/svg">
<g clip-path="url(#clip0_10658_9336)">
<path d="M130 50H20C18.6739 50 17.4021 50.5268 16.4645 51.4645C15.5268 52.4021 15 53.6739 15 55V85C15.0149 93.5124 16.8354 101.925 20.3411 109.682C23.8468 117.439 28.9581 124.364 35.3375 130H20C18.6739 130 17.4021 130.527 16.4645 131.464C15.5268 132.402 15 133.674 15 135C15 136.326 15.5268 137.598 16.4645 138.536C17.4021 139.473 18.6739 140 20 140H130C131.326 140 132.598 139.473 133.536 138.536C134.473 137.598 135 136.326 135 135C135 133.674 134.473 132.402 133.536 131.464C132.598 130.527 131.326 130 130 130H114.663C122.32 123.213 128.127 114.591 131.538 104.944C137.888 104.552 143.851 101.754 148.21 97.1198C152.569 92.4852 154.998 86.3627 155 80V75C155 68.3696 152.366 62.0107 147.678 57.3223C142.989 52.6339 136.63 50 130 50ZM145 80C144.998 83.2349 143.95 86.3824 142.013 88.973C140.075 91.5636 137.352 93.4585 134.25 94.375C134.745 91.2745 134.996 88.1398 135 85V60.8625C137.924 61.8962 140.455 63.8107 142.246 66.3425C144.037 68.8743 144.999 71.8989 145 75V80ZM70 35V15C70 13.6739 70.5268 12.4021 71.4645 11.4645C72.4021 10.5268 73.6739 10 75 10C76.3261 10 77.5979 10.5268 78.5355 11.4645C79.4732 12.4021 80 13.6739 80 15V35C80 36.3261 79.4732 37.5979 78.5355 38.5355C77.5979 39.4732 76.3261 40 75 40C73.6739 40 72.4021 39.4732 71.4645 38.5355C70.5268 37.5979 70 36.3261 70 35ZM90 35V15C90 13.6739 90.5268 12.4021 91.4645 11.4645C92.4021 10.5268 93.6739 10 95 10C96.3261 10 97.5979 10.5268 98.5355 11.4645C99.4732 12.4021 100 13.6739 100 15V35C100 36.3261 99.4732 37.5979 98.5355 38.5355C97.5979 39.4732 96.3261 40 95 40C93.6739 40 92.4021 39.4732 91.4645 38.5355C90.5268 37.5979 90 36.3261 90 35ZM50 35V15C50 13.6739 50.5268 12.4021 51.4645 11.4645C52.4021 10.5268 53.6739 10 55 10C56.3261 10 57.5979 10.5268 58.5355 11.4645C59.4732 12.4021 60 13.6739 60 15V35C60 36.3261 59.4732 37.5979 58.5355 38.5355C57.5979 39.4732 56.3261 40 55 40C53.6739 40 52.4021 39.4732 51.4645 38.5355C50.5268 37.5979 50 36.3261 50 35Z" fill="white"/>
</g>
<defs>
<clipPath id="clip0_10658_9336">
<rect width="160" height="160" fill="white"/>
</clipPath>
</defs>
</svg>
