<svg width="18" height="26" viewBox="0 0 18 26" fill="none" xmlns="http://www.w3.org/2000/svg">
<g id="Figma logo">
<path id="Rectangle 2" d="M0.65918 4.63362C0.65918 2.33019 2.52648 0.462891 4.82991 0.462891H9.00064V8.80435H4.82991C2.52648 8.80435 0.65918 6.93705 0.65918 4.63362Z" fill="#F24E1E"/>
<path id="Rectangle 3" d="M0.65918 12.9754C0.65918 10.672 2.52648 8.80469 4.82991 8.80469H9.00064V17.1462H4.82991C2.52648 17.1462 0.65918 15.2789 0.65918 12.9754Z" fill="#A259FF"/>
<rect id="Rectangle 5" x="9" y="8.80469" width="8.34146" height="8.34146" rx="4.17073" fill="#1ABCFE"/>
<path id="Rectangle 6" d="M0.65918 21.3172C0.65918 19.0138 2.52648 17.1465 4.82991 17.1465H9.00064V21.3172C9.00064 23.6206 7.13334 25.4879 4.82991 25.4879C2.52648 25.4879 0.65918 23.6206 0.65918 21.3172Z" fill="#0ACF83"/>
<path id="Rectangle 4" d="M9 0.462891H13.1707C15.4742 0.462891 17.3415 2.33019 17.3415 4.63362C17.3415 6.93705 15.4742 8.80435 13.1707 8.80435H9V0.462891Z" fill="#FF7262"/>
</g>
</svg>
