<svg width="28" height="28" viewBox="0 0 28 28" fill="none" xmlns="http://www.w3.org/2000/svg">
<g id="FigmaLogo" clip-path="url(#clip0_10428_5458)">
<path id="Vector" d="M18.375 17.5C20.308 17.5 21.875 15.933 21.875 14C21.875 12.067 20.308 10.5 18.375 10.5C16.442 10.5 14.875 12.067 14.875 14C14.875 15.933 16.442 17.5 18.375 17.5Z" stroke="currentColor" stroke-width="3" stroke-linecap="round" stroke-linejoin="round"/>
<path id="Vector_2" d="M14.875 10.5H18.375C19.3033 10.5 20.1935 10.1313 20.8499 9.47487C21.5063 8.8185 21.875 7.92826 21.875 7C21.875 6.07174 21.5063 5.1815 20.8499 4.52513C20.1935 3.86875 19.3033 3.5 18.375 3.5H14.875" stroke="currentColor" stroke-width="3" stroke-linecap="round" stroke-linejoin="round"/>
<path id="Vector_3" d="M14.875 3.5H10.5C9.57174 3.5 8.6815 3.86875 8.02513 4.52513C7.36875 5.1815 7 6.07174 7 7C7 7.92826 7.36875 8.8185 8.02513 9.47487C8.6815 10.1313 9.57174 10.5 10.5 10.5H14.875V3.5Z" stroke="currentColor" stroke-width="3" stroke-linecap="round" stroke-linejoin="round"/>
<path id="Vector_4" d="M14.875 10.5H10.5C9.57174 10.5 8.6815 10.8687 8.02513 11.5251C7.36875 12.1815 7 13.0717 7 14C7 14.9283 7.36875 15.8185 8.02513 16.4749C8.6815 17.1313 9.57174 17.5 10.5 17.5H14.875V10.5Z" stroke="currentColor" stroke-width="3" stroke-linecap="round" stroke-linejoin="round"/>
<path id="Vector_5" d="M14.875 17.5H10.9375C10.1587 17.5 9.39746 17.7309 8.74994 18.1636C8.10243 18.5962 7.59775 19.2112 7.29973 19.9307C7.00171 20.6502 6.92373 21.4419 7.07566 22.2057C7.22759 22.9695 7.6026 23.6711 8.15327 24.2217C8.70394 24.7724 9.40553 25.1474 10.1693 25.2993C10.9331 25.4513 11.7248 25.3733 12.4443 25.0753C13.1638 24.7773 13.7788 24.2726 14.2114 23.6251C14.6441 22.9775 14.875 22.2163 14.875 21.4375V17.5Z" stroke="currentColor" stroke-width="3" stroke-linecap="round" stroke-linejoin="round"/>
</g>
<defs>
<clipPath id="clip0_10428_5458">
<rect width="28" height="28" fill="currentColor"/>
</clipPath>
</defs>
</svg>
