<svg width="29" height="28" viewBox="0 0 29 28" fill="none" xmlns="http://www.w3.org/2000/svg">
<path d="M14.5007 2.33398C8.05822 2.33398 2.83398 7.55725 2.83398 14.0007C2.83398 19.1554 6.17687 23.5286 10.8124 25.0713C11.3955 25.1793 11.6096 24.8182 11.6096 24.5101C11.6096 24.2319 11.5987 23.3128 11.5937 22.338C8.34801 23.0437 7.66313 20.9614 7.66313 20.9614C7.13242 19.6129 6.36775 19.2543 6.36775 19.2543C5.30922 18.5302 6.44754 18.5451 6.44754 18.5451C7.61908 18.6274 8.23596 19.7474 8.23596 19.7474C9.27652 21.531 10.9652 21.0153 11.631 20.7172C11.7357 19.9632 12.0381 19.4485 12.3717 19.1572C9.78037 18.8622 7.0563 17.8618 7.0563 13.3914C7.0563 12.1177 7.51205 11.0769 8.25837 10.2599C8.13723 9.96603 7.7379 8.77941 8.37139 7.1724C8.37139 7.1724 9.35109 6.85884 11.5806 8.36829C12.5112 8.10979 13.5093 7.98016 14.5007 7.97572C15.4922 7.98016 16.4911 8.10979 17.4234 8.36829C19.6502 6.85884 20.6286 7.1724 20.6286 7.1724C21.2636 8.77941 20.8641 9.96603 20.7429 10.2599C21.491 11.0769 21.9437 12.1177 21.9437 13.3914C21.9437 17.8724 19.2144 18.8591 16.6164 19.1479C17.0349 19.5099 17.4078 20.2199 17.4078 21.3084C17.4078 22.8694 17.3943 24.1258 17.3943 24.5101C17.3943 24.8205 17.6043 25.1843 18.1956 25.0698C22.8287 23.5253 26.1673 19.1537 26.1673 14.0007C26.1673 7.55725 20.9439 2.33398 14.5007 2.33398ZM7.20357 18.9535C7.17787 19.0115 7.08668 19.0289 7.00361 18.9891C6.91899 18.951 6.87146 18.872 6.8989 18.8139C6.92401 18.7542 7.01539 18.7375 7.09982 18.7775C7.18463 18.8156 7.23293 18.8954 7.20357 18.9535ZM7.77744 19.4656C7.7218 19.5172 7.61303 19.4932 7.53923 19.4117C7.46292 19.3304 7.44862 19.2216 7.50503 19.1692C7.56241 19.1176 7.6679 19.1418 7.74441 19.2231C7.82072 19.3054 7.83559 19.4134 7.77744 19.4656ZM8.17114 20.1208C8.09966 20.1704 7.98278 20.1239 7.91052 20.0201C7.83904 19.9164 7.83904 19.7919 7.91207 19.7421C7.98451 19.6923 8.09966 19.7371 8.17288 19.84C8.24417 19.9455 8.24417 20.07 8.17114 20.1208ZM8.83697 20.8795C8.77303 20.9501 8.63682 20.9311 8.53713 20.8349C8.43512 20.7408 8.40672 20.6073 8.47087 20.5368C8.53559 20.4661 8.67256 20.486 8.77303 20.5814C8.87426 20.6753 8.90517 20.8098 8.83697 20.8795ZM9.6975 21.1357C9.66929 21.2271 9.53811 21.2686 9.40596 21.2298C9.27401 21.1898 9.18765 21.0828 9.21431 20.9904C9.24174 20.8984 9.3735 20.8552 9.50662 20.8967C9.63838 20.9365 9.72493 21.0428 9.6975 21.1357ZM10.6768 21.2443C10.6801 21.3406 10.568 21.4203 10.4293 21.4221C10.2898 21.4252 10.177 21.3473 10.1755 21.2526C10.1755 21.1555 10.285 21.0765 10.4245 21.0741C10.5632 21.0714 10.6768 21.1487 10.6768 21.2443ZM11.6389 21.2075C11.6555 21.3014 11.5591 21.3978 11.4213 21.4235C11.2859 21.4482 11.1605 21.3902 11.1433 21.2971C11.1265 21.2009 11.2247 21.1045 11.3599 21.0796C11.4978 21.0556 11.6213 21.112 11.6389 21.2075Z" fill="white"/>
</svg>
