<svg width="160" height="160" viewBox="0 0 160 160" fill="none" xmlns="http://www.w3.org/2000/svg">
<g clip-path="url(#clip0_10658_9320)">
<path d="M135 65.0001V70.0001C134.989 78.4601 131.918 86.6306 126.354 93.0029C120.789 99.3752 113.107 103.519 104.725 104.669C108.146 109.047 110.003 114.444 110 120V145C110 146.326 109.473 147.598 108.536 148.536C107.598 149.473 106.326 150 105 150H65C63.6739 150 62.4021 149.473 61.4645 148.536C60.5268 147.598 60 146.326 60 145V135H45C38.3696 135 32.0107 132.366 27.3223 127.678C22.6339 122.989 20 116.631 20 110C20 106.022 18.4196 102.207 15.6066 99.3935C12.7936 96.5804 8.97825 95.0001 5 95.0001C3.67392 95.0001 2.40215 94.4733 1.46447 93.5356C0.526784 92.5979 0 91.3262 0 90.0001C0 88.674 0.526784 87.4022 1.46447 86.4645C2.40215 85.5269 3.67392 85.0001 5 85.0001C8.28305 85.0001 11.5339 85.6467 14.5671 86.9031C17.6002 88.1595 20.3562 90.0009 22.6777 92.3224C24.9991 94.6439 26.8406 97.3999 28.097 100.433C29.3534 103.466 30 106.717 30 110C30 113.978 31.5804 117.794 34.3934 120.607C37.2064 123.42 41.0218 125 45 125H60V120C59.9968 114.444 61.8538 109.047 65.275 104.669C56.8935 103.519 49.2111 99.3752 43.6464 93.0029C38.0817 86.6306 35.0105 78.4601 35 70.0001V65.0001C35.0623 58.7862 36.717 52.6921 39.8062 47.3001C38.278 42.3701 37.7877 37.1768 38.3664 32.0479C38.9452 26.919 40.5803 21.9656 43.1688 17.5001C43.6077 16.7398 44.2391 16.1085 44.9994 15.6697C45.7597 15.2308 46.6221 14.9999 47.5 15.0001C53.3238 14.9879 59.0698 16.338 64.2788 18.9425C69.4878 21.547 74.0154 25.3337 77.5 30.0001H92.5C95.9846 25.3337 100.512 21.547 105.721 18.9425C110.93 16.338 116.676 14.9879 122.5 15.0001C123.378 14.9999 124.24 15.2308 125.001 15.6697C125.761 16.1085 126.392 16.7398 126.831 17.5001C129.42 21.9655 131.055 26.9192 131.633 32.0483C132.21 37.1775 131.718 42.3707 130.188 47.3001C133.283 52.69 134.94 58.7851 135 65.0001Z" fill="white"/>
</g>
<defs>
<clipPath id="clip0_10658_9320">
<rect width="160" height="160" fill="white"/>
</clipPath>
</defs>
</svg>
