<svg width="160" height="160" viewBox="0 0 160 160" fill="none" xmlns="http://www.w3.org/2000/svg">
<g clip-path="url(#clip0_10658_9294)">
<path d="M80 15C67.1442 15 54.5772 18.8122 43.888 25.9545C33.1988 33.0968 24.8676 43.2484 19.9479 55.1256C15.0282 67.0028 13.7409 80.0721 16.249 92.6809C18.757 105.29 24.9477 116.872 34.0381 125.962C43.1285 135.052 54.7104 141.243 67.3192 143.751C79.9279 146.259 92.9973 144.972 104.874 140.052C116.752 135.132 126.903 126.801 134.046 116.112C141.188 105.423 145 92.8558 145 80C144.982 62.7665 138.128 46.2441 125.942 34.0582C113.756 21.8722 97.2335 15.0182 80 15ZM135 80C135.005 87.0561 133.647 94.0468 131 100.588L103.063 83.4062C101.875 82.6733 100.546 82.1984 99.1625 82.0125L84.9 80.0875C82.9347 79.8312 80.9375 80.1607 79.1586 81.0346C77.3798 81.9084 75.8983 83.2879 74.9 85H69.45L67.075 80.0875C66.4184 78.7196 65.4575 77.5201 64.2659 76.5809C63.0742 75.6417 61.6834 74.9876 60.2 74.6688L55.2 73.5875L60.0875 65H70.5313C72.2212 64.9967 73.883 64.5667 75.3625 63.75L83.0188 59.525C83.6914 59.15 84.3203 58.7015 84.8938 58.1875L101.713 42.975C103.399 41.4638 104.52 39.423 104.89 37.1892C105.26 34.9554 104.858 32.6621 103.75 30.6875L103.525 30.2812C112.936 34.7437 120.889 41.7837 126.46 50.5841C132.031 59.3845 134.993 69.5844 135 80ZM25 80C24.9917 71.8251 26.8155 63.7523 30.3375 56.375L37.425 75.2938C38.0157 76.8602 38.9901 78.2532 40.259 79.3452C41.5279 80.4372 43.0506 81.1931 44.6875 81.5437L58.0813 84.425L60.4625 89.375C61.2889 91.0586 62.5697 92.4775 64.16 93.4715C65.7504 94.4655 67.5871 94.9949 69.4625 95H70.3875L65.8688 105.144C65.0726 106.93 64.8176 108.91 65.1353 110.84C65.453 112.769 66.3295 114.563 67.6563 116L67.7438 116.088L80 128.713L78.7875 134.963C64.424 134.628 50.7598 128.694 40.7108 118.425C30.6618 108.157 25.0239 94.3674 25 80Z" fill="white"/>
</g>
<defs>
<clipPath id="clip0_10658_9294">
<rect width="160" height="160" fill="white"/>
</clipPath>
</defs>
</svg>
