<svg width="48" height="49" viewBox="0 0 48 49" fill="none" xmlns="http://www.w3.org/2000/svg">
<g clip-path="url(#clip0_10681_652)">
<path d="M18.104 7.44681C17.9002 6.68818 18.002 5.87987 18.3877 5.19552C18.7733 4.51117 19.412 4.00538 20.1665 3.78681C21.7809 3.32556 23.4759 4.34931 23.9165 5.97118L26.9165 17.1799C26.9442 17.2809 26.9504 17.3864 26.9348 17.4899C26.9193 17.5934 26.8822 17.6925 26.826 17.7808C26.7699 17.8691 26.6959 17.9446 26.6088 18.0026C26.5217 18.0606 26.4234 18.0997 26.3202 18.1174C25.4902 18.2595 24.6998 18.5758 24.0009 19.0456C23.8959 19.1149 23.7946 19.1881 23.6934 19.2649C23.6315 19.1562 23.5677 19.0474 23.5059 18.9424C22.865 17.9686 21.9522 17.2045 20.8809 16.7449C20.7779 16.7005 20.6863 16.6331 20.6132 16.548C20.5401 16.4629 20.4874 16.3622 20.459 16.2537L18.104 7.44681ZM15.0759 33.7924C15.2752 33.8333 15.4781 33.8541 15.6815 33.8543C16.425 33.8537 17.1417 33.577 17.6928 33.0779C18.2439 32.5788 18.59 31.8928 18.664 31.153C18.738 30.4132 18.5347 29.6723 18.0935 29.0739C17.6522 28.4755 17.0045 28.0623 16.2759 27.9143L12.6027 27.1643C11.8265 27.0131 11.022 27.1746 10.3642 27.6135C9.70641 28.0524 9.2485 28.7333 9.09008 29.508C8.93167 30.2828 9.08557 31.0888 9.51831 31.7507C9.95105 32.4125 10.6276 32.8768 11.4009 33.0424L15.0759 33.7924ZM11.4009 23.8549L17.8959 25.1806C18.2843 25.2658 18.6858 25.2729 19.0769 25.2016C19.4681 25.1302 19.8412 24.9818 20.1746 24.765C20.5079 24.5482 20.7948 24.2672 21.0186 23.9385C21.2423 23.6098 21.3985 23.2399 21.4781 22.8503C21.5576 22.4607 21.5589 22.0592 21.4819 21.6691C21.4048 21.2789 21.251 20.908 21.0294 20.5779C20.8077 20.2478 20.5226 19.965 20.1907 19.746C19.8587 19.5271 19.4866 19.3763 19.0959 19.3024L12.6027 17.9824C11.8233 17.8231 11.0124 17.9799 10.3485 18.4184C9.68467 18.8569 9.22216 19.5411 9.06275 20.3206C8.90341 21.1 9.06022 21.9109 9.4987 22.5748C9.93717 23.2386 10.6214 23.7011 11.4009 23.8606V23.8549ZM30.5259 18.5749L34.9415 19.4768C35.1277 19.5145 35.3213 19.4801 35.4831 19.3805C35.645 19.281 35.763 19.1238 35.8134 18.9406L38.8921 7.44681C39.0947 6.67934 38.9849 5.86285 38.5867 5.17619C38.1886 4.48952 37.5345 3.98864 36.7677 3.78325C36.001 3.57786 35.1841 3.68471 34.496 4.08039C33.8079 4.47607 33.3047 5.12833 33.0965 5.89431L29.9465 17.6506C29.9199 17.7499 29.9141 17.8537 29.9293 17.9554C29.9445 18.0571 29.9805 18.1546 30.035 18.2419C30.0895 18.3291 30.1614 18.4042 30.2462 18.4624C30.3309 18.5207 30.4268 18.5609 30.5277 18.5806L30.5259 18.5749ZM37.5271 24.5262C37.2061 23.9984 36.7793 23.5427 36.2737 23.1877C35.7681 22.8328 35.1945 22.5863 34.589 22.4637L27.914 21.1081C27.4007 21.0032 26.869 21.0346 26.3716 21.199C25.8742 21.3635 25.4286 21.6554 25.079 22.0456C24.8934 22.2438 24.7397 22.4696 24.6234 22.7149C24.3704 23.2224 24.2664 23.7912 24.3235 24.3553C24.3806 24.9195 24.5964 25.4559 24.9459 25.9024C25.4059 26.4806 26.0578 26.875 26.7834 27.0143L29.6409 27.5974C30.029 27.6764 30.3705 27.9045 30.5922 28.2327C30.8138 28.5609 30.8977 28.963 30.8259 29.3524C30.5737 30.564 30.7576 31.8258 31.3452 32.9149C31.5257 33.2305 31.5884 33.5998 31.5221 33.9572C31.4558 34.3146 31.2649 34.6369 30.9834 34.8668C30.8124 35.0009 30.6143 35.0962 30.4029 35.1461C30.1914 35.1961 29.9716 35.1996 29.7587 35.1562C29.5458 35.1129 29.3449 35.0238 29.1698 34.8952C28.9947 34.7666 28.8496 34.6014 28.7446 34.4112C28.0448 33.1446 27.6904 31.7162 27.7171 30.2693L26.114 29.9206C25.3425 29.7652 24.6094 29.4585 23.9571 29.0183C23.3048 28.578 22.7461 28.0129 22.3134 27.3556C22.2421 27.2487 22.1765 27.1399 22.1146 27.0293C21.718 27.3317 21.2853 27.5836 20.8265 27.7793C21.3707 28.6896 21.6639 29.7279 21.6762 30.7883C21.6885 31.8488 21.4195 32.8936 20.8967 33.8163C20.3738 34.739 19.6156 35.5066 18.6995 36.0409C17.7834 36.5752 16.742 36.8572 15.6815 36.8581C15.2766 36.8578 14.8727 36.817 14.4759 36.7362L10.8027 35.9862H10.7915C10.7033 35.9653 10.611 35.9693 10.5249 35.9978C10.4388 36.0263 10.3623 36.0781 10.304 36.1475C10.2456 36.2169 10.2077 36.3012 10.1945 36.3909C10.1813 36.4806 10.1932 36.5722 10.229 36.6556C11.3996 39.3344 13.3258 41.6139 15.7718 43.215C18.2177 44.8161 21.0774 45.6694 24.0009 45.6706H24.1152C32.3221 45.6087 39.0009 38.8043 39.0009 30.5018V29.8756C39.0003 27.9943 38.4918 26.1481 37.529 24.5318L37.5271 24.5262Z" fill="currentColor"/>
</g>
<defs>
<clipPath id="clip0_10681_652">
<rect width="48" height="48" fill="white" transform="translate(0 0.669922)"/>
</clipPath>
</defs>
</svg>
