<svg width="32" height="32" viewBox="0 0 32 32" fill="none" xmlns="http://www.w3.org/2000/svg">
<g clip-path="url(#clip0_10660_2627)">
<path d="M24.3298 5.00229L27.4627 15.9282C29.0545 21.4795 25.9481 27.3572 20.4203 29.0086C19.0797 29.4126 17.6716 29.5435 16.2794 29.3935C14.8872 29.2434 13.5393 28.8155 12.3156 28.135C8.90007 26.1144 3.99856 20.1949 3.99856 20.1949C3.80369 20.0068 3.64905 19.7811 3.544 19.5315C3.43895 19.2819 3.38569 19.0136 3.38744 18.7428C3.38919 18.472 3.44591 18.2044 3.55417 17.9562C3.66244 17.7079 3.81998 17.4843 4.01726 17.2988C4.79985 16.5542 6.04301 16.6087 6.81672 17.3569L10.5956 21.0119C10.7019 21.1178 10.8372 21.19 10.9844 21.2193C11.1316 21.2485 11.2842 21.2336 11.423 21.1764L11.4374 21.1723C11.6569 21.0663 11.8314 20.8856 11.9295 20.6624C12.0276 20.4393 12.0429 20.1885 11.9726 19.9551L8.3983 7.48996C8.32332 7.2296 8.30201 6.95672 8.33569 6.68788C8.36937 6.41904 8.45732 6.15984 8.5942 5.92602C8.73109 5.6922 8.91406 5.48863 9.132 5.32766C9.34995 5.1667 9.59833 5.05169 9.86207 4.98963C10.9104 4.74104 11.9615 5.40452 12.2582 6.43908L14.4484 14.0775C14.4859 14.2094 14.5501 14.3321 14.6371 14.4381C14.724 14.5441 14.8318 14.6311 14.9538 14.6937C15.0757 14.7563 15.2093 14.7931 15.3461 14.8019C15.4829 14.8107 15.62 14.7913 15.749 14.7449C15.9901 14.6528 16.1874 14.4728 16.3012 14.2411C16.415 14.0095 16.4368 13.7433 16.3624 13.4962L13.6146 3.91361C13.5396 3.65325 13.5183 3.38037 13.552 3.11153C13.5857 2.84269 13.6736 2.58349 13.8105 2.34967C13.9474 2.11585 14.1304 1.91228 14.3483 1.75131C14.5662 1.59035 14.8146 1.47535 15.0784 1.41329C16.1267 1.16469 17.1778 1.82817 17.4745 2.86273L20.4917 13.3849C20.5291 13.5168 20.5934 13.6395 20.6803 13.7455C20.7672 13.8515 20.875 13.9385 20.997 14.0011C21.119 14.0637 21.2525 14.1005 21.3893 14.1094C21.5261 14.1182 21.6633 14.0987 21.7922 14.0523C22.0333 13.9602 22.2306 13.7802 22.3444 13.5486C22.4582 13.3169 22.48 13.0507 22.4056 12.8036L20.5002 6.15891C20.2036 5.12435 20.7444 4.00829 21.7641 3.65997C22.0205 3.57291 22.2918 3.5388 22.5618 3.55971C22.8317 3.58062 23.0946 3.65612 23.3344 3.78162C23.5743 3.90713 23.7862 4.08003 23.9573 4.28985C24.1284 4.49968 24.2551 4.74205 24.3298 5.00229Z" fill="white"/>
</g>
<defs>
<clipPath id="clip0_10660_2627">
<rect width="32" height="32" fill="white"/>
</clipPath>
</defs>
</svg>
