<svg width="160" height="160" viewBox="0 0 160 160" fill="none" xmlns="http://www.w3.org/2000/svg">
<g clip-path="url(#clip0_10658_9324)">
<path d="M150 63.75C150 107.5 85.1312 142.912 82.3687 144.375C81.6406 144.767 80.8268 144.972 80 144.972C79.1732 144.972 78.3594 144.767 77.6312 144.375C74.8688 142.912 10 107.5 10 63.75C10.0116 53.4764 14.0979 43.6269 21.3624 36.3624C28.6269 29.0979 38.4764 25.0116 48.75 25C61.6562 25 72.9562 30.55 80 39.9312C87.0437 30.55 98.3438 25 111.25 25C121.524 25.0116 131.373 29.0979 138.638 36.3624C145.902 43.6269 149.988 53.4764 150 63.75Z" fill="white"/>
</g>
<defs>
<clipPath id="clip0_10658_9324">
<rect width="160" height="160" fill="white"/>
</clipPath>
</defs>
</svg>
