<svg width="160" height="160" viewBox="0 0 160 160" fill="none" xmlns="http://www.w3.org/2000/svg">
<g clip-path="url(#clip0_10658_9332)">
<path d="M100 80C100 83.9556 98.827 87.8224 96.6294 91.1114C94.4318 94.4004 91.3082 96.9638 87.6537 98.4776C83.9991 99.9913 79.9778 100.387 76.0982 99.6157C72.2186 98.844 68.6549 96.9392 65.8579 94.1421C63.0608 91.3451 61.156 87.7814 60.3843 83.9018C59.6126 80.0222 60.0087 76.0009 61.5224 72.3463C63.0362 68.6918 65.5996 65.5682 68.8886 63.3706C72.1776 61.173 76.0444 60 80 60C85.3043 60 90.3914 62.1071 94.1421 65.8579C97.8929 69.6086 100 74.6957 100 80ZM145 50V110C144.99 119.28 141.299 128.176 134.738 134.738C128.176 141.299 119.28 144.99 110 145H50C40.7205 144.99 31.8238 141.299 25.2622 134.738C18.7006 128.176 15.0099 119.28 15 110V50C15.0099 40.7205 18.7006 31.8238 25.2622 25.2622C31.8238 18.7006 40.7205 15.0099 50 15H110C119.28 15.0099 128.176 18.7006 134.738 25.2622C141.299 31.8238 144.99 40.7205 145 50ZM110 80C110 74.0666 108.241 68.2664 104.944 63.3329C101.648 58.3994 96.9623 54.5542 91.4805 52.2836C85.9987 50.013 79.9667 49.4189 74.1473 50.5764C68.3279 51.734 62.9824 54.5912 58.7868 58.7868C54.5912 62.9824 51.734 68.3279 50.5764 74.1473C49.4189 79.9667 50.013 85.9987 52.2836 91.4805C54.5542 96.9623 58.3994 101.648 63.3329 104.944C68.2664 108.241 74.0666 110 80 110C87.954 109.992 95.5798 106.828 101.204 101.204C106.828 95.5798 109.992 87.954 110 80ZM125 42.5C125 41.0166 124.56 39.5666 123.736 38.3332C122.912 37.0999 121.741 36.1386 120.37 35.5709C119 35.0032 117.492 34.8547 116.037 35.1441C114.582 35.4335 113.246 36.1478 112.197 37.1967C111.148 38.2456 110.434 39.582 110.144 41.0368C109.855 42.4917 110.003 43.9997 110.571 45.3701C111.139 46.7406 112.1 47.9119 113.333 48.736C114.567 49.5601 116.017 50 117.5 50C119.489 50 121.397 49.2098 122.803 47.8033C124.21 46.3968 125 44.4891 125 42.5Z" fill="white"/>
</g>
<defs>
<clipPath id="clip0_10658_9332">
<rect width="160" height="160" fill="white"/>
</clipPath>
</defs>
</svg>
