<svg width="48" height="49" viewBox="0 0 48 49" fill="none" xmlns="http://www.w3.org/2000/svg">
<g clip-path="url(#clip0_10681_657)">
<path d="M34.5 9.66992H31.5V6.66992C31.5 5.87427 31.1839 5.11121 30.6213 4.5486C30.0587 3.98599 29.2956 3.66992 28.5 3.66992H19.5C18.7044 3.66992 17.9413 3.98599 17.3787 4.5486C16.8161 5.11121 16.5 5.87427 16.5 6.66992V9.66992H13.5C11.9087 9.66992 10.3826 10.3021 9.25736 11.4273C8.13214 12.5525 7.5 14.0786 7.5 15.6699V33.6699C7.50126 35.0001 7.94369 36.2923 8.75801 37.3442C9.57232 38.396 10.7125 39.148 12 39.4824V42.6699C12 43.4656 12.3161 44.2286 12.8787 44.7912C13.4413 45.3539 14.2044 45.6699 15 45.6699H33C33.7956 45.6699 34.5587 45.3539 35.1213 44.7912C35.6839 44.2286 36 43.4656 36 42.6699V39.4824C37.2875 39.148 38.4277 38.396 39.242 37.3442C40.0563 36.2923 40.4987 35.0001 40.5 33.6699V15.6699C40.5 14.0786 39.8679 12.5525 38.7426 11.4273C37.6174 10.3021 36.0913 9.66992 34.5 9.66992ZM29.25 19.4199C29.695 19.4199 30.13 19.5519 30.5 19.7991C30.87 20.0463 31.1584 20.3978 31.3287 20.8089C31.499 21.22 31.5436 21.6724 31.4568 22.1089C31.37 22.5453 31.1557 22.9462 30.841 23.2609C30.5263 23.5756 30.1254 23.7899 29.689 23.8767C29.2525 23.9635 28.8001 23.9189 28.389 23.7487C27.9778 23.5784 27.6264 23.29 27.3792 22.92C27.132 22.5499 27 22.1149 27 21.6699C27 21.0732 27.2371 20.5009 27.659 20.0789C28.081 19.657 28.6533 19.4199 29.25 19.4199ZM30.0506 30.4393C28.2354 31.5709 26.1391 32.1708 24 32.1708C21.8609 32.1708 19.7646 31.5709 17.9494 30.4393C17.6127 30.227 17.3742 29.8896 17.2863 29.5014C17.1984 29.1132 17.2683 28.706 17.4806 28.3693C17.693 28.0326 18.0303 27.7941 18.4185 27.7062C18.8067 27.6183 19.214 27.6882 19.5506 27.9005C20.8866 28.7297 22.4277 29.1691 24 29.1691C25.5723 29.1691 27.1134 28.7297 28.4494 27.9005C28.786 27.6882 29.1933 27.6183 29.5815 27.7062C29.9697 27.7941 30.307 28.0326 30.5194 28.3693C30.7317 28.706 30.8016 29.1132 30.7137 29.5014C30.6258 29.8896 30.3873 30.227 30.0506 30.4393ZM19.5 6.66992H28.5V9.66992H19.5V6.66992ZM18.75 19.4199C19.195 19.4199 19.63 19.5519 20 19.7991C20.37 20.0463 20.6584 20.3978 20.8287 20.8089C20.999 21.22 21.0436 21.6724 20.9568 22.1089C20.87 22.5453 20.6557 22.9462 20.341 23.2609C20.0263 23.5756 19.6254 23.7899 19.189 23.8767C18.7525 23.9635 18.3001 23.9189 17.889 23.7487C17.4778 23.5784 17.1264 23.29 16.8792 22.92C16.632 22.5499 16.5 22.1149 16.5 21.6699C16.5 21.0732 16.7371 20.5009 17.159 20.0789C17.581 19.657 18.1533 19.4199 18.75 19.4199ZM33 42.6699H15V39.6699H33V42.6699Z" fill="currentColor"/>
</g>
<defs>
<clipPath id="clip0_10681_657">
<rect width="48" height="48" fill="white" transform="translate(0 0.669922)"/>
</clipPath>
</defs>
</svg>
