<svg width="160" height="160" viewBox="0 0 160 160" fill="none" xmlns="http://www.w3.org/2000/svg">
<g clip-path="url(#clip0_10658_9304)">
<path d="M147.377 47.3685C145.753 48.9978 143.824 50.29 141.699 51.1706C139.574 52.0513 137.296 52.503 134.996 52.4997C133.805 52.4976 132.618 52.3762 131.452 52.1372L112.346 87.6185C114.641 89.9131 116.253 92.8007 117.001 95.9587C117.75 99.1167 117.605 102.421 116.584 105.501C115.563 108.582 113.705 111.318 111.218 113.403C108.731 115.489 105.714 116.841 102.502 117.311C99.2909 117.78 96.0123 117.347 93.033 116.059C90.0536 114.772 87.4909 112.682 85.6311 110.023C83.7713 107.363 82.6878 104.238 82.5017 100.998C82.3155 97.758 83.034 94.53 84.577 91.6747L68.2895 75.3872C65.7417 76.7653 62.8923 77.491 59.9957 77.4997C58.8053 77.498 57.6181 77.3765 56.452 77.1372L37.3457 112.612C39.7929 115.06 41.4595 118.178 42.1346 121.573C42.8097 124.967 42.463 128.486 41.1384 131.683C39.8138 134.881 37.5708 137.614 34.693 139.537C31.8152 141.46 28.4318 142.486 24.9707 142.486C21.5096 142.486 18.1262 141.46 15.2484 139.537C12.3706 137.614 10.1276 134.881 8.80299 131.683C7.4784 128.486 7.13174 124.967 7.80684 121.573C8.48193 118.178 10.1485 115.06 12.5957 112.612C14.6473 110.563 17.176 109.055 19.9547 108.225C22.7333 107.394 25.6747 107.268 28.5145 107.856L47.6207 72.3747C44.3442 69.0885 42.5042 64.6372 42.5042 59.9966C42.5042 55.356 44.3442 50.9047 47.6207 47.6185C50.5929 44.6444 54.5366 42.84 58.7301 42.5351C62.9237 42.2303 67.0868 43.4455 70.4579 45.9584C73.8289 48.4714 76.1825 52.114 77.0881 56.22C77.9937 60.3259 77.3907 64.6207 75.3895 68.3185L91.677 84.606C95.3092 82.6525 99.5131 82.0396 103.552 82.8747L122.658 47.3935C121.033 45.7684 119.744 43.8392 118.864 41.7158C117.985 39.5925 117.532 37.3168 117.532 35.0185C117.532 32.7202 117.985 30.4444 118.864 28.3211C119.744 26.1978 121.033 24.2685 122.658 22.6435C125.94 19.3614 130.392 17.5176 135.033 17.5176C139.675 17.5176 144.126 19.3614 147.408 22.6435C150.69 25.9255 152.534 30.3769 152.534 35.0185C152.534 39.66 150.69 44.1114 147.408 47.3935L147.377 47.3685Z" fill="white"/>
</g>
<defs>
<clipPath id="clip0_10658_9304">
<rect width="160" height="160" fill="white"/>
</clipPath>
</defs>
</svg>
