<svg width="24" height="24" viewBox="0 0 24 24" fill="none" xmlns="http://www.w3.org/2000/svg">
<path d="M18.6889 18.5342H15.8737V14.1689C15.8737 13.1279 15.8549 11.7879 14.4095 11.7879C12.9432 11.7879 12.7189 12.922 12.7189 14.0931V18.5339H9.90369V9.55704H12.6063V10.7838H12.6441C12.9146 10.3259 13.3054 9.94925 13.775 9.69389C14.2446 9.43854 14.7753 9.31407 15.3107 9.33375C18.164 9.33375 18.6901 11.1921 18.6901 13.6096L18.6889 18.5342ZM6.7272 8.32997C6.40409 8.33002 6.0882 8.23521 5.81951 8.05751C5.55082 7.87981 5.34139 7.62721 5.21769 7.33166C5.09398 7.0361 5.06156 6.71086 5.12454 6.39706C5.18752 6.08326 5.34307 5.79501 5.57151 5.56874C5.79994 5.34247 6.09102 5.18836 6.40791 5.12589C6.72481 5.06341 7.05329 5.09539 7.35183 5.21777C7.65037 5.34015 7.90556 5.54744 8.08512 5.81342C8.26468 6.0794 8.36055 6.39213 8.36061 6.71207C8.36065 6.92449 8.31843 7.13485 8.23636 7.33112C8.1543 7.52739 8.034 7.70574 7.88233 7.85597C7.73065 8.00621 7.55056 8.12539 7.35237 8.20672C7.15417 8.28805 6.94174 8.32993 6.7272 8.32997ZM8.1348 18.5342H5.31667V9.55704H8.1348V18.5342ZM20.0924 2.50616H3.90203C3.53456 2.50206 3.18045 2.64258 2.91756 2.89684C2.65466 3.1511 2.50448 3.4983 2.5 3.86216V19.9596C2.50433 20.3236 2.65442 20.671 2.91731 20.9256C3.18019 21.1801 3.53438 21.3209 3.90203 21.317H20.0924C20.4608 21.3216 20.816 21.1812 21.0799 20.9267C21.3438 20.6722 21.4949 20.3243 21.5 19.9596V3.861C21.4947 3.49642 21.3435 3.14882 21.0796 2.89457C20.8157 2.64031 20.4606 2.50019 20.0924 2.505" fill="currentColor"/>
</svg>
