<svg width="160" height="160" viewBox="0 0 160 160" fill="none" xmlns="http://www.w3.org/2000/svg">
<g clip-path="url(#clip0_10658_9274)">
<path d="M130 50H60V35C60 29.6957 62.1071 24.6086 65.8579 20.8579C69.6086 17.1071 74.6957 15 80 15C89.6062 15 98.25 21.875 100.1 30.9937C100.375 32.2823 101.147 33.4104 102.249 34.1327C103.35 34.8551 104.693 35.1135 105.984 34.8516C107.275 34.5898 108.411 33.8289 109.144 32.7343C109.877 31.6397 110.149 30.3 109.9 29.0063C107.075 15.0938 94.5 5 80 5C72.046 5.00827 64.4202 8.17163 58.7959 13.7959C53.1716 19.4202 50.0083 27.046 50 35V50H30C27.3478 50 24.8043 51.0536 22.9289 52.9289C21.0536 54.8043 20 57.3478 20 60V130C20 132.652 21.0536 135.196 22.9289 137.071C24.8043 138.946 27.3478 140 30 140H130C132.652 140 135.196 138.946 137.071 137.071C138.946 135.196 140 132.652 140 130V60C140 57.3478 138.946 54.8043 137.071 52.9289C135.196 51.0536 132.652 50 130 50ZM85 99.1438V115C85 116.326 84.4732 117.598 83.5355 118.536C82.5979 119.473 81.3261 120 80 120C78.6739 120 77.4021 119.473 76.4645 118.536C75.5268 117.598 75 116.326 75 115V99.1438C71.6639 97.9643 68.8522 95.6434 67.0618 92.5914C65.2715 89.5393 64.6177 85.9526 65.216 82.4651C65.8144 78.9776 67.6264 75.8139 70.3317 73.5332C73.037 71.2525 76.4616 70.0016 80 70.0016C83.5384 70.0016 86.963 71.2525 89.6683 73.5332C92.3736 75.8139 94.1856 78.9776 94.784 82.4651C95.3823 85.9526 94.7285 89.5393 92.9382 92.5914C91.1478 95.6434 88.3361 97.9643 85 99.1438Z" fill="white"/>
</g>
<defs>
<clipPath id="clip0_10658_9274">
<rect width="160" height="160" fill="white"/>
</clipPath>
</defs>
</svg>
