<svg width="160" height="160" viewBox="0 0 160 160" fill="none" xmlns="http://www.w3.org/2000/svg">
<g clip-path="url(#clip0_10658_9264)">
<path d="M77.5 109.375C78.2556 109.807 79.1109 110.034 79.9812 110.034C80.8516 110.034 81.7069 109.807 82.4625 109.375C83.9938 108.494 119.963 87.5001 119.963 50.0314C119.648 39.6395 115.3 29.7782 107.84 22.5372C100.38 15.2961 90.393 11.2443 79.9964 11.2402C69.5998 11.2362 59.61 15.2802 52.144 22.5154C44.678 29.7506 40.3223 39.6085 40 50.0001C40 87.5001 75.9875 108.463 77.5 109.375ZM80 35.0001C82.9667 35.0001 85.8668 35.8798 88.3335 37.5281C90.8003 39.1763 92.7229 41.519 93.8582 44.2599C94.9935 47.0007 95.2906 50.0168 94.7118 52.9265C94.133 55.8362 92.7044 58.5089 90.6066 60.6067C88.5088 62.7045 85.8361 64.1331 82.9264 64.7119C80.0166 65.2907 77.0006 64.9936 74.2598 63.8583C71.5189 62.723 69.1762 60.8004 67.528 58.3337C65.8797 55.8669 65 52.9668 65 50.0001C65 46.0219 66.5803 42.2066 69.3934 39.3935C72.2064 36.5805 76.0218 35.0001 80 35.0001ZM150 115C150 134.488 113.931 145 80 145C46.0687 145 10 134.488 10 115C10 105.881 18.2625 97.8064 33.2687 92.2689C34.4994 91.8623 35.8398 91.9495 37.0074 92.512C38.175 93.0745 39.0785 94.0684 39.5275 95.2842C39.9766 96.4999 39.936 97.8426 39.4143 99.029C38.8926 100.215 37.9307 101.153 36.7313 101.644C26.4125 105.463 20 110.575 20 115C20 123.35 42.825 135 80 135C117.175 135 140 123.35 140 115C140 110.575 133.587 105.463 123.269 101.65C122.069 101.159 121.107 100.222 120.586 99.0352C120.064 97.8488 120.023 96.5062 120.472 95.2904C120.921 94.0747 121.825 93.0808 122.993 92.5182C124.16 91.9557 125.501 91.8686 126.731 92.2751C141.738 97.8064 150 105.881 150 115Z" fill="white"/>
</g>
<defs>
<clipPath id="clip0_10658_9264">
<rect width="160" height="160" fill="white"/>
</clipPath>
</defs>
</svg>
