<svg width="240" height="240" viewBox="0 0 240 240" fill="none" xmlns="http://www.w3.org/2000/svg">
<path d="M120 15C98.1273 15.0248 77.1575 23.7247 61.6911 39.1911C46.2247 54.6575 37.5248 75.6273 37.5 97.5C37.5 168.094 112.5 221.409 115.697 223.641C116.958 224.524 118.46 224.998 120 224.998C121.54 224.998 123.042 224.524 124.303 223.641C127.5 221.409 202.5 168.094 202.5 97.5C202.475 75.6273 193.775 54.6575 178.309 39.1911C162.843 23.7247 141.873 15.0248 120 15ZM120 67.5C125.933 67.5 131.734 69.2595 136.667 72.5559C141.601 75.8524 145.446 80.5377 147.716 86.0195C149.987 91.5013 150.581 97.5333 149.424 103.353C148.266 109.172 145.409 114.518 141.213 118.713C137.018 122.909 131.672 125.766 125.853 126.924C120.033 128.081 114.001 127.487 108.519 125.216C103.038 122.946 98.3524 119.101 95.0559 114.167C91.7595 109.234 90 103.433 90 97.5C90 89.5435 93.1607 81.9129 98.7868 76.2868C104.413 70.6607 112.044 67.5 120 67.5Z" fill="#E81B30"/>
</svg>
