<svg width="14" height="80" viewBox="0 0 14 80" fill="none" xmlns="http://www.w3.org/2000/svg">
<g clip-path="url(#clip0_10647_518)">
<path d="M-27.25 54.6885C-26.8722 54.9045 -26.4446 55.0181 -26.0094 55.0181C-25.5742 55.0181 -25.1466 54.9045 -24.7687 54.6885C-24.0031 54.2479 -6.01875 43.751 -6.01875 25.0167C-6.17585 19.8207 -8.34983 14.8901 -12.08 11.2696C-15.8102 7.64905 -20.8035 5.62313 -26.0018 5.6211C-31.2001 5.61906 -36.195 7.64108 -39.928 11.2587C-43.661 14.8763 -45.8388 19.8052 -46 25.001C-46 43.751 -28.0063 54.2323 -27.25 54.6885ZM-26 17.501C-24.5166 17.501 -23.0666 17.9409 -21.8332 18.765C-20.5999 19.5891 -19.6386 20.7605 -19.0709 22.1309C-18.5032 23.5014 -18.3547 25.0094 -18.6441 26.4642C-18.9335 27.9191 -19.6478 29.2554 -20.6967 30.3043C-21.7456 31.3532 -23.082 32.0675 -24.5368 32.3569C-25.9917 32.6463 -27.4997 32.4978 -28.8701 31.9301C-30.2406 31.3625 -31.4119 30.4012 -32.236 29.1678C-33.0601 27.9344 -33.5 26.4844 -33.5 25.001C-33.5 23.0119 -32.7098 21.1043 -31.3033 19.6977C-29.8968 18.2912 -27.9891 17.501 -26 17.501ZM9 57.501C9 67.2448 -9.03437 72.501 -26 72.501C-42.9656 72.501 -61 67.2448 -61 57.501C-61 52.9417 -56.8688 48.9042 -49.3656 46.1354C-48.7503 45.9321 -48.0801 45.9757 -47.4963 46.257C-46.9125 46.5382 -46.4607 47.0352 -46.2362 47.6431C-46.0117 48.251 -46.032 48.9223 -46.2928 49.5155C-46.5537 50.1087 -47.0347 50.5774 -47.6344 50.8229C-52.7937 52.7323 -56 55.2885 -56 57.501C-56 61.676 -44.5875 67.501 -26 67.501C-7.4125 67.501 4 61.676 4 57.501C4 55.2885 0.793749 52.7323 -4.36563 50.826C-4.96535 50.5806 -5.44632 50.1118 -5.70715 49.5186C-5.96798 48.9254 -5.98828 48.2541 -5.76377 47.6462C-5.53925 47.0383 -5.08748 46.5414 -4.50368 46.2601C-3.91988 45.9788 -3.24968 45.9353 -2.63437 46.1385C4.86875 48.9042 9 52.9417 9 57.501Z" fill="white"/>
</g>
<defs>
<clipPath id="clip0_10647_518">
<rect width="80" height="80" fill="white" transform="translate(-66)"/>
</clipPath>
</defs>
</svg>
