<svg width="48" height="49" viewBox="0 0 48 49" fill="none" xmlns="http://www.w3.org/2000/svg">
<g clip-path="url(#clip0_10681_662)">
<path d="M43.3873 8.98331C43.3873 8.98331 43.3873 9.00206 43.3873 9.01143L32.4748 45.0002C32.3097 45.5847 31.9697 46.1048 31.5005 46.4905C31.0313 46.8763 30.4553 47.1093 29.8498 47.1583C29.7636 47.1658 29.6773 47.1696 29.5911 47.1696C29.0237 47.1713 28.4677 47.0107 27.9886 46.7067C27.5095 46.4027 27.1274 45.968 26.8873 45.4539L20.0623 31.4477C19.9941 31.3073 19.9713 31.1491 19.9971 30.9952C20.023 30.8413 20.0963 30.6992 20.2067 30.5889L31.0667 19.7289C31.3362 19.4453 31.4841 19.0677 31.4791 18.6766C31.4741 18.2854 31.3165 17.9117 31.0399 17.6351C30.7633 17.3585 30.3896 17.2009 29.9985 17.1959C29.6073 17.1909 29.2297 17.3389 28.9461 17.6083L18.0805 28.4683C17.9702 28.5787 17.8281 28.652 17.6742 28.6779C17.5203 28.7038 17.3621 28.681 17.2217 28.6127L3.20235 21.7896C2.65413 21.5265 2.19878 21.1032 1.89663 20.5755C1.59448 20.0479 1.45979 19.4409 1.51042 18.8349C1.56105 18.229 1.7946 17.6528 2.18013 17.1826C2.56566 16.7124 3.08496 16.3704 3.66922 16.2021L39.658 5.28955H39.6861C40.1985 5.1456 40.74 5.14055 41.255 5.27493C41.77 5.40932 42.24 5.67829 42.6167 6.05426C42.9934 6.43024 43.2634 6.89967 43.3988 7.41439C43.5342 7.92912 43.5303 8.47061 43.3873 8.98331Z" fill="currentColor"/>
</g>
<defs>
<clipPath id="clip0_10681_662">
<rect width="48" height="48" fill="white" transform="translate(0 0.669922)"/>
</clipPath>
</defs>
</svg>
