<svg width="160" height="160" viewBox="0 0 160 160" fill="none" xmlns="http://www.w3.org/2000/svg">
<g clip-path="url(#clip0_10658_9340)">
<path d="M150 67.5C150 70.9612 148.974 74.3446 147.051 77.2225C145.128 80.1003 142.395 82.3434 139.197 83.6679C135.999 84.9924 132.481 85.339 129.086 84.6637C125.691 83.9885 122.573 82.3218 120.126 79.8744C117.678 77.427 116.012 74.3088 115.336 70.9141C114.661 67.5194 115.008 64.0008 116.332 60.803C117.657 57.6053 119.9 54.8722 122.778 52.9493C125.655 51.0264 129.039 50 132.5 50C137.141 50 141.592 51.8438 144.874 55.1256C148.156 58.4075 150 62.8587 150 67.5ZM45 67.5C45 64.0388 43.9737 60.6554 42.0507 57.7775C40.1278 54.8997 37.3947 52.6566 34.197 51.3321C30.9993 50.0076 27.4806 49.661 24.0859 50.3363C20.6913 51.0115 17.5731 52.6782 15.1256 55.1256C12.6782 57.5731 11.0115 60.6913 10.3363 64.0859C9.66102 67.4806 10.0076 70.9993 11.3321 74.197C12.6566 77.3947 14.8997 80.1278 17.7775 82.0507C20.6554 83.9736 24.0388 85 27.5 85C32.1413 85 36.5925 83.1563 39.8744 79.8744C43.1563 76.5925 45 72.1413 45 67.5ZM57.5 55C60.9612 55 64.3446 53.9737 67.2225 52.0507C70.1003 50.1278 72.3434 47.3947 73.6679 44.197C74.9924 40.9993 75.339 37.4806 74.6638 34.0859C73.9885 30.6913 72.3218 27.5731 69.8744 25.1256C67.427 22.6782 64.3088 21.0115 60.9141 20.3363C57.5194 19.661 54.0008 20.0076 50.8031 21.3321C47.6053 22.6566 44.8722 24.8997 42.9493 27.7775C41.0264 30.6554 40 34.0388 40 37.5C40 42.1413 41.8438 46.5925 45.1256 49.8744C48.4075 53.1563 52.8587 55 57.5 55ZM102.5 55C105.961 55 109.345 53.9737 112.222 52.0507C115.1 50.1278 117.343 47.3947 118.668 44.197C119.992 40.9993 120.339 37.4806 119.664 34.0859C118.989 30.6913 117.322 27.5731 114.874 25.1256C112.427 22.6782 109.309 21.0115 105.914 20.3363C102.519 19.661 99.0008 20.0076 95.8031 21.3321C92.6053 22.6566 89.8722 24.8997 87.9493 27.7775C86.0264 30.6554 85 34.0388 85 37.5C85 42.1413 86.8438 46.5925 90.1256 49.8744C93.4075 53.1563 97.8587 55 102.5 55ZM116.95 93.0375C114.41 91.6364 112.172 89.7483 110.363 87.4811C108.553 85.214 107.209 82.6123 106.406 79.825C104.744 74.1078 101.271 69.0846 96.5089 65.5103C91.7472 61.9359 85.954 60.0035 80 60.0035C74.046 60.0035 68.2528 61.9359 63.4911 65.5103C58.7293 69.0846 55.2562 74.1078 53.5938 79.825C51.9878 85.4335 48.223 90.1761 43.125 93.0125C38.2345 95.6588 34.3658 99.8599 32.1308 104.952C29.8958 110.043 29.4221 115.735 30.7845 121.126C32.147 126.517 35.2679 131.3 39.6536 134.718C44.0393 138.136 49.4395 139.995 55 140C58.3323 140.01 61.6319 139.344 64.7 138.044C74.4817 134.01 85.4621 134.01 95.2438 138.044C101.168 140.621 107.861 140.804 113.917 138.554C119.974 136.305 124.925 131.799 127.732 125.98C130.539 120.16 130.984 113.481 128.974 107.34C126.964 101.2 122.655 96.0766 116.95 93.0438V93.0375Z" fill="currentColor"/>
</g>
<defs>
<clipPath id="clip0_10658_9340">
<rect width="160" height="160" fill="currentColor"/>
</clipPath>
</defs>
</svg>
