<svg width="14" height="80" viewBox="0 0 14 80" fill="none" xmlns="http://www.w3.org/2000/svg">
<g clip-path="url(#clip0_10647_1725)">
<path d="M75 33.75C75 35.4806 74.4868 37.1723 73.5254 38.6112C72.5639 40.0502 71.1973 41.1717 69.5985 41.8339C67.9996 42.4962 66.2403 42.6695 64.543 42.3319C62.8456 41.9943 61.2865 41.1609 60.0628 39.9372C58.8391 38.7135 58.0058 37.1544 57.6681 35.457C57.3305 33.7597 57.5038 32.0004 58.1661 30.4015C58.8283 28.8027 59.9498 27.4361 61.3888 26.4746C62.8277 25.5132 64.5194 25 66.25 25C68.5706 25 70.7962 25.9219 72.4372 27.5628C74.0781 29.2038 75 31.4294 75 33.75ZM22.5 33.75C22.5 32.0194 21.9868 30.3277 21.0254 28.8888C20.0639 27.4498 18.6973 26.3283 17.0985 25.6661C15.4996 25.0038 13.7403 24.8305 12.043 25.1681C10.3456 25.5058 8.78653 26.3391 7.56282 27.5628C6.33911 28.7865 5.50575 30.3456 5.16813 32.043C4.83051 33.7403 5.00379 35.4996 5.66606 37.0985C6.32832 38.6973 7.44983 40.0639 8.88876 41.0254C10.3277 41.9868 12.0194 42.5 13.75 42.5C16.0706 42.5 18.2962 41.5781 19.9372 39.9372C21.5781 38.2962 22.5 36.0706 22.5 33.75ZM28.75 27.5C30.4806 27.5 32.1723 26.9868 33.6112 26.0254C35.0502 25.0639 36.1717 23.6973 36.834 22.0985C37.4962 20.4996 37.6695 18.7403 37.3319 17.043C36.9943 15.3456 36.1609 13.7865 34.9372 12.5628C33.7135 11.3391 32.1544 10.5058 30.457 10.1681C28.7597 9.83051 27.0004 10.0038 25.4015 10.6661C23.8027 11.3283 22.4361 12.4498 21.4746 13.8888C20.5132 15.3277 20 17.0194 20 18.75C20 21.0706 20.9219 23.2962 22.5628 24.9372C24.2038 26.5781 26.4294 27.5 28.75 27.5ZM51.25 27.5C52.9806 27.5 54.6723 26.9868 56.1112 26.0254C57.5502 25.0639 58.6717 23.6973 59.3339 22.0985C59.9962 20.4996 60.1695 18.7403 59.8319 17.043C59.4943 15.3456 58.6609 13.7865 57.4372 12.5628C56.2135 11.3391 54.6544 10.5058 52.957 10.1681C51.2597 9.83051 49.5004 10.0038 47.9015 10.6661C46.3027 11.3283 44.9361 12.4498 43.9746 13.8888C43.0132 15.3277 42.5 17.0194 42.5 18.75C42.5 21.0706 43.4219 23.2962 45.0628 24.9372C46.7038 26.5781 48.9294 27.5 51.25 27.5ZM58.475 46.5188C57.2051 45.8182 56.0859 44.8741 55.1813 43.7406C54.2767 42.607 53.6045 41.3061 53.2031 39.9125C52.3719 37.0539 50.6354 34.5423 48.2545 32.7551C45.8736 30.968 42.977 30.0018 40 30.0018C37.023 30.0018 34.1264 30.968 31.7455 32.7551C29.3647 34.5423 27.6281 37.0539 26.7969 39.9125C25.9939 42.7168 24.1115 45.0881 21.5625 46.5063C19.1173 47.8294 17.1829 49.93 16.0654 52.4758C14.9479 55.0216 14.711 57.8673 15.3923 60.5628C16.0735 63.2583 17.6339 65.6498 19.8268 67.359C22.0196 69.0682 24.7197 69.9975 27.5 70C29.1661 70.0048 30.816 69.6721 32.35 69.0219C37.2408 67.0048 42.7311 67.0048 47.6219 69.0219C50.5842 70.3103 53.9303 70.4018 56.9587 69.2772C59.987 68.1527 62.4624 65.8994 63.8659 62.9898C65.2694 60.0802 65.492 56.7403 64.4869 53.6702C63.4819 50.6001 61.3274 48.0383 58.475 46.5219V46.5188Z" fill="white"/>
</g>
<defs>
<clipPath id="clip0_10647_1725">
<rect width="80" height="80" fill="white"/>
</clipPath>
</defs>
</svg>
