<svg width="24" height="24" viewBox="0 0 24 24" fill="none" xmlns="http://www.w3.org/2000/svg">
<path d="M12.1671 7.94101L11.0917 14.7314C10.9351 15.7132 10.3954 16.5928 9.59107 17.1772C8.7867 17.7617 7.78336 18.0031 6.80119 17.8486C6.63747 17.8226 6.49076 17.7327 6.39333 17.5986C6.2959 17.4645 6.25573 17.2972 6.28166 17.1335C6.30759 16.9698 6.39749 16.8231 6.5316 16.7256C6.6657 16.6282 6.83301 16.588 6.99673 16.614C7.65161 16.7177 8.32087 16.557 8.85728 16.1673C9.3937 15.7776 9.75332 15.1907 9.85704 14.5358L9.95481 13.9185L5.32502 13.1852C4.99758 13.1334 4.70416 12.9536 4.5093 12.6854C4.31443 12.4172 4.2341 12.0825 4.28596 11.7551L5.06813 6.81664C5.11999 6.4892 5.2998 6.19578 5.56801 6.00091C5.83621 5.80605 6.17084 5.72571 6.49828 5.77757L11.1281 6.51086C11.4555 6.56272 11.7489 6.74253 11.9438 7.01074C12.1387 7.27895 12.219 7.61358 12.1671 7.94101ZM20.079 7.92855L15.4492 7.19526C15.1218 7.1434 14.7871 7.22374 14.5189 7.4186C14.2507 7.61346 14.0709 7.90689 14.0191 8.23433L13.2369 13.1728C13.185 13.5002 13.2654 13.8348 13.4602 14.103C13.6551 14.3713 13.9485 14.5511 14.2759 14.6029L18.9057 15.3362L18.808 15.9535C18.7042 16.6084 18.3446 17.1952 17.8082 17.585C17.2718 17.9747 16.6025 18.1354 15.9477 18.0317C15.7839 18.0057 15.6166 18.0459 15.4825 18.1433C15.3484 18.2408 15.2585 18.3875 15.2326 18.5512C15.2067 18.7149 15.2468 18.8822 15.3443 19.0163C15.4417 19.1504 15.5884 19.2403 15.7521 19.2663C16.7343 19.4208 17.7376 19.1793 18.542 18.5949C19.3464 18.0105 19.886 17.1309 20.0426 16.1491L21.1181 9.3587C21.1699 9.03126 21.0896 8.69663 20.8947 8.42843C20.6999 8.16022 20.4064 7.98041 20.079 7.92855Z" fill="currentColor"/>
</svg>
