<svg width="80" height="80" viewBox="0 0 80 80" fill="none" xmlns="http://www.w3.org/2000/svg">
<g clip-path="url(#clip0_10647_616)">
<path d="M70 12.5V23.75C70 24.413 69.7366 25.0489 69.2678 25.5178C68.7989 25.9866 68.163 26.25 67.5 26.25C66.837 26.25 66.2011 25.9866 65.7322 25.5178C65.2634 25.0489 65 24.413 65 23.75V15H56.25C55.587 15 54.9511 14.7366 54.4822 14.2678C54.0134 13.7989 53.75 13.163 53.75 12.5C53.75 11.837 54.0134 11.2011 54.4822 10.7322C54.9511 10.2634 55.587 10 56.25 10H67.5C68.163 10 68.7989 10.2634 69.2678 10.7322C69.7366 11.2011 70 11.837 70 12.5ZM67.5 53.75C66.837 53.75 66.2011 54.0134 65.7322 54.4822C65.2634 54.9511 65 55.587 65 56.25V65H56.25C55.587 65 54.9511 65.2634 54.4822 65.7322C54.0134 66.2011 53.75 66.837 53.75 67.5C53.75 68.163 54.0134 68.7989 54.4822 69.2678C54.9511 69.7366 55.587 70 56.25 70H67.5C68.163 70 68.7989 69.7366 69.2678 69.2678C69.7366 68.7989 70 68.163 70 67.5V56.25C70 55.587 69.7366 54.9511 69.2678 54.4822C68.7989 54.0134 68.163 53.75 67.5 53.75ZM23.75 65H15V56.25C15 55.587 14.7366 54.9511 14.2678 54.4822C13.7989 54.0134 13.163 53.75 12.5 53.75C11.837 53.75 11.2011 54.0134 10.7322 54.4822C10.2634 54.9511 10 55.587 10 56.25V67.5C10 68.163 10.2634 68.7989 10.7322 69.2678C11.2011 69.7366 11.837 70 12.5 70H23.75C24.413 70 25.0489 69.7366 25.5178 69.2678C25.9866 68.7989 26.25 68.163 26.25 67.5C26.25 66.837 25.9866 66.2011 25.5178 65.7322C25.0489 65.2634 24.413 65 23.75 65ZM12.5 26.25C13.163 26.25 13.7989 25.9866 14.2678 25.5178C14.7366 25.0489 15 24.413 15 23.75V15H23.75C24.413 15 25.0489 14.7366 25.5178 14.2678C25.9866 13.7989 26.25 13.163 26.25 12.5C26.25 11.837 25.9866 11.2011 25.5178 10.7322C25.0489 10.2634 24.413 10 23.75 10H12.5C11.837 10 11.2011 10.2634 10.7322 10.7322C10.2634 11.2011 10 11.837 10 12.5V23.75C10 24.413 10.2634 25.0489 10.7322 25.5178C11.2011 25.9866 11.837 26.25 12.5 26.25ZM40 62.5C35.5499 62.5 31.1998 61.1804 27.4997 58.7081C23.7996 56.2357 20.9157 52.7217 19.2127 48.6104C17.5097 44.499 17.0642 39.975 17.9323 35.6105C18.8005 31.2459 20.9434 27.2368 24.0901 24.0901C27.2368 20.9434 31.2459 18.8005 35.6105 17.9323C39.975 17.0642 44.499 17.5097 48.6104 19.2127C52.7217 20.9157 56.2357 23.7996 58.7081 27.4997C61.1804 31.1998 62.5 35.5499 62.5 40C62.4934 45.9653 60.1207 51.6845 55.9026 55.9026C51.6845 60.1207 45.9653 62.4934 40 62.5ZM32.5 40C33.2417 40 33.9667 39.7801 34.5834 39.368C35.2001 38.956 35.6807 38.3703 35.9645 37.6851C36.2484 36.9998 36.3226 36.2458 36.1779 35.5184C36.0333 34.791 35.6761 34.1228 35.1517 33.5983C34.6272 33.0739 33.959 32.7167 33.2316 32.5721C32.5042 32.4274 31.7502 32.5016 31.0649 32.7855C30.3797 33.0693 29.794 33.5499 29.382 34.1666C28.9699 34.7833 28.75 35.5083 28.75 36.25C28.75 37.2446 29.1451 38.1984 29.8483 38.9017C30.5516 39.6049 31.5054 40 32.5 40ZM49.375 45.8469C48.9365 45.3497 48.3185 45.047 47.6569 45.0054C46.9953 44.9638 46.3442 45.1866 45.8469 45.625C44.6563 46.6781 42.0969 47.5 40 47.5C37.9031 47.5 35.3438 46.6781 34.1531 45.625C33.9079 45.4018 33.6206 45.2296 33.3082 45.1185C32.9958 45.0074 32.6643 44.9595 32.3332 44.9777C32.0021 44.9959 31.6779 45.0798 31.3795 45.2245C31.0811 45.3692 30.8145 45.5719 30.5952 45.8206C30.3759 46.0694 30.2083 46.3592 30.1021 46.6734C29.9959 46.9876 29.9533 47.3197 29.9767 47.6505C30.0001 47.9813 30.0891 48.3041 30.2385 48.6002C30.3879 48.8963 30.5947 49.1596 30.8469 49.375C33.2937 51.5344 37.2063 52.5 40 52.5C42.7937 52.5 46.7062 51.5344 49.1531 49.375C49.6503 48.9365 49.953 48.3185 49.9946 47.6569C50.0362 46.9953 49.8134 46.3442 49.375 45.8469ZM51.25 36.25C51.25 35.5083 51.0301 34.7833 50.618 34.1666C50.206 33.5499 49.6203 33.0693 48.9351 32.7855C48.2498 32.5016 47.4958 32.4274 46.7684 32.5721C46.041 32.7167 45.3728 33.0739 44.8484 33.5983C44.3239 34.1228 43.9667 34.791 43.8221 35.5184C43.6774 36.2458 43.7516 36.9998 44.0355 37.6851C44.3193 38.3703 44.7999 38.956 45.4166 39.368C46.0333 39.7801 46.7583 40 47.5 40C48.4946 40 49.4484 39.6049 50.1516 38.9017C50.8549 38.1984 51.25 37.2446 51.25 36.25Z" fill="white"/>
</g>
<defs>
<clipPath id="clip0_10647_616">
<rect width="80" height="80" fill="white"/>
</clipPath>
</defs>
</svg>
