<svg width="48" height="49" viewBox="0 0 48 49" fill="none" xmlns="http://www.w3.org/2000/svg">
<g clip-path="url(#clip0_10681_642)">
<path d="M44.5611 22.7304L29.5611 37.7304C29.3514 37.9404 29.084 38.0835 28.7928 38.1414C28.5017 38.1994 28.1999 38.1697 27.9257 38.0561C27.6515 37.9425 27.4171 37.75 27.2523 37.5031C27.0875 37.2562 26.9997 36.966 26.9999 36.6692V29.2123C16.2936 29.8198 8.95301 36.7629 6.89239 38.9623C6.56882 39.3078 6.1445 39.5425 5.67983 39.633C5.21515 39.7234 4.73379 39.665 4.30424 39.466C3.8747 39.267 3.51886 38.9376 3.28737 38.5247C3.05588 38.1117 2.96053 37.6363 3.01489 37.166C3.71051 31.1173 7.02364 25.2992 12.3449 20.7842C16.7643 17.0342 22.1361 14.6548 26.9999 14.2385V6.66915C26.9997 6.37231 27.0875 6.08207 27.2523 5.83518C27.4171 5.58829 27.6515 5.39584 27.9257 5.28222C28.1999 5.16859 28.5017 5.13888 28.7928 5.19686C29.084 5.25483 29.3514 5.39788 29.5611 5.6079L44.5611 20.6079C44.7006 20.7472 44.8112 20.9126 44.8867 21.0947C44.9622 21.2768 45.0011 21.472 45.0011 21.6692C45.0011 21.8663 44.9622 22.0615 44.8867 22.2436C44.8112 22.4257 44.7006 22.5911 44.5611 22.7304Z" fill="currentColor"/>
</g>
<defs>
<clipPath id="clip0_10681_642">
<rect width="48" height="48" fill="white" transform="translate(0 0.669922)"/>
</clipPath>
</defs>
</svg>
