<svg width="48" height="49" viewBox="0 0 48 49" fill="none" xmlns="http://www.w3.org/2000/svg">
<g clip-path="url(#clip0_10681_667)">
<path d="M39.7494 38.1693C39.7495 39.1545 39.534 40.1278 39.1179 41.0208C38.7018 41.9139 38.0953 42.705 37.3409 43.3387C36.5866 43.9723 35.7026 44.4332 34.7512 44.6889C33.7997 44.9446 32.8038 44.9889 31.8334 44.8187C30.863 44.6485 29.9416 44.268 29.134 43.7038C28.3263 43.1396 27.6519 42.4054 27.1582 41.5529C26.6645 40.7003 26.3633 39.75 26.276 38.7687C26.1886 37.7873 26.3172 36.7988 26.6525 35.8724L16.715 29.488C15.7659 30.419 14.563 31.049 13.2573 31.2989C11.9515 31.5489 10.601 31.4076 9.37515 30.8929C8.14933 30.3783 7.1028 29.513 6.36684 28.4058C5.63089 27.2986 5.23828 25.9988 5.23828 24.6693C5.23828 23.3398 5.63089 22.0399 6.36684 20.9327C7.1028 19.8255 8.14933 18.9603 9.37515 18.4456C10.601 17.9309 11.9515 17.7897 13.2573 18.0396C14.563 18.2896 15.7659 18.9195 16.715 19.8505L26.6525 13.4755C26.0835 11.9119 26.1105 10.1934 26.7285 8.64837C27.3465 7.10338 28.512 5.84025 30.0024 5.10034C31.4929 4.36042 33.2037 4.1956 34.8079 4.63738C36.4122 5.07915 37.7975 6.09653 38.699 7.49512C39.6006 8.89372 39.9552 10.5755 39.6951 12.219C39.4351 13.8625 38.5786 15.3526 37.2893 16.4046C36 17.4565 34.3683 17.9965 32.706 17.9214C31.0437 17.8463 29.4673 17.1613 28.2782 15.9974L18.3407 22.3818C18.8777 23.8659 18.8777 25.4914 18.3407 26.9755L28.2782 33.3599C29.227 32.4313 30.4285 31.8032 31.7325 31.554C33.0365 31.3048 34.385 31.4457 35.6093 31.959C36.8336 32.4723 37.8794 33.3352 38.6158 34.4398C39.3522 35.5445 39.7465 36.8417 39.7494 38.1693Z" fill="#171717"/>
</g>
<defs>
<clipPath id="clip0_10681_667">
<rect width="48" height="48" fill="white" transform="translate(0 0.669922)"/>
</clipPath>
</defs>
</svg>
