<svg width="48" height="49" viewBox="0 0 48 49" fill="none" xmlns="http://www.w3.org/2000/svg">
<g clip-path="url(#clip0_10681_672)">
<path d="M44.1754 33.6701H41.2954C42.8418 30.6978 43.5963 27.3773 43.4861 24.0286C43.3759 20.6799 42.4047 17.4161 40.6663 14.552C38.9278 11.6878 36.4807 9.31986 33.5609 7.67654C30.6411 6.03321 27.3471 5.16992 23.9966 5.16992C20.6461 5.16992 17.3522 6.03321 14.4324 7.67654C11.5126 9.31986 9.06546 11.6878 7.32699 14.552C5.58853 17.4161 4.61737 20.6799 4.50718 24.0286C4.39698 27.3773 5.15147 30.6978 6.69788 33.6701H3.82538C3.22646 33.6628 2.64835 33.8896 2.21411 34.3021C1.77987 34.7146 1.52378 35.2804 1.50038 35.8789C1.4949 36.1778 1.54905 36.4748 1.65966 36.7526C1.77028 37.0303 1.93514 37.2833 2.14462 37.4966C2.3541 37.7099 2.604 37.8793 2.8797 37.995C3.15541 38.1106 3.4514 38.1702 3.75038 38.1701H15.0004C15.3982 38.1701 15.7797 38.3281 16.061 38.6094C16.3423 38.8907 16.5004 39.2723 16.5004 39.6701C16.5004 40.0679 16.3423 40.4495 16.061 40.7308C15.7797 41.0121 15.3982 41.1701 15.0004 41.1701H13.5304C13.183 41.1694 12.8457 41.2864 12.5733 41.5019C12.301 41.7174 12.1096 42.0188 12.0304 42.357C11.9837 42.5759 11.9865 42.8024 12.0387 43.0201C12.0909 43.2377 12.1912 43.4409 12.3322 43.6148C12.4731 43.7886 12.6512 43.9287 12.8533 44.0248C13.0555 44.1209 13.2766 44.1706 13.5004 44.1701H37.4498C37.8367 44.1749 38.2112 44.0332 38.4981 43.7734C38.785 43.5136 38.9631 43.155 38.9966 42.7695C39.0103 42.5643 38.9815 42.3585 38.9123 42.1649C38.843 41.9713 38.7347 41.794 38.594 41.644C38.4534 41.494 38.2834 41.3745 38.0946 41.293C37.9058 41.2115 37.7023 41.1697 37.4966 41.1701H27.0004C26.6026 41.1701 26.221 41.0121 25.9397 40.7308C25.6584 40.4495 25.5004 40.0679 25.5004 39.6701C25.5004 39.2723 25.6584 38.8907 25.9397 38.6094C26.221 38.3281 26.6026 38.1701 27.0004 38.1701H28.461C28.8316 38.1684 29.1893 38.0342 29.4695 37.7918C29.7498 37.5493 29.9341 37.2147 29.9891 36.8482C30.0143 36.6378 29.9946 36.4244 29.9313 36.2221C29.868 36.0198 29.7625 35.8332 29.6218 35.6746C29.4812 35.5161 29.3085 35.3891 29.1152 35.3022C28.9219 35.2152 28.7123 35.1702 28.5004 35.1701H25.5004C22.701 35.1701 19.7648 34.0864 17.4379 32.1982C14.8973 30.1357 13.5004 27.4601 13.5004 24.6701C13.5001 24.105 13.5446 23.5407 13.6335 22.9826C13.69 22.5932 13.8934 22.2402 14.202 21.9961C14.5106 21.752 14.9009 21.6354 15.2929 21.6701C15.4954 21.6928 15.6912 21.7565 15.8684 21.8574C16.0455 21.9583 16.2001 22.0942 16.323 22.2569C16.4458 22.4195 16.5342 22.6055 16.5827 22.8035C16.6313 23.0014 16.639 23.2072 16.6054 23.4082C16.536 23.8253 16.5009 24.2473 16.5004 24.6701C16.5004 28.8251 21.4241 32.1701 25.5004 32.1701H28.3954C30.9266 32.1701 33.0566 34.242 32.9985 36.7732C32.9946 36.9508 32.9802 37.128 32.9554 37.3039C32.9385 37.4116 32.9453 37.5218 32.9753 37.6267C33.0053 37.7315 33.0579 37.8286 33.1293 37.9111C33.2007 37.9935 33.2892 38.0595 33.3887 38.1042C33.4882 38.1489 33.5963 38.1714 33.7054 38.1701H44.2504C44.5494 38.1702 44.8453 38.1106 45.121 37.995C45.3968 37.8793 45.6467 37.7099 45.8561 37.4966C46.0656 37.2833 46.2305 37.0303 46.3411 36.7526C46.4517 36.4748 46.5059 36.1778 46.5004 35.8789C46.477 35.2804 46.2209 34.7146 45.7866 34.3021C45.3524 33.8896 44.7743 33.6628 44.1754 33.6701ZM23.9816 18.2126C23.927 18.629 23.7568 19.0219 23.4904 19.3466C23.2241 19.6714 22.8721 19.9151 22.4744 20.0502C22.0767 20.1853 21.6491 20.2063 21.24 20.111C20.831 20.0156 20.4568 19.8077 20.1598 19.5107C19.8628 19.2137 19.6548 18.8395 19.5595 18.4304C19.4642 18.0214 19.4852 17.5938 19.6203 17.1961C19.7554 16.7984 19.9991 16.4464 20.3238 16.1801C20.6486 15.9137 21.0414 15.7435 21.4579 15.6889C21.7999 15.6439 22.1477 15.6783 22.4744 15.7892C22.801 15.9002 23.0978 16.0848 23.3418 16.3287C23.5857 16.5727 23.7703 16.8694 23.8812 17.1961C23.9922 17.5228 24.0265 17.8705 23.9816 18.2126ZM32.9816 27.2126C32.927 27.629 32.7568 28.0219 32.4904 28.3466C32.2241 28.6714 31.8721 28.9151 31.4744 29.0502C31.0767 29.1853 30.6491 29.2063 30.24 29.111C29.831 29.0156 29.4568 28.8077 29.1598 28.5107C28.8628 28.2137 28.6548 27.8395 28.5595 27.4304C28.4642 27.0214 28.4852 26.5938 28.6203 26.1961C28.7554 25.7984 28.9991 25.4464 29.3238 25.1801C29.6486 24.9137 30.0414 24.7435 30.4579 24.6889C30.7999 24.6439 31.1477 24.6783 31.4744 24.7892C31.801 24.9002 32.0978 25.0848 32.3418 25.3287C32.5857 25.5727 32.7703 25.8694 32.8812 26.1961C32.9922 26.5228 33.0265 26.8706 32.9816 27.2126Z" fill="currentColor"/>
</g>
<defs>
<clipPath id="clip0_10681_672">
<rect width="48" height="48" fill="white" transform="translate(0 0.669922)"/>
</clipPath>
</defs>
</svg>
