<svg width="160" height="160" viewBox="0 0 160 160" fill="none" xmlns="http://www.w3.org/2000/svg">
<g clip-path="url(#clip0_10658_9344)">
<path d="M107.5 75C107.5 80.439 105.887 85.7558 102.865 90.2782C99.8437 94.8005 95.5488 98.3253 90.5238 100.407C85.4989 102.488 79.9695 103.033 74.635 101.972C69.3006 100.911 64.4005 98.2914 60.5546 94.4454C56.7086 90.5995 54.0895 85.6995 53.0284 80.365C51.9673 75.0305 52.5119 69.5012 54.5933 64.4762C56.6748 59.4512 60.1995 55.1563 64.7218 52.1346C69.2442 49.1128 74.561 47.5 80 47.5C87.2909 47.5083 94.2809 50.4082 99.4363 55.5637C104.592 60.7192 107.492 67.7091 107.5 75ZM145 80C145 92.8558 141.188 105.423 134.046 116.112C126.903 126.801 116.752 135.132 104.874 140.052C92.9973 144.972 79.9279 146.259 67.3192 143.751C54.7104 141.243 43.1285 135.052 34.0381 125.962C24.9477 116.872 18.757 105.29 16.249 92.6809C13.7409 80.0721 15.0282 67.0028 19.9479 55.1256C24.8676 43.2484 33.1988 33.0968 43.888 25.9545C54.5772 18.8122 67.1442 15 80 15C97.2335 15.0182 113.756 21.8722 125.942 34.0582C138.128 46.2441 144.982 62.7665 145 80ZM135 80C134.992 72.5971 133.491 65.2718 130.587 58.4622C127.683 51.6527 123.436 45.4987 118.099 40.3683C112.762 35.238 106.445 31.2366 99.5264 28.6035C92.6075 25.9704 85.2288 24.7597 77.8313 25.0437C48.3938 26.1812 24.9188 50.7 25 80.1562C25.0283 93.5658 29.9739 106.499 38.9 116.506C42.5352 111.234 47.1528 106.712 52.5 103.188C52.9559 102.886 53.4979 102.743 54.0431 102.779C54.5883 102.815 55.1066 103.029 55.5188 103.387C62.3136 109.265 70.9973 112.499 79.9813 112.499C88.9652 112.499 97.6489 109.265 104.444 103.387C104.856 103.029 105.374 102.815 105.919 102.779C106.465 102.743 107.007 102.886 107.463 103.188C112.817 106.71 117.441 111.232 121.081 116.506C130.052 106.463 135.007 93.4662 135 80Z" fill="white"/>
</g>
<defs>
<clipPath id="clip0_10658_9344">
<rect width="160" height="160" fill="white"/>
</clipPath>
</defs>
</svg>
