<svg width="160" height="160" viewBox="0 0 160 160" fill="none" xmlns="http://www.w3.org/2000/svg">
<g clip-path="url(#clip0_10658_9348)">
<path d="M146.456 43.45C145.867 41.1459 144.739 39.0149 143.164 37.2327C141.59 35.4505 139.614 34.0683 137.4 33.2C115.975 24.925 81.875 25 80 25C78.125 25 44.025 24.925 22.6 33.2C20.386 34.0683 18.4102 35.4505 16.8356 37.2327C15.261 39.0149 14.1327 41.1459 13.5438 43.45C11.925 49.6875 10 61.0875 10 80C10 98.9125 11.925 110.313 13.5438 116.55C14.1318 118.855 15.2597 120.988 16.8344 122.771C18.409 124.554 20.3853 125.937 22.6 126.806C43.125 134.725 75.25 135 79.5875 135H80.4125C84.75 135 116.894 134.725 137.4 126.806C139.615 125.937 141.591 124.554 143.166 122.771C144.74 120.988 145.868 118.855 146.456 116.55C148.075 110.3 150 98.9125 150 80C150 61.0875 148.075 49.6875 146.456 43.45ZM100.369 84.075L75.3687 101.575C74.6209 102.099 73.7439 102.408 72.8328 102.469C71.9218 102.53 71.0115 102.34 70.2006 101.92C69.3898 101.5 68.7095 100.866 68.2334 100.087C67.7573 99.3077 67.5037 98.4131 67.5 97.5V62.5C67.5003 61.5854 67.7514 60.6883 68.2261 59.9064C68.7008 59.1246 69.3809 58.488 70.1923 58.0658C71.0038 57.6437 71.9155 57.4522 72.8282 57.5122C73.7409 57.5722 74.6196 57.8815 75.3687 58.4063L100.369 75.9063C101.026 76.3674 101.563 76.9802 101.934 77.6928C102.304 78.4054 102.498 79.1968 102.498 80C102.498 80.8032 102.304 81.5946 101.934 82.3072C101.563 83.0198 101.026 83.6326 100.369 84.0938V84.075Z" fill="white"/>
</g>
<defs>
<clipPath id="clip0_10658_9348">
<rect width="160" height="160" fill="white"/>
</clipPath>
</defs>
</svg>
