<svg width="106" height="20" viewBox="0 0 106 20" fill="none" xmlns="http://www.w3.org/2000/svg">
<path d="M94.2208 3.77003V9.99348L98.8279 13.2328C98.9884 13.3456 98.9086 13.5979 98.7124 13.5979H94.6224C94.4005 13.5979 94.2207 13.7778 94.2207 13.9996V19.3533C94.2207 19.5752 94.4006 19.755 94.6224 19.755L101.778 19.7549C101.873 19.7549 101.968 19.7312 102.063 19.6837C102.158 19.6481 102.253 19.6006 102.348 19.5413L105.74 16.764C105.835 16.6928 105.9 16.6098 105.935 16.5148C105.959 16.4317 105.971 16.3368 105.971 16.23V10.0065L101.364 6.76724C101.203 6.65441 101.283 6.40209 101.479 6.40209H105.569C105.791 6.40209 105.971 6.22224 105.971 6.00039V0.646689C105.971 0.424837 105.791 0.244992 105.569 0.244995L98.4134 0.245098C98.3184 0.245098 98.2235 0.268835 98.1285 0.316308C98.0336 0.351913 97.9387 0.399387 97.8437 0.458729L94.4522 3.23595C94.3572 3.30716 94.292 3.39024 94.2564 3.48519C94.2326 3.56827 94.2208 3.66321 94.2208 3.77003Z" fill="currentColor"/>
<path d="M80.1662 5.18585C80.1426 5.24467 80.1309 5.37407 80.1309 5.57406V14.4259C80.1309 14.6259 80.1426 14.7553 80.1662 14.8141C80.2014 14.8847 80.2838 14.9906 80.4132 15.1318L84.7364 19.5256C84.8306 19.6079 84.9305 19.6668 85.0364 19.7021C85.1423 19.7374 85.2776 19.755 85.4423 19.755H92.2283C92.5224 19.755 92.6694 19.6079 92.6694 19.3138V14.0389C92.6694 13.818 92.4904 13.6389 92.2695 13.6389H88.7236C88.5275 13.6389 88.3405 13.5567 88.2079 13.4123L86.6501 11.7152C86.5315 11.586 86.4657 11.4171 86.4657 11.2418V8.75819C86.4657 8.58289 86.5315 8.41397 86.6501 8.28483L88.2079 6.5877C88.3405 6.44327 88.5275 6.36106 88.7236 6.36106H92.2695C92.4904 6.36106 92.6694 6.18197 92.6694 5.96106V0.686142C92.6694 0.392044 92.5224 0.244995 92.2283 0.244995H85.4423C85.2776 0.244995 85.1423 0.262641 85.0364 0.297933C84.9305 0.333223 84.8306 0.392043 84.7364 0.474392L80.4132 4.86822C80.2838 5.00939 80.2014 5.11526 80.1662 5.18585Z" fill="currentColor"/>
<path fill-rule="evenodd" clip-rule="evenodd" d="M68.0801 19.4536C68.2811 19.6545 68.5175 19.755 68.7894 19.755H74.1799C74.4518 19.755 74.6882 19.6545 74.8892 19.4536L78.4356 15.9072C78.6247 15.7181 78.7193 15.4816 78.7193 15.1979V4.80699C78.7193 4.52328 78.6247 4.28685 78.4356 4.09771L74.8892 0.55132C74.6882 0.350358 74.4518 0.249878 74.1799 0.249878H68.7894C68.5175 0.249878 68.2811 0.350358 68.0801 0.55132L64.5337 4.09771C64.3446 4.28685 64.25 4.52328 64.25 4.80699V15.1979C64.25 15.4816 64.3446 15.7181 64.5337 15.9072L68.0801 19.4536ZM70.746 13.3975C70.746 13.8056 71.0768 14.1364 71.4848 14.1364C71.8928 14.1364 72.2236 13.8056 72.2236 13.3975L72.2236 6.60725C72.2236 6.19921 71.8928 5.86842 71.4848 5.86842C71.0768 5.86842 70.746 6.19921 70.746 6.60725L70.746 13.3975Z" fill="currentColor"/>
<path fill-rule="evenodd" clip-rule="evenodd" d="M49.2686 19.3893C49.2686 19.6331 49.3905 19.755 49.6343 19.755H58.9235C59.1478 19.755 59.3428 19.6721 59.5086 19.5063L62.4343 16.5806C62.5904 16.4245 62.6684 16.2295 62.6684 15.9954V3.99994C62.6684 3.77563 62.5904 3.58058 62.4343 3.41479L59.5086 0.489062C59.3428 0.333023 59.1478 0.255005 58.9235 0.255005H49.6343C49.3905 0.255005 49.2686 0.376908 49.2686 0.620719V19.3893ZM55.2299 13.3973C55.2299 13.8053 55.5607 14.1361 55.9687 14.1361C56.3767 14.1361 56.7075 13.8053 56.7075 13.3973L56.7075 6.60701C56.7075 6.19897 56.3767 5.86818 55.9687 5.86818C55.5607 5.86818 55.2299 6.19897 55.2299 6.60701L55.2299 13.3973Z" fill="currentColor"/>
<path d="M47.3878 5.20519V0.697706C47.3878 0.402246 47.2401 0.254517 46.9446 0.254517H42.4515C42.3115 0.254517 42.1818 0.327631 42.1093 0.44732L39.258 5.15589C39.1307 5.366 38.8076 5.2758 38.8076 5.03017L38.8076 0.697924C38.8076 0.402464 38.6599 0.254734 38.3644 0.254734H32.7625C32.4671 0.254734 32.3193 0.402464 32.3193 0.697924V19.3116C32.3193 19.6071 32.4671 19.7548 32.7625 19.7548H38.3644C38.6599 19.7548 38.8076 19.6071 38.8076 19.3116L38.8076 14.9794C38.8076 14.7337 39.1307 14.6435 39.258 14.8536L42.1093 19.5622C42.1818 19.6819 42.3115 19.755 42.4515 19.755H46.9446C47.2401 19.755 47.3878 19.6073 47.3878 19.3118V14.8043C47.3878 14.5391 47.3168 14.2786 47.182 14.0501L44.9171 10.2079C44.8432 10.0826 44.8432 9.92702 44.9171 9.80168L47.182 5.95943C47.3168 5.7309 47.3878 5.47047 47.3878 5.20519Z" fill="currentColor"/>
<path fill-rule="evenodd" clip-rule="evenodd" d="M20.1455 19.4536C20.3465 19.6545 20.5829 19.755 20.8548 19.755H26.2453C26.5172 19.755 26.7536 19.6545 26.9546 19.4536L30.501 15.9072C30.6901 15.7181 30.7847 15.4816 30.7847 15.1979V4.80699C30.7847 4.52328 30.6901 4.28685 30.501 4.09771L26.9546 0.55132C26.7536 0.350358 26.5172 0.249878 26.2453 0.249878H20.8548C20.5829 0.249878 20.3465 0.350358 20.1455 0.55132L16.5991 4.09771C16.41 4.28685 16.3154 4.52328 16.3154 4.80699V15.1979C16.3154 15.4816 16.41 15.7181 16.5991 15.9072L20.1455 19.4536ZM22.8109 13.3975C22.8109 13.8056 23.1417 14.1363 23.5497 14.1363C23.9578 14.1363 24.2886 13.8056 24.2886 13.3975L24.2886 6.60725C24.2886 6.19921 23.9578 5.86842 23.5497 5.86842C23.1417 5.86842 22.8109 6.19921 22.8109 6.60725L22.8109 13.3975Z" fill="currentColor"/>
<path d="M4.64215 19.755C4.34668 19.755 4.19895 19.6073 4.19895 19.3118L4.19903 6.19053H0.471512C0.176051 6.19053 0.0283203 6.0428 0.0283203 5.74734V0.699904C0.0283203 0.404444 0.176051 0.256714 0.471512 0.256714H14.7232C15.0187 0.256714 15.1664 0.404444 15.1664 0.699904V5.74734C15.1664 6.0428 15.0187 6.19053 14.7232 6.19053H10.8859L10.8859 19.3118C10.8859 19.6073 10.7381 19.755 10.4427 19.755H4.64215Z" fill="currentColor"/>
</svg>
