<svg width="24" height="25" viewBox="0 0 24 25" fill="none" xmlns="http://www.w3.org/2000/svg">
<g clip-path="url(#clip0_2183_7838)">
<path d="M12 21.303C16.9706 21.303 21 17.2735 21 12.303C21 7.33242 16.9706 3.30298 12 3.30298C7.02944 3.30298 3 7.33242 3 12.303C3 17.2735 7.02944 21.303 12 21.303Z" stroke="white" stroke-width="1.5" stroke-miterlimit="10"/>
<path fill-rule="evenodd" clip-rule="evenodd" d="M12.75 8.55298C12.75 8.13876 12.4142 7.80298 12 7.80298C11.5858 7.80298 11.25 8.13876 11.25 8.55298V11.553H8.25C7.83579 11.553 7.5 11.8888 7.5 12.303C7.5 12.7172 7.83579 13.053 8.25 13.053H11.25V16.053C11.25 16.4672 11.5858 16.803 12 16.803C12.4142 16.803 12.75 16.4672 12.75 16.053V13.053H15.75C16.1642 13.053 16.5 12.7172 16.5 12.303C16.5 11.8888 16.1642 11.553 15.75 11.553H12.75V8.55298Z" fill="white"/>
</g>
<defs>
<clipPath id="clip0_2183_7838">
<rect width="24" height="24" fill="white" transform="translate(0 0.302979)"/>
</clipPath>
</defs>
</svg>
